<svg version="1.1" xmlns="http://www.w3.org/2000/svg" xmlns:xlink="http://www.w3.org/1999/xlink" width="1220" height="1708"><defs/><g><g transform="translate(-54,-70) scale(1,1)"><path fill="#C0C0C0" stroke="none" d="M 617 335 L 692 335 Q 702 335 702 345 L 702 365 Q 702 375 692 375 L 617 375 Q 607 375 607 365 L 607 345 Q 607 335 617 335 Z" opacity="0.2"/></g><g transform="translate(-54,-70) scale(1,1)"><path fill="#ffffff" stroke="none" d="M 610 328 L 685 328 Q 695 328 695 338 L 695 358 Q 695 368 685 368 L 610 368 Q 600 368 600 358 L 600 338 Q 600 328 610 328 Z"/></g><g transform="translate(-54,-70) scale(1,1)"><path fill="none" stroke="#000000" d="M 610 328 L 685 328 Q 695 328 695 338 L 695 358 Q 695 368 685 368 L 610 368 Q 600 368 600 358 L 600 338 Q 600 328 610 328 Z" stroke-miterlimit="10"/></g><g transform="translate(-54,-70) scale(1,1)"><g><path fill="none" stroke="none"/><text fill="#000000" stroke="none" font-family="Arial" font-size="13px" font-style="normal" font-weight="bold" text-decoration="none" x="621.5" y="347.5">基本功能</text></g></g><g transform="translate(-54,-70) scale(1,1)"><path fill="#C0C0C0" stroke="none" d="M 801 263 L 949.046875 263 Q 959.046875 263 959.046875 273 L 959.046875 293 Q 959.046875 303 949.046875 303 L 801 303 Q 791 303 791 293 L 791 273 Q 791 263 801 263 Z" opacity="0.2"/></g><g transform="translate(-54,-70) scale(1,1)"><path fill="#ffffff" stroke="none" d="M 794 256 L 942.046875 256 Q 952.046875 256 952.046875 266 L 952.046875 286 Q 952.046875 296 942.046875 296 L 794 296 Q 784 296 784 286 L 784 266 Q 784 256 794 256 Z"/></g><g transform="translate(-54,-70) scale(1,1)"><path fill="none" stroke="#000000" d="M 794 256 L 942.046875 256 Q 952.046875 256 952.046875 266 L 952.046875 286 Q 952.046875 296 942.046875 296 L 794 296 Q 784 296 784 286 L 784 266 Q 784 256 794 256 Z" stroke-miterlimit="10"/></g><g transform="translate(-54,-70) scale(1,1)"><g><path fill="none" stroke="none"/><text fill="#000000" stroke="none" font-family="Arial" font-size="13px" font-style="normal" font-weight="bold" text-decoration="none" x="790.0234375" y="275.5">识别图片（课本里的插图）</text></g></g><g transform="translate(-54,-70) scale(1,1)"><path fill="none" stroke="#000000" d="M 695 352 L 728 352 M 728 352 A 8 8 0 0 0 736 344 L 736 288 M 736 288 A 8 8 0 0 1 744 280 L 784 280" stroke-miterlimit="10"/></g><g transform="translate(-54,-70) scale(1,1)"><path fill="none" stroke="#000000" d="M 773.8373251423759 284.209517756016 L 784 280 L 773.8373251423758 275.790482243984" stroke-miterlimit="10"/></g><g transform="translate(-54,-70) scale(1,1)"><path fill="#C0C0C0" stroke="none" d="M 801 335 L 948 335 Q 958 335 958 345 L 958 365 Q 958 375 948 375 L 801 375 Q 791 375 791 365 L 791 345 Q 791 335 801 335 Z" opacity="0.2"/></g><g transform="translate(-54,-70) scale(1,1)"><path fill="#ffffff" stroke="none" d="M 794 328 L 941 328 Q 951 328 951 338 L 951 358 Q 951 368 941 368 L 794 368 Q 784 368 784 358 L 784 338 Q 784 328 794 328 Z"/></g><g transform="translate(-54,-70) scale(1,1)"><path fill="none" stroke="#000000" d="M 794 328 L 941 328 Q 951 328 951 338 L 951 358 Q 951 368 941 368 L 794 368 Q 784 368 784 358 L 784 338 Q 784 328 794 328 Z" stroke-miterlimit="10"/></g><g transform="translate(-54,-70) scale(1,1)"><g><path fill="none" stroke="none"/><text fill="#000000" stroke="none" font-family="Arial" font-size="13px" font-style="normal" font-weight="bold" text-decoration="none" x="832.470458984375" y="347.5">构建AR场景</text></g></g><g transform="translate(-54,-70) scale(1,1)"><path fill="none" stroke="#000000" d="M 695 352 L 784 352" stroke-miterlimit="10"/></g><g transform="translate(-54,-70) scale(1,1)"><path fill="none" stroke="#000000" d="M 773.8373251423759 356.209517756016 L 784 352 L 773.8373251423758 347.790482243984" stroke-miterlimit="10"/></g><g transform="translate(-54,-70) scale(1,1)"><path fill="#C0C0C0" stroke="none" d="M 801 391 L 956 391 Q 966 391 966 401 L 966 421 Q 966 431 956 431 L 801 431 Q 791 431 791 421 L 791 401 Q 791 391 801 391 Z" opacity="0.2"/></g><g transform="translate(-54,-70) scale(1,1)"><path fill="#ffffff" stroke="none" d="M 794 384 L 949 384 Q 959 384 959 394 L 959 414 Q 959 424 949 424 L 794 424 Q 784 424 784 414 L 784 394 Q 784 384 794 384 Z"/></g><g transform="translate(-54,-70) scale(1,1)"><path fill="none" stroke="#000000" d="M 794 384 L 949 384 Q 959 384 959 394 L 959 414 Q 959 424 949 424 L 794 424 Q 784 424 784 414 L 784 394 Q 784 384 794 384 Z" stroke-miterlimit="10"/></g><g transform="translate(-54,-70) scale(1,1)"><g><path fill="none" stroke="none"/><text fill="#000000" stroke="none" font-family="Arial" font-size="13px" font-style="normal" font-weight="bold" text-decoration="none" x="806.5" y="403.5">虚拟电路三维场景表现</text></g></g><g transform="translate(-54,-70) scale(1,1)"><path fill="none" stroke="#000000" d="M 695 352 L 728 352 M 728 352 A 8 8 0 0 1 736 360 L 736 400 M 736 400 A 8 8 0 0 0 744 408 L 784 408" stroke-miterlimit="10"/></g><g transform="translate(-54,-70) scale(1,1)"><path fill="none" stroke="#000000" d="M 773.8373251423759 412.209517756016 L 784 408 L 773.8373251423758 403.790482243984" stroke-miterlimit="10"/></g><g transform="translate(-54,-70) scale(1,1)"><path fill="#C0C0C0" stroke="none" d="M 481 559 L 549 559 Q 559 559 559 569 L 559 589 Q 559 599 549 599 L 481 599 Q 471 599 471 589 L 471 569 Q 471 559 481 559 Z" opacity="0.2"/></g><g transform="translate(-54,-70) scale(1,1)"><path fill="#ffffff" stroke="none" d="M 474 552 L 542 552 Q 552 552 552 562 L 552 582 Q 552 592 542 592 L 474 592 Q 464 592 464 582 L 464 562 Q 464 552 474 552 Z"/></g><g transform="translate(-54,-70) scale(1,1)"><path fill="none" stroke="#000000" d="M 474 552 L 542 552 Q 552 552 552 562 L 552 582 Q 552 592 542 592 L 474 592 Q 464 592 464 582 L 464 562 Q 464 552 474 552 Z" stroke-miterlimit="10"/></g><g transform="translate(-54,-70) scale(1,1)"><g><path fill="none" stroke="none"/><text fill="#000000" stroke="none" font-family="Arial" font-size="13px" font-style="normal" font-weight="bold" text-decoration="none" x="488.5" y="571.5">方案一</text></g></g><g transform="translate(-54,-70) scale(1,1)"><path fill="#C0C0C0" stroke="none" d="M 625 167 L 701 167 Q 711 167 711 177 L 711 197 Q 711 207 701 207 L 625 207 Q 615 207 615 197 L 615 177 Q 615 167 625 167 Z" opacity="0.2"/></g><g transform="translate(-54,-70) scale(1,1)"><path fill="#ffffff" stroke="none" d="M 618 160 L 694 160 Q 704 160 704 170 L 704 190 Q 704 200 694 200 L 618 200 Q 608 200 608 190 L 608 170 Q 608 160 618 160 Z"/></g><g transform="translate(-54,-70) scale(1,1)"><path fill="none" stroke="#000000" d="M 618 160 L 694 160 Q 704 160 704 170 L 704 190 Q 704 200 694 200 L 618 200 Q 608 200 608 190 L 608 170 Q 608 160 618 160 Z" stroke-miterlimit="10"/></g><g transform="translate(-54,-70) scale(1,1)"><g><path fill="none" stroke="none"/><text fill="#000000" stroke="none" font-family="Arial" font-size="13px" font-style="normal" font-weight="bold" text-decoration="none" x="630" y="179.5">方案描述</text></g></g><g transform="translate(-54,-70) scale(1,1)"><path fill="none" stroke="#000000" d="M 552 572 L 568 572 M 568 572 A 8 8 0 0 0 576 564 L 576 192 M 576 192 A 8 8 0 0 1 584 184 L 608 184" stroke-miterlimit="10"/></g><g transform="translate(-54,-70) scale(1,1)"><path fill="none" stroke="#000000" d="M 597.8373251423759 188.209517756016 L 608 184 L 597.8373251423758 179.790482243984" stroke-miterlimit="10"/></g><g transform="translate(-54,-70) scale(1,1)"><path fill="none" stroke="#000000" d="M 552 572 L 568 572 M 568 572 A 8 8 0 0 0 576 564 L 576 360 M 576 360 A 8 8 0 0 1 584 352 L 600 352" stroke-miterlimit="10"/></g><g transform="translate(-54,-70) scale(1,1)"><path fill="none" stroke="#000000" d="M 589.8373251423759 356.209517756016 L 600 352 L 589.8373251423758 347.790482243984" stroke-miterlimit="10"/></g><g transform="translate(-54,-70) scale(1,1)"><path fill="#ffffff" stroke="none" d="M 728 80 L 1139 80 L 1149 90 L 1149 215 L 728 215 L 728 80"/></g><g transform="translate(-54,-70) scale(1,1)"><path fill="none" stroke="#000000" d="M 728 80 L 1139 80 L 1149 90 L 1149 215 L 728 215 L 728 80 L 728 80" stroke-miterlimit="10"/></g><g transform="translate(-54,-70) scale(1,1)"><path fill="none" stroke="#000000" d="M 1139 80 L 1139 90 L 1149 90 L 1139 80" stroke-miterlimit="10"/></g><g transform="translate(-54,-70) scale(1,1)"><g><path fill="none" stroke="none"/><text fill="#000000" stroke="none" font-family="Arial" font-size="13px" font-style="normal" font-weight="normal" text-decoration="none" x="733" y="98">方案描述：</text></g></g><g transform="translate(-54,-70) scale(1,1)"><g><path fill="none" stroke="none"/><text fill="#000000" stroke="none" font-family="Arial" font-size="13px" font-style="normal" font-weight="normal" text-decoration="none" x="733" y="113">通过应用的图像识别功能，将物理课本上的电路相关的一些图片识别出</text><text fill="#000000" stroke="none" font-family="Arial" font-size="13px" font-style="normal" font-weight="normal" text-decoration="none" x="733" y="126">来，加载预先制作好的与图片对应的电路场景，对电路进行模拟演示，</text><text fill="#000000" stroke="none" font-family="Arial" font-size="13px" font-style="normal" font-weight="normal" text-decoration="none" x="733" y="139">显示电流流向和大小等，可对开关进行互动，可显示灯泡亮度和电动机</text><text fill="#000000" stroke="none" font-family="Arial" font-size="13px" font-style="normal" font-weight="normal" text-decoration="none" x="733" y="152">转速（功率），可对电路中的电学元件进行拖拽摆放，可增加删除或者</text><text fill="#000000" stroke="none" font-family="Arial" font-size="13px" font-style="normal" font-weight="normal" text-decoration="none" x="733" y="165">替换电路元件。可以在电路的任意一条线路上增加任意数量的闭合回路</text><text fill="#000000" stroke="none" font-family="Arial" font-size="13px" font-style="normal" font-weight="normal" text-decoration="none" x="733" y="178">，短路提示等等。</text></g></g><g transform="translate(-54,-70) scale(1,1)"><path fill="#C0C0C0" stroke="none" d="M 617 919 L 684 919 Q 694 919 694 929 L 694 949 Q 694 959 684 959 L 617 959 Q 607 959 607 949 L 607 929 Q 607 919 617 919 Z" opacity="0.2"/></g><g transform="translate(-54,-70) scale(1,1)"><path fill="#ffffff" stroke="none" d="M 610 912 L 677 912 Q 687 912 687 922 L 687 942 Q 687 952 677 952 L 610 952 Q 600 952 600 942 L 600 922 Q 600 912 610 912 Z"/></g><g transform="translate(-54,-70) scale(1,1)"><path fill="none" stroke="#000000" d="M 610 912 L 677 912 Q 687 912 687 922 L 687 942 Q 687 952 677 952 L 610 952 Q 600 952 600 942 L 600 922 Q 600 912 610 912 Z" stroke-miterlimit="10"/></g><g transform="translate(-54,-70) scale(1,1)"><g><path fill="none" stroke="none"/><text fill="#000000" stroke="none" font-family="Arial" font-size="13px" font-style="normal" font-weight="bold" text-decoration="none" x="624" y="931.5">优缺点</text></g></g><g transform="translate(-54,-70) scale(1,1)"><path fill="none" stroke="#000000" d="M 552 572 L 568 572 M 568 572 A 8 8 0 0 1 576 580 L 576 924 M 576 924 A 8 8 0 0 0 584 932 L 600 932" stroke-miterlimit="10"/></g><g transform="translate(-54,-70) scale(1,1)"><path fill="none" stroke="#000000" d="M 589.8373251423759 936.209517756016 L 600 932 L 589.8373251423758 927.790482243984" stroke-miterlimit="10"/></g><g transform="translate(-54,-70) scale(1,1)"><path fill="#C0C0C0" stroke="none" d="M 801 447 L 975.5546875 447 Q 985.5546875 447 985.5546875 457 L 985.5546875 477 Q 985.5546875 487 975.5546875 487 L 801 487 Q 791 487 791 477 L 791 457 Q 791 447 801 447 Z" opacity="0.2"/></g><g transform="translate(-54,-70) scale(1,1)"><path fill="#ffffff" stroke="none" d="M 794 440 L 968.5546875 440 Q 978.5546875 440 978.5546875 450 L 978.5546875 470 Q 978.5546875 480 968.5546875 480 L 794 480 Q 784 480 784 470 L 784 450 Q 784 440 794 440 Z"/></g><g transform="translate(-54,-70) scale(1,1)"><path fill="none" stroke="#000000" d="M 794 440 L 968.5546875 440 Q 978.5546875 440 978.5546875 450 L 978.5546875 470 Q 978.5546875 480 968.5546875 480 L 794 480 Q 784 480 784 470 L 784 450 Q 784 440 794 440 Z" stroke-miterlimit="10"/></g><g transform="translate(-54,-70) scale(1,1)"><g><path fill="none" stroke="none"/><text fill="#000000" stroke="none" font-family="Arial" font-size="13px" font-style="normal" font-weight="bold" text-decoration="none" x="790.27734375" y="459.5">电路模拟演示（电流流向等等）</text></g></g><g transform="translate(-54,-70) scale(1,1)"><path fill="none" stroke="#000000" d="M 695 352 L 728 352 M 728 352 A 8 8 0 0 1 736 360 L 736 456 M 736 456 A 8 8 0 0 0 744 464 L 784 464" stroke-miterlimit="10"/></g><g transform="translate(-54,-70) scale(1,1)"><path fill="none" stroke="#000000" d="M 773.8373251423759 468.209517756016 L 784 464 L 773.8373251423758 459.790482243984" stroke-miterlimit="10"/></g><g transform="translate(-54,-70) scale(1,1)"><path fill="#C0C0C0" stroke="none" d="M 801 511 L 972 511 Q 982 511 982 521 L 982 541 Q 982 551 972 551 L 801 551 Q 791 551 791 541 L 791 521 Q 791 511 801 511 Z" opacity="0.2"/></g><g transform="translate(-54,-70) scale(1,1)"><path fill="#e2e2e2" stroke="none" d="M 794 504 L 965 504 Q 975 504 975 514 L 975 534 Q 975 544 965 544 L 794 544 Q 784 544 784 534 L 784 514 Q 784 504 794 504 Z"/></g><g transform="translate(-54,-70) scale(1,1)"><path fill="none" stroke="#000000" d="M 794 504 L 965 504 Q 975 504 975 514 L 975 534 Q 975 544 965 544 L 794 544 Q 784 544 784 534 L 784 514 Q 784 504 794 504 Z" stroke-miterlimit="10"/></g><g transform="translate(-54,-70) scale(1,1)"><g><path fill="none" stroke="none"/><text fill="#000000" stroke="none" font-family="Arial" font-size="13px" font-style="normal" font-weight="bold" text-decoration="none" x="795" y="523.5">电路中的电学元件的增加删除</text></g></g><g transform="translate(-54,-70) scale(1,1)"><path fill="none" stroke="#000000" d="M 695 352 L 728 352 M 728 352 A 8 8 0 0 1 736 360 L 736 520 M 736 520 A 8 8 0 0 0 744 528 L 784 528" stroke-miterlimit="10"/></g><g transform="translate(-54,-70) scale(1,1)"><path fill="none" stroke="#000000" d="M 773.8373251423759 532.209517756016 L 784 528 L 773.8373251423758 523.790482243984" stroke-miterlimit="10"/></g><g transform="translate(-54,-70) scale(1,1)"><path fill="none" stroke="#000000" d="M 704 170 L 728 170" stroke-miterlimit="10" stroke-dasharray="3"/></g><g transform="translate(-54,-70) scale(1,1)"><path fill="#C0C0C0" stroke="none" d="M 313 1063 L 420 1063 Q 430 1063 430 1073 L 430 1101 Q 430 1111 420 1111 L 313 1111 Q 303 1111 303 1101 L 303 1073 Q 303 1063 313 1063 Z" opacity="0.2"/></g><g transform="translate(-54,-70) scale(1,1)"><path fill="#ffffff" stroke="none" d="M 306 1056 L 413 1056 Q 423 1056 423 1066 L 423 1094 Q 423 1104 413 1104 L 306 1104 Q 296 1104 296 1094 L 296 1066 Q 296 1056 306 1056 Z"/></g><g transform="translate(-54,-70) scale(1,1)"><path fill="none" stroke="#000000" d="M 306 1056 L 413 1056 Q 423 1056 423 1066 L 423 1094 Q 423 1104 413 1104 L 306 1104 Q 296 1104 296 1094 L 296 1066 Q 296 1056 306 1056 Z" stroke-miterlimit="10"/></g><g transform="translate(-54,-70) scale(1,1)"><g><path fill="none" stroke="none"/><text fill="#000000" stroke="none" font-family="Arial" font-size="13px" font-style="normal" font-weight="bold" text-decoration="none" x="333.5" y="1075.5">功能方案</text></g></g><g transform="translate(-54,-70) scale(1,1)"><path fill="none" stroke="#000000" d="M 423 1072 L 432 1072 M 432 1072 A 8 8 0 0 0 440 1064 L 440 580 M 440 580 A 8 8 0 0 1 448 572 L 464 572" stroke-miterlimit="10"/></g><g transform="translate(-54,-70) scale(1,1)"><path fill="none" stroke="#000000" d="M 453.83732514237585 576.209517756016 L 464 572 L 453.83732514237585 567.790482243984" stroke-miterlimit="10"/></g><g transform="translate(-54,-70) scale(1,1)"><path fill="#C0C0C0" stroke="none" d="M 801 679 L 980 679 Q 990 679 990 689 L 990 709 Q 990 719 980 719 L 801 719 Q 791 719 791 709 L 791 689 Q 791 679 801 679 Z" opacity="0.2"/></g><g transform="translate(-54,-70) scale(1,1)"><path fill="#ffffff" stroke="none" d="M 794 672 L 973 672 Q 983 672 983 682 L 983 702 Q 983 712 973 712 L 794 712 Q 784 712 784 702 L 784 682 Q 784 672 794 672 Z"/></g><g transform="translate(-54,-70) scale(1,1)"><path fill="none" stroke="#000000" d="M 794 672 L 973 672 Q 983 672 983 682 L 983 702 Q 983 712 973 712 L 794 712 Q 784 712 784 702 L 784 682 Q 784 672 794 672 Z" stroke-miterlimit="10"/></g><g transform="translate(-54,-70) scale(1,1)"><g><path fill="none" stroke="none"/><text fill="#000000" stroke="none" font-family="Arial" font-size="13px" font-style="normal" font-weight="bold" text-decoration="none" x="857.5" y="691.5">短路提示</text></g></g><g transform="translate(-54,-70) scale(1,1)"><path fill="#C0C0C0" stroke="none" d="M 801 735 L 972 735 Q 982 735 982 745 L 982 765 Q 982 775 972 775 L 801 775 Q 791 775 791 765 L 791 745 Q 791 735 801 735 Z" opacity="0.2"/></g><g transform="translate(-54,-70) scale(1,1)"><path fill="#ffffff" stroke="none" d="M 794 728 L 965 728 Q 975 728 975 738 L 975 758 Q 975 768 965 768 L 794 768 Q 784 768 784 758 L 784 738 Q 784 728 794 728 Z"/></g><g transform="translate(-54,-70) scale(1,1)"><path fill="none" stroke="#000000" d="M 794 728 L 965 728 Q 975 728 975 738 L 975 758 Q 975 768 965 768 L 794 768 Q 784 768 784 758 L 784 738 Q 784 728 794 728 Z" stroke-miterlimit="10"/></g><g transform="translate(-54,-70) scale(1,1)"><g><path fill="none" stroke="none"/><text fill="#000000" stroke="none" font-family="Arial" font-size="13px" font-style="normal" font-weight="bold" text-decoration="none" x="840.5" y="747.5">灯泡亮度提示</text></g></g><g transform="translate(-54,-70) scale(1,1)"><path fill="#C0C0C0" stroke="none" d="M 801 791 L 972 791 Q 982 791 982 801 L 982 821 Q 982 831 972 831 L 801 831 Q 791 831 791 821 L 791 801 Q 791 791 801 791 Z" opacity="0.2"/></g><g transform="translate(-54,-70) scale(1,1)"><path fill="#ffffff" stroke="none" d="M 794 784 L 965 784 Q 975 784 975 794 L 975 814 Q 975 824 965 824 L 794 824 Q 784 824 784 814 L 784 794 Q 784 784 794 784 Z"/></g><g transform="translate(-54,-70) scale(1,1)"><path fill="none" stroke="#000000" d="M 794 784 L 965 784 Q 975 784 975 794 L 975 814 Q 975 824 965 824 L 794 824 Q 784 824 784 814 L 784 794 Q 784 784 794 784 Z" stroke-miterlimit="10"/></g><g transform="translate(-54,-70) scale(1,1)"><g><path fill="none" stroke="none"/><text fill="#000000" stroke="none" font-family="Arial" font-size="13px" font-style="normal" font-weight="bold" text-decoration="none" x="853.5" y="803.5">开关互动</text></g></g><g transform="translate(-54,-70) scale(1,1)"><path fill="#ffffff" stroke="none" d="M 1024 352 L 1253 352 L 1263 362 L 1263 438 L 1024 438 L 1024 352"/></g><g transform="translate(-54,-70) scale(1,1)"><path fill="none" stroke="#000000" d="M 1024 352 L 1253 352 L 1263 362 L 1263 438 L 1024 438 L 1024 352 L 1024 352" stroke-miterlimit="10"/></g><g transform="translate(-54,-70) scale(1,1)"><path fill="none" stroke="#000000" d="M 1253 352 L 1253 362 L 1263 362 L 1253 352" stroke-miterlimit="10"/></g><g transform="translate(-54,-70) scale(1,1)"><g><path fill="none" stroke="none"/><text fill="#000000" stroke="none" font-family="Arial" font-size="13px" font-style="normal" font-weight="normal" text-decoration="none" x="1029" y="370">主要表现的电学元件为：</text></g></g><g transform="translate(-54,-70) scale(1,1)"><g><path fill="none" stroke="none"/><text fill="#000000" stroke="none" font-family="Arial" font-size="13px" font-style="normal" font-weight="normal" text-decoration="none" x="1029" y="385">电源、灯泡、开关、导线、电阻、电动</text><text fill="#000000" stroke="none" font-family="Arial" font-size="13px" font-style="normal" font-weight="normal" text-decoration="none" x="1029" y="398">机等等。</text></g></g><g transform="translate(-54,-70) scale(1,1)"><path fill="none" stroke="#000000" d="M 959 402 L 1024 402" stroke-miterlimit="10" stroke-dasharray="3"/></g><g transform="translate(-54,-70) scale(1,1)"><path fill="none" stroke="#000000" d="M 695 356 L 728 356 M 728 356 A 8 8 0 0 1 736 364 L 736 700 M 736 700 A 8 8 0 0 0 744 708 L 784 708" stroke-miterlimit="10"/></g><g transform="translate(-54,-70) scale(1,1)"><path fill="none" stroke="#000000" d="M 773.8373251423759 712.209517756016 L 784 708 L 773.8373251423758 703.790482243984" stroke-miterlimit="10"/></g><g transform="translate(-54,-70) scale(1,1)"><path fill="none" stroke="#000000" d="M 695 356 L 728 356 M 728 356 A 8 8 0 0 1 736 364 L 736 756 M 736 756 A 8 8 0 0 0 744 764 L 784 764" stroke-miterlimit="10"/></g><g transform="translate(-54,-70) scale(1,1)"><path fill="none" stroke="#000000" d="M 773.8373251423759 768.209517756016 L 784 764 L 773.8373251423758 759.790482243984" stroke-miterlimit="10"/></g><g transform="translate(-54,-70) scale(1,1)"><path fill="none" stroke="#000000" d="M 695 356 L 728 356 M 728 356 A 8 8 0 0 1 736 364 L 736 812 M 736 812 A 8 8 0 0 0 744 820 L 784 820" stroke-miterlimit="10"/></g><g transform="translate(-54,-70) scale(1,1)"><path fill="none" stroke="#000000" d="M 773.8373251423759 824.209517756016 L 784 820 L 773.8373251423758 815.790482243984" stroke-miterlimit="10"/></g><g transform="translate(-54,-70) scale(1,1)"><path fill="#C0C0C0" stroke="none" d="M 801 847 L 908 847 Q 918 847 918 857 L 918 877 Q 918 887 908 887 L 801 887 Q 791 887 791 877 L 791 857 Q 791 847 801 847 Z" opacity="0.2"/></g><g transform="translate(-54,-70) scale(1,1)"><path fill="#ffffff" stroke="none" d="M 794 840 L 901 840 Q 911 840 911 850 L 911 870 Q 911 880 901 880 L 794 880 Q 784 880 784 870 L 784 850 Q 784 840 794 840 Z"/></g><g transform="translate(-54,-70) scale(1,1)"><path fill="none" stroke="#000000" d="M 794 840 L 901 840 Q 911 840 911 850 L 911 870 Q 911 880 901 880 L 794 880 Q 784 880 784 870 L 784 850 Q 784 840 794 840 Z" stroke-miterlimit="10"/></g><g transform="translate(-54,-70) scale(1,1)"><g><path fill="none" stroke="none"/><text fill="#000000" stroke="none" font-family="Arial" font-size="13px" font-style="normal" font-weight="bold" text-decoration="none" x="828" y="859.5">。。。</text></g></g><g transform="translate(-54,-70) scale(1,1)"><path fill="none" stroke="#000000" d="M 695 356 L 728 356 M 728 356 A 8 8 0 0 1 736 364 L 736 868 M 736 868 A 8 8 0 0 0 744 876 L 784 876" stroke-miterlimit="10"/></g><g transform="translate(-54,-70) scale(1,1)"><path fill="none" stroke="#000000" d="M 773.8373251423759 880.209517756016 L 784 876 L 773.8373251423758 871.790482243984" stroke-miterlimit="10"/></g><g transform="translate(-54,-70) scale(1,1)"><path fill="#C0C0C0" stroke="none" d="M 801 575 L 964 575 Q 974 575 974 585 L 974 605 Q 974 615 964 615 L 801 615 Q 791 615 791 605 L 791 585 Q 791 575 801 575 Z" opacity="0.2"/></g><g transform="translate(-54,-70) scale(1,1)"><path fill="#e2e2e2" stroke="none" d="M 794 568 L 957 568 Q 967 568 967 578 L 967 598 Q 967 608 957 608 L 794 608 Q 784 608 784 598 L 784 578 Q 784 568 794 568 Z"/></g><g transform="translate(-54,-70) scale(1,1)"><path fill="none" stroke="#000000" d="M 794 568 L 957 568 Q 967 568 967 578 L 967 598 Q 967 608 957 608 L 794 608 Q 784 608 784 598 L 784 578 Q 784 568 794 568 Z" stroke-miterlimit="10"/></g><g transform="translate(-54,-70) scale(1,1)"><g><path fill="none" stroke="none"/><text fill="#000000" stroke="none" font-family="Arial" font-size="13px" font-style="normal" font-weight="bold" text-decoration="none" x="817" y="587.5">电学元件的拖拽功能</text></g></g><g transform="translate(-54,-70) scale(1,1)"><path fill="none" stroke="#000000" d="M 695 352 L 728 352 M 728 352 A 8 8 0 0 1 736 360 L 736 584 M 736 584 A 8 8 0 0 0 744 592 L 784 592" stroke-miterlimit="10"/></g><g transform="translate(-54,-70) scale(1,1)"><path fill="none" stroke="#000000" d="M 773.8373251423759 596.209517756016 L 784 592 L 773.8373251423758 587.790482243984" stroke-miterlimit="10"/></g><g transform="translate(-54,-70) scale(1,1)"><path fill="#C0C0C0" stroke="none" d="M 801 631 L 948 631 Q 958 631 958 641 L 958 661 Q 958 671 948 671 L 801 671 Q 791 671 791 661 L 791 641 Q 791 631 801 631 Z" opacity="0.2"/></g><g transform="translate(-54,-70) scale(1,1)"><path fill="#e2e2e2" stroke="none" d="M 794 624 L 941 624 Q 951 624 951 634 L 951 654 Q 951 664 941 664 L 794 664 Q 784 664 784 654 L 784 634 Q 784 624 794 624 Z"/></g><g transform="translate(-54,-70) scale(1,1)"><path fill="none" stroke="#000000" d="M 794 624 L 941 624 Q 951 624 951 634 L 951 654 Q 951 664 941 664 L 794 664 Q 784 664 784 654 L 784 634 Q 784 624 794 624 Z" stroke-miterlimit="10"/></g><g transform="translate(-54,-70) scale(1,1)"><g><path fill="none" stroke="none"/><text fill="#000000" stroke="none" font-family="Arial" font-size="13px" font-style="normal" font-weight="bold" text-decoration="none" x="828.5" y="643.5">增加闭合回路</text></g></g><g transform="translate(-54,-70) scale(1,1)"><path fill="none" stroke="#000000" d="M 695 352 L 728 352 M 728 352 A 8 8 0 0 1 736 360 L 736 632 M 736 632 A 8 8 0 0 0 744 640 L 784 640" stroke-miterlimit="10"/></g><g transform="translate(-54,-70) scale(1,1)"><path fill="none" stroke="#000000" d="M 773.8373251423759 644.209517756016 L 784 640 L 773.8373251423758 635.790482243984" stroke-miterlimit="10"/></g><g transform="translate(-54,-70) scale(1,1)"><path fill="#ffffff" stroke="none" d="M 760 904 L 1126.22998046875 904 L 1136.22998046875 914 L 1136.22998046875 1015 L 760 1015 L 760 904"/></g><g transform="translate(-54,-70) scale(1,1)"><path fill="none" stroke="#000000" d="M 760 904 L 1126.22998046875 904 L 1136.22998046875 914 L 1136.22998046875 1015 L 760 1015 L 760 904 L 760 904" stroke-miterlimit="10"/></g><g transform="translate(-54,-70) scale(1,1)"><path fill="none" stroke="#000000" d="M 1126.22998046875 904 L 1126.22998046875 914 L 1136.22998046875 914 L 1126.22998046875 904" stroke-miterlimit="10"/></g><g transform="translate(-54,-70) scale(1,1)"><g><path fill="none" stroke="none"/><text fill="#000000" stroke="none" font-family="Arial" font-size="13px" font-style="normal" font-weight="normal" text-decoration="none" x="765" y="922">优点：</text></g></g><g transform="translate(-54,-70) scale(1,1)"><g><path fill="none" stroke="none"/><text fill="#000000" stroke="none" font-family="Arial" font-size="13px" font-style="normal" font-weight="normal" text-decoration="none" x="765" y="937">  1，功能较为丰富；</text></g></g><g transform="translate(-54,-70) scale(1,1)"><g><path fill="none" stroke="none"/><text fill="#000000" stroke="none" font-family="Arial" font-size="13px" font-style="normal" font-weight="normal" text-decoration="none" x="765" y="952">  2，电路构建不会出错，能构建初中物理里的串联和并联电路；</text></g></g><g transform="translate(-54,-70) scale(1,1)"><g><path fill="none" stroke="none"/><text fill="#000000" stroke="none" font-family="Arial" font-size="13px" font-style="normal" font-weight="normal" text-decoration="none" x="765" y="967">缺点：</text></g></g><g transform="translate(-54,-70) scale(1,1)"><g><path fill="none" stroke="none"/><text fill="#000000" stroke="none" font-family="Arial" font-size="13px" font-style="normal" font-weight="normal" text-decoration="none" x="765" y="982">  1，操作比较繁琐；</text></g></g><g transform="translate(-54,-70) scale(1,1)"><g><path fill="none" stroke="none"/><text fill="#000000" stroke="none" font-family="Arial" font-size="13px" font-style="normal" font-weight="normal" text-decoration="none" x="765" y="997">  2，容易遇到不可控的bug；</text></g></g><g transform="translate(-54,-70) scale(1,1)"><path fill="none" stroke="#000000" d="M 687 943 L 760 943" stroke-miterlimit="10" stroke-dasharray="3"/></g><g transform="translate(-54,-70) scale(1,1)"><path fill="#C0C0C0" stroke="none" d="M 473 1167 L 533 1167 Q 543 1167 543 1177 L 543 1197 Q 543 1207 533 1207 L 473 1207 Q 463 1207 463 1197 L 463 1177 Q 463 1167 473 1167 Z" opacity="0.2"/></g><g transform="translate(-54,-70) scale(1,1)"><path fill="#ffffff" stroke="none" d="M 466 1160 L 526 1160 Q 536 1160 536 1170 L 536 1190 Q 536 1200 526 1200 L 466 1200 Q 456 1200 456 1190 L 456 1170 Q 456 1160 466 1160 Z"/></g><g transform="translate(-54,-70) scale(1,1)"><path fill="none" stroke="#000000" d="M 466 1160 L 526 1160 Q 536 1160 536 1170 L 536 1190 Q 536 1200 526 1200 L 466 1200 Q 456 1200 456 1190 L 456 1170 Q 456 1160 466 1160 Z" stroke-miterlimit="10"/></g><g transform="translate(-54,-70) scale(1,1)"><g><path fill="none" stroke="none"/><text fill="#000000" stroke="none" font-family="Arial" font-size="13px" font-style="normal" font-weight="bold" text-decoration="none" x="476.5" y="1179.5">方案二</text></g></g><g transform="translate(-54,-70) scale(1,1)"><path fill="none" stroke="#000000" d="M 423 1080 L 432 1080 M 432 1080 A 8 8 0 0 1 440 1088 L 440 1168 M 440 1168 A 8 8 0 0 0 448 1176 L 456 1176" stroke-miterlimit="10"/></g><g transform="translate(-54,-70) scale(1,1)"><path fill="none" stroke="#000000" d="M 445.83732514237585 1180.2095177560159 L 456 1176 L 445.83732514237585 1171.7904822439841" stroke-miterlimit="10"/></g><g transform="translate(-54,-70) scale(1,1)"><path fill="#C0C0C0" stroke="none" d="M 633 1111 L 684 1111 Q 694 1111 694 1121 L 694 1141 Q 694 1151 684 1151 L 633 1151 Q 623 1151 623 1141 L 623 1121 Q 623 1111 633 1111 Z" opacity="0.2"/></g><g transform="translate(-54,-70) scale(1,1)"><path fill="#ffffff" stroke="none" d="M 626 1104 L 677 1104 Q 687 1104 687 1114 L 687 1134 Q 687 1144 677 1144 L 626 1144 Q 616 1144 616 1134 L 616 1114 Q 616 1104 626 1104 Z"/></g><g transform="translate(-54,-70) scale(1,1)"><path fill="none" stroke="#000000" d="M 626 1104 L 677 1104 Q 687 1104 687 1114 L 687 1134 Q 687 1144 677 1144 L 626 1144 Q 616 1144 616 1134 L 616 1114 Q 616 1104 626 1104 Z" stroke-miterlimit="10"/></g><g transform="translate(-54,-70) scale(1,1)"><g><path fill="none" stroke="none"/><text fill="#000000" stroke="none" font-family="Arial" font-size="13px" font-style="normal" font-weight="bold" text-decoration="none" x="625.5" y="1123.5">方案描述</text></g></g><g transform="translate(-54,-70) scale(1,1)"><path fill="#C0C0C0" stroke="none" d="M 633 1175 L 714.77734375 1175 Q 724.77734375 1175 724.77734375 1185 L 724.77734375 1205 Q 724.77734375 1215 714.77734375 1215 L 633 1215 Q 623 1215 623 1205 L 623 1185 Q 623 1175 633 1175 Z" opacity="0.2"/></g><g transform="translate(-54,-70) scale(1,1)"><path fill="#ffffff" stroke="none" d="M 626 1168 L 707.77734375 1168 Q 717.77734375 1168 717.77734375 1178 L 717.77734375 1198 Q 717.77734375 1208 707.77734375 1208 L 626 1208 Q 616 1208 616 1198 L 616 1178 Q 616 1168 626 1168 Z"/></g><g transform="translate(-54,-70) scale(1,1)"><path fill="none" stroke="#000000" d="M 626 1168 L 707.77734375 1168 Q 717.77734375 1168 717.77734375 1178 L 717.77734375 1198 Q 717.77734375 1208 707.77734375 1208 L 626 1208 Q 616 1208 616 1198 L 616 1178 Q 616 1168 626 1168 Z" stroke-miterlimit="10"/></g><g transform="translate(-54,-70) scale(1,1)"><g><path fill="none" stroke="none"/><text fill="#000000" stroke="none" font-family="Arial" font-size="13px" font-style="normal" font-weight="bold" text-decoration="none" x="621.388671875" y="1187.5">基本功能（略）</text></g></g><g transform="translate(-54,-70) scale(1,1)"><path fill="#C0C0C0" stroke="none" d="M 641 1279 L 700 1279 Q 710 1279 710 1289 L 710 1309 Q 710 1319 700 1319 L 641 1319 Q 631 1319 631 1309 L 631 1289 Q 631 1279 641 1279 Z" opacity="0.2"/></g><g transform="translate(-54,-70) scale(1,1)"><path fill="#ffffff" stroke="none" d="M 634 1272 L 693 1272 Q 703 1272 703 1282 L 703 1302 Q 703 1312 693 1312 L 634 1312 Q 624 1312 624 1302 L 624 1282 Q 624 1272 634 1272 Z"/></g><g transform="translate(-54,-70) scale(1,1)"><path fill="none" stroke="#000000" d="M 634 1272 L 693 1272 Q 703 1272 703 1282 L 703 1302 Q 703 1312 693 1312 L 634 1312 Q 624 1312 624 1302 L 624 1282 Q 624 1272 634 1272 Z" stroke-miterlimit="10"/></g><g transform="translate(-54,-70) scale(1,1)"><g><path fill="none" stroke="none"/><text fill="#000000" stroke="none" font-family="Arial" font-size="13px" font-style="normal" font-weight="bold" text-decoration="none" x="644" y="1291.5">优缺点</text></g></g><g transform="translate(-54,-70) scale(1,1)"><path fill="none" stroke="#000000" d="M 536 1176 L 576 1176 M 576 1176 A 8 8 0 0 0 584 1168 L 584 1136 M 584 1136 A 8 8 0 0 1 592 1128 L 616 1128" stroke-miterlimit="10"/></g><g transform="translate(-54,-70) scale(1,1)"><path fill="none" stroke="#000000" d="M 605.8373251423759 1132.2095177560159 L 616 1128 L 605.8373251423758 1123.7904822439841" stroke-miterlimit="10"/></g><g transform="translate(-54,-70) scale(1,1)"><path fill="none" stroke="#000000" d="M 536 1184 L 616 1184" stroke-miterlimit="10"/></g><g transform="translate(-54,-70) scale(1,1)"><path fill="none" stroke="#000000" d="M 605.8373251423759 1188.2095177560159 L 616 1184 L 605.8373251423758 1179.7904822439841" stroke-miterlimit="10"/></g><g transform="translate(-54,-70) scale(1,1)"><path fill="none" stroke="#000000" d="M 536 1192 L 576 1192 M 576 1192 A 8 8 0 0 1 584 1200 L 584 1288 M 584 1288 A 8 8 0 0 0 592 1296 L 624 1296" stroke-miterlimit="10"/></g><g transform="translate(-54,-70) scale(1,1)"><path fill="none" stroke="#000000" d="M 613.8373251423759 1300.2095177560159 L 624 1296 L 613.8373251423758 1291.7904822439841" stroke-miterlimit="10"/></g><g transform="translate(-54,-70) scale(1,1)"><path fill="#ffffff" stroke="none" d="M 752 1112 L 1059 1112 L 1069 1122 L 1069 1148 L 752 1148 L 752 1112"/></g><g transform="translate(-54,-70) scale(1,1)"><path fill="none" stroke="#000000" d="M 752 1112 L 1059 1112 L 1069 1122 L 1069 1148 L 752 1148 L 752 1112 L 752 1112" stroke-miterlimit="10"/></g><g transform="translate(-54,-70) scale(1,1)"><path fill="none" stroke="#000000" d="M 1059 1112 L 1059 1122 L 1069 1122 L 1059 1112" stroke-miterlimit="10"/></g><g transform="translate(-54,-70) scale(1,1)"><g><path fill="none" stroke="none"/><text fill="#000000" stroke="none" font-family="Arial" font-size="13px" font-style="normal" font-weight="normal" text-decoration="none" x="757" y="1130">在方案一的基础上移除操作较为繁琐的拖拽和增加，</text><text fill="#000000" stroke="none" font-family="Arial" font-size="13px" font-style="normal" font-weight="normal" text-decoration="none" x="757" y="1143">移除电学元件功能（方案一中灰色功能）</text></g></g><g transform="translate(-54,-70) scale(1,1)"><path fill="none" stroke="#000000" d="M 687 1125 L 752 1125" stroke-miterlimit="10" stroke-dasharray="3"/></g><g transform="translate(-54,-70) scale(1,1)"><path fill="#ffffff" stroke="none" d="M 752 1272 L 1118.22998046875 1272 L 1128.22998046875 1282 L 1128.22998046875 1340 L 752 1340 L 752 1272"/></g><g transform="translate(-54,-70) scale(1,1)"><path fill="none" stroke="#000000" d="M 752 1272 L 1118.22998046875 1272 L 1128.22998046875 1282 L 1128.22998046875 1340 L 752 1340 L 752 1272 L 752 1272" stroke-miterlimit="10"/></g><g transform="translate(-54,-70) scale(1,1)"><path fill="none" stroke="#000000" d="M 1118.22998046875 1272 L 1118.22998046875 1282 L 1128.22998046875 1282 L 1118.22998046875 1272" stroke-miterlimit="10"/></g><g transform="translate(-54,-70) scale(1,1)"><g><path fill="none" stroke="none"/><text fill="#000000" stroke="none" font-family="Arial" font-size="13px" font-style="normal" font-weight="normal" text-decoration="none" x="757" y="1290">优点：</text></g></g><g transform="translate(-54,-70) scale(1,1)"><g><path fill="none" stroke="none"/><text fill="#000000" stroke="none" font-family="Arial" font-size="13px" font-style="normal" font-weight="normal" text-decoration="none" x="757" y="1305">  1，操作比较简单；</text></g></g><g transform="translate(-54,-70) scale(1,1)"><g><path fill="none" stroke="none"/><text fill="#000000" stroke="none" font-family="Arial" font-size="13px" font-style="normal" font-weight="normal" text-decoration="none" x="757" y="1320">缺点：</text></g></g><g transform="translate(-54,-70) scale(1,1)"><g><path fill="none" stroke="none"/><text fill="#000000" stroke="none" font-family="Arial" font-size="13px" font-style="normal" font-weight="normal" text-decoration="none" x="757" y="1335">  1，功能较为单一；</text></g></g><g transform="translate(-54,-70) scale(1,1)"><path fill="none" stroke="#000000" d="M 703 1296 L 752 1296" stroke-miterlimit="10" stroke-dasharray="3"/></g><g transform="translate(-54,-70) scale(1,1)"><path fill="#C0C0C0" stroke="none" d="M 321 1479 L 405 1479 Q 415 1479 415 1489 L 415 1509 Q 415 1519 405 1519 L 321 1519 Q 311 1519 311 1509 L 311 1489 Q 311 1479 321 1479 Z" opacity="0.2"/></g><g transform="translate(-54,-70) scale(1,1)"><path fill="#ffffff" stroke="none" d="M 314 1472 L 398 1472 Q 408 1472 408 1482 L 408 1502 Q 408 1512 398 1512 L 314 1512 Q 304 1512 304 1502 L 304 1482 Q 304 1472 314 1472 Z"/></g><g transform="translate(-54,-70) scale(1,1)"><path fill="none" stroke="#000000" d="M 314 1472 L 398 1472 Q 408 1472 408 1482 L 408 1502 Q 408 1512 398 1512 L 314 1512 Q 304 1512 304 1502 L 304 1482 Q 304 1472 314 1472 Z" stroke-miterlimit="10"/></g><g transform="translate(-54,-70) scale(1,1)"><g><path fill="none" stroke="none"/><text fill="#000000" stroke="none" font-family="Arial" font-size="13px" font-style="normal" font-weight="bold" text-decoration="none" x="330" y="1491.5">主要技术</text></g></g><g transform="translate(-54,-70) scale(1,1)"><path fill="#C0C0C0" stroke="none" d="M 521 1479 L 620 1479 Q 630 1479 630 1489 L 630 1509 Q 630 1519 620 1519 L 521 1519 Q 511 1519 511 1509 L 511 1489 Q 511 1479 521 1479 Z" opacity="0.2"/></g><g transform="translate(-54,-70) scale(1,1)"><path fill="#ffffff" stroke="none" d="M 514 1472 L 613 1472 Q 623 1472 623 1482 L 623 1502 Q 623 1512 613 1512 L 514 1512 Q 504 1512 504 1502 L 504 1482 Q 504 1472 514 1472 Z"/></g><g transform="translate(-54,-70) scale(1,1)"><path fill="none" stroke="#000000" d="M 514 1472 L 613 1472 Q 623 1472 623 1482 L 623 1502 Q 623 1512 613 1512 L 514 1512 Q 504 1512 504 1502 L 504 1482 Q 504 1472 514 1472 Z" stroke-miterlimit="10"/></g><g transform="translate(-54,-70) scale(1,1)"><g><path fill="none" stroke="none"/><text fill="#000000" stroke="none" font-family="Arial" font-size="13px" font-style="normal" font-weight="bold" text-decoration="none" x="537.5" y="1491.5">图形渲染</text></g></g><g transform="translate(-54,-70) scale(1,1)"><path fill="#C0C0C0" stroke="none" d="M 513 1407 L 612 1407 Q 622 1407 622 1417 L 622 1437 Q 622 1447 612 1447 L 513 1447 Q 503 1447 503 1437 L 503 1417 Q 503 1407 513 1407 Z" opacity="0.2"/></g><g transform="translate(-54,-70) scale(1,1)"><path fill="#ffffff" stroke="none" d="M 506 1400 L 605 1400 Q 615 1400 615 1410 L 615 1430 Q 615 1440 605 1440 L 506 1440 Q 496 1440 496 1430 L 496 1410 Q 496 1400 506 1400 Z"/></g><g transform="translate(-54,-70) scale(1,1)"><path fill="none" stroke="#000000" d="M 506 1400 L 605 1400 Q 615 1400 615 1410 L 615 1430 Q 615 1440 605 1440 L 506 1440 Q 496 1440 496 1430 L 496 1410 Q 496 1400 506 1400 Z" stroke-miterlimit="10"/></g><g transform="translate(-54,-70) scale(1,1)"><g><path fill="none" stroke="none"/><text fill="#000000" stroke="none" font-family="Arial" font-size="13px" font-style="normal" font-weight="bold" text-decoration="none" x="542.5" y="1419.5">建模</text></g></g><g transform="translate(-54,-70) scale(1,1)"><path fill="#C0C0C0" stroke="none" d="M 521 1543 L 613 1543 Q 623 1543 623 1553 L 623 1573 Q 623 1583 613 1583 L 521 1583 Q 511 1583 511 1573 L 511 1553 Q 511 1543 521 1543 Z" opacity="0.2"/></g><g transform="translate(-54,-70) scale(1,1)"><path fill="#ffffff" stroke="none" d="M 514 1536 L 606 1536 Q 616 1536 616 1546 L 616 1566 Q 616 1576 606 1576 L 514 1576 Q 504 1576 504 1566 L 504 1546 Q 504 1536 514 1536 Z"/></g><g transform="translate(-54,-70) scale(1,1)"><path fill="none" stroke="#000000" d="M 514 1536 L 606 1536 Q 616 1536 616 1546 L 616 1566 Q 616 1576 606 1576 L 514 1576 Q 504 1576 504 1566 L 504 1546 Q 504 1536 514 1536 Z" stroke-miterlimit="10"/></g><g transform="translate(-54,-70) scale(1,1)"><g><path fill="none" stroke="none"/><text fill="#000000" stroke="none" font-family="Arial" font-size="13px" font-style="normal" font-weight="bold" text-decoration="none" x="534" y="1555.5">图像识别</text></g></g><g transform="translate(-54,-70) scale(1,1)"><path fill="#C0C0C0" stroke="none" d="M 521 1599 L 604 1599 Q 614 1599 614 1609 L 614 1629 Q 614 1639 604 1639 L 521 1639 Q 511 1639 511 1629 L 511 1609 Q 511 1599 521 1599 Z" opacity="0.2"/></g><g transform="translate(-54,-70) scale(1,1)"><path fill="#ffffff" stroke="none" d="M 514 1592 L 597 1592 Q 607 1592 607 1602 L 607 1622 Q 607 1632 597 1632 L 514 1632 Q 504 1632 504 1622 L 504 1602 Q 504 1592 514 1592 Z"/></g><g transform="translate(-54,-70) scale(1,1)"><path fill="none" stroke="#000000" d="M 514 1592 L 597 1592 Q 607 1592 607 1602 L 607 1622 Q 607 1632 597 1632 L 514 1632 Q 504 1632 504 1622 L 504 1602 Q 504 1592 514 1592 Z" stroke-miterlimit="10"/></g><g transform="translate(-54,-70) scale(1,1)"><g><path fill="none" stroke="none"/><text fill="#000000" stroke="none" font-family="Arial" font-size="13px" font-style="normal" font-weight="bold" text-decoration="none" x="529.5" y="1611.5">编程语言</text></g></g><g transform="translate(-54,-70) scale(1,1)"><path fill="#C0C0C0" stroke="none" d="M 729 1399 L 904.97021484375 1399 Q 914.97021484375 1399 914.97021484375 1409 L 914.97021484375 1429 Q 914.97021484375 1439 904.97021484375 1439 L 729 1439 Q 719 1439 719 1429 L 719 1409 Q 719 1399 729 1399 Z" opacity="0.2"/></g><g transform="translate(-54,-70) scale(1,1)"><path fill="#ffffff" stroke="none" d="M 722 1392 L 897.97021484375 1392 Q 907.97021484375 1392 907.97021484375 1402 L 907.97021484375 1422 Q 907.97021484375 1432 897.97021484375 1432 L 722 1432 Q 712 1432 712 1422 L 712 1402 Q 712 1392 722 1392 Z"/></g><g transform="translate(-54,-70) scale(1,1)"><path fill="none" stroke="#000000" d="M 722 1392 L 897.97021484375 1392 Q 907.97021484375 1392 907.97021484375 1402 L 907.97021484375 1422 Q 907.97021484375 1432 897.97021484375 1432 L 722 1432 Q 712 1432 712 1422 L 712 1402 Q 712 1392 722 1392 Z" stroke-miterlimit="10"/></g><g transform="translate(-54,-70) scale(1,1)"><g><path fill="none" stroke="none"/><text fill="#000000" stroke="none" font-family="Arial" font-size="13px" font-style="normal" font-weight="bold" text-decoration="none" x="719.3310546875" y="1411.5">3dsMax、maya等三维建模软件</text></g></g><g transform="translate(-54,-70) scale(1,1)"><path fill="#C0C0C0" stroke="none" d="M 737 1479 L 916 1479 Q 926 1479 926 1489 L 926 1509 Q 926 1519 916 1519 L 737 1519 Q 727 1519 727 1509 L 727 1489 Q 727 1479 737 1479 Z" opacity="0.2"/></g><g transform="translate(-54,-70) scale(1,1)"><path fill="#ffffff" stroke="none" d="M 730 1472 L 909 1472 Q 919 1472 919 1482 L 919 1502 Q 919 1512 909 1512 L 730 1512 Q 720 1512 720 1502 L 720 1482 Q 720 1472 730 1472 Z"/></g><g transform="translate(-54,-70) scale(1,1)"><path fill="none" stroke="#000000" d="M 730 1472 L 909 1472 Q 919 1472 919 1482 L 919 1502 Q 919 1512 909 1512 L 730 1512 Q 720 1512 720 1502 L 720 1482 Q 720 1472 730 1472 Z" stroke-miterlimit="10"/></g><g transform="translate(-54,-70) scale(1,1)"><g><path fill="none" stroke="none"/><text fill="#000000" stroke="none" font-family="Arial" font-size="13px" font-style="normal" font-weight="bold" text-decoration="none" x="754.46826171875" y="1491.5">unity5.x版本，openGL</text></g></g><g transform="translate(-54,-70) scale(1,1)"><path fill="#C0C0C0" stroke="none" d="M 737 1551 L 900 1551 Q 910 1551 910 1561 L 910 1581 Q 910 1591 900 1591 L 737 1591 Q 727 1591 727 1581 L 727 1561 Q 727 1551 737 1551 Z" opacity="0.2"/></g><g transform="translate(-54,-70) scale(1,1)"><path fill="#ffffff" stroke="none" d="M 730 1544 L 893 1544 Q 903 1544 903 1554 L 903 1574 Q 903 1584 893 1584 L 730 1584 Q 720 1584 720 1574 L 720 1554 Q 720 1544 730 1544 Z"/></g><g transform="translate(-54,-70) scale(1,1)"><path fill="none" stroke="#000000" d="M 730 1544 L 893 1544 Q 903 1544 903 1554 L 903 1574 Q 903 1584 893 1584 L 730 1584 Q 720 1584 720 1574 L 720 1554 Q 720 1544 730 1544 Z" stroke-miterlimit="10"/></g><g transform="translate(-54,-70) scale(1,1)"><g><path fill="none" stroke="none"/><text fill="#000000" stroke="none" font-family="Arial" font-size="13px" font-style="normal" font-weight="bold" text-decoration="none" x="739.615966796875" y="1563.5">高通ARSDK或者openCV</text></g></g><g transform="translate(-54,-70) scale(1,1)"><path fill="#C0C0C0" stroke="none" d="M 745 1615 L 876 1615 Q 886 1615 886 1625 L 886 1645 Q 886 1655 876 1655 L 745 1655 Q 735 1655 735 1645 L 735 1625 Q 735 1615 745 1615 Z" opacity="0.2"/></g><g transform="translate(-54,-70) scale(1,1)"><path fill="#ffffff" stroke="none" d="M 738 1608 L 869 1608 Q 879 1608 879 1618 L 879 1638 Q 879 1648 869 1648 L 738 1648 Q 728 1648 728 1638 L 728 1618 Q 728 1608 738 1608 Z"/></g><g transform="translate(-54,-70) scale(1,1)"><path fill="none" stroke="#000000" d="M 738 1608 L 869 1608 Q 879 1608 879 1618 L 879 1638 Q 879 1648 869 1648 L 738 1648 Q 728 1648 728 1638 L 728 1618 Q 728 1608 738 1608 Z" stroke-miterlimit="10"/></g><g transform="translate(-54,-70) scale(1,1)"><g><path fill="none" stroke="none"/><text fill="#000000" stroke="none" font-family="Arial" font-size="13px" font-style="normal" font-weight="bold" text-decoration="none" x="780.740478515625" y="1627.5">C sharp</text></g></g><g transform="translate(-54,-70) scale(1,1)"><path fill="none" stroke="#000000" d="M 607 1623 L 728 1623" stroke-miterlimit="10"/></g><g transform="translate(-54,-70) scale(1,1)"><path fill="none" stroke="#000000" d="M 717.8373251423759 1627.2095177560159 L 728 1623 L 717.8373251423758 1618.7904822439841" stroke-miterlimit="10"/></g><g transform="translate(-54,-70) scale(1,1)"><path fill="none" stroke="#000000" d="M 616 1561 L 720 1561" stroke-miterlimit="10"/></g><g transform="translate(-54,-70) scale(1,1)"><path fill="none" stroke="#000000" d="M 709.8373251423759 1565.2095177560159 L 720 1561 L 709.8373251423758 1556.7904822439841" stroke-miterlimit="10"/></g><g transform="translate(-54,-70) scale(1,1)"><path fill="none" stroke="#000000" d="M 623 1492 L 720 1492" stroke-miterlimit="10"/></g><g transform="translate(-54,-70) scale(1,1)"><path fill="none" stroke="#000000" d="M 709.8373251423759 1496.2095177560159 L 720 1492 L 709.8373251423758 1487.7904822439841" stroke-miterlimit="10"/></g><g transform="translate(-54,-70) scale(1,1)"><path fill="none" stroke="#000000" d="M 615 1418 L 712 1418" stroke-miterlimit="10"/></g><g transform="translate(-54,-70) scale(1,1)"><path fill="none" stroke="#000000" d="M 701.8373251423759 1422.2095177560159 L 712 1418 L 701.8373251423758 1413.7904822439841" stroke-miterlimit="10"/></g><g transform="translate(-54,-70) scale(1,1)"><path fill="none" stroke="#000000" d="M 408 1496 L 456 1496 M 456 1496 A 8 8 0 0 0 464 1488 L 464 1432 M 464 1432 A 8 8 0 0 1 472 1424 L 496 1424" stroke-miterlimit="10"/></g><g transform="translate(-54,-70) scale(1,1)"><path fill="none" stroke="#000000" d="M 485.83732514237585 1428.2095177560159 L 496 1424 L 485.83732514237585 1419.7904822439841" stroke-miterlimit="10"/></g><g transform="translate(-54,-70) scale(1,1)"><path fill="none" stroke="#000000" d="M 408 1496 L 504 1496" stroke-miterlimit="10"/></g><g transform="translate(-54,-70) scale(1,1)"><path fill="none" stroke="#000000" d="M 493.83732514237585 1500.2095177560159 L 504 1496 L 493.83732514237585 1491.7904822439841" stroke-miterlimit="10"/></g><g transform="translate(-54,-70) scale(1,1)"><path fill="none" stroke="#000000" d="M 408 1496 L 456 1496 M 456 1496 A 8 8 0 0 1 464 1504 L 464 1544 M 464 1544 A 8 8 0 0 0 472 1552 L 504 1552" stroke-miterlimit="10"/></g><g transform="translate(-54,-70) scale(1,1)"><path fill="none" stroke="#000000" d="M 493.83732514237585 1556.2095177560159 L 504 1552 L 493.83732514237585 1547.7904822439841" stroke-miterlimit="10"/></g><g transform="translate(-54,-70) scale(1,1)"><path fill="none" stroke="#000000" d="M 408 1496 L 456 1496 M 456 1496 A 8 8 0 0 1 464 1504 L 464 1584 M 464 1584 A 8 8 0 0 0 472 1592 L 504 1592" stroke-miterlimit="10"/></g><g transform="translate(-54,-70) scale(1,1)"><path fill="none" stroke="#000000" d="M 493.83732514237585 1596.2095177560159 L 504 1592 L 493.83732514237585 1587.7904822439841" stroke-miterlimit="10"/></g><g transform="translate(-54,-70) scale(1,1)"><path fill="#C0C0C0" stroke="none" d="M 529 1671 L 596 1671 Q 606 1671 606 1681 L 606 1701 Q 606 1711 596 1711 L 529 1711 Q 519 1711 519 1701 L 519 1681 Q 519 1671 529 1671 Z" opacity="0.2"/></g><g transform="translate(-54,-70) scale(1,1)"><path fill="#ffffff" stroke="none" d="M 522 1664 L 589 1664 Q 599 1664 599 1674 L 599 1694 Q 599 1704 589 1704 L 522 1704 Q 512 1704 512 1694 L 512 1674 Q 512 1664 522 1664 Z"/></g><g transform="translate(-54,-70) scale(1,1)"><path fill="none" stroke="#000000" d="M 522 1664 L 589 1664 Q 599 1664 599 1674 L 599 1694 Q 599 1704 589 1704 L 522 1704 Q 512 1704 512 1694 L 512 1674 Q 512 1664 522 1664 Z" stroke-miterlimit="10"/></g><g transform="translate(-54,-70) scale(1,1)"><g><path fill="none" stroke="none"/><text fill="#000000" stroke="none" font-family="Arial" font-size="13px" font-style="normal" font-weight="bold" text-decoration="none" x="523" y="1683.5">UI设计制作</text></g></g><g transform="translate(-54,-70) scale(1,1)"><path fill="#C0C0C0" stroke="none" d="M 745 1679 L 868 1679 Q 878 1679 878 1689 L 878 1709 Q 878 1719 868 1719 L 745 1719 Q 735 1719 735 1709 L 735 1689 Q 735 1679 745 1679 Z" opacity="0.2"/></g><g transform="translate(-54,-70) scale(1,1)"><path fill="#ffffff" stroke="none" d="M 738 1672 L 861 1672 Q 871 1672 871 1682 L 871 1702 Q 871 1712 861 1712 L 738 1712 Q 728 1712 728 1702 L 728 1682 Q 728 1672 738 1672 Z"/></g><g transform="translate(-54,-70) scale(1,1)"><path fill="none" stroke="#000000" d="M 738 1672 L 861 1672 Q 871 1672 871 1682 L 871 1702 Q 871 1712 861 1712 L 738 1712 Q 728 1712 728 1702 L 728 1682 Q 728 1672 738 1672 Z" stroke-miterlimit="10"/></g><g transform="translate(-54,-70) scale(1,1)"><g><path fill="none" stroke="none"/><text fill="#000000" stroke="none" font-family="Arial" font-size="13px" font-style="normal" font-weight="bold" text-decoration="none" x="771.687744140625" y="1691.5">PS、AI等</text></g></g><g transform="translate(-54,-70) scale(1,1)"><path fill="none" stroke="#000000" d="M 408 1496 L 456 1496 M 456 1496 A 8 8 0 0 1 464 1504 L 464 1672 M 464 1672 A 8 8 0 0 0 472 1680 L 512 1680" stroke-miterlimit="10"/></g><g transform="translate(-54,-70) scale(1,1)"><path fill="none" stroke="#000000" d="M 501.83732514237585 1684.2095177560159 L 512 1680 L 501.83732514237585 1675.7904822439841" stroke-miterlimit="10"/></g><g transform="translate(-54,-70) scale(1,1)"><path fill="none" stroke="#000000" d="M 599 1690 L 728 1690" stroke-miterlimit="10"/></g><g transform="translate(-54,-70) scale(1,1)"><path fill="none" stroke="#000000" d="M 717.8373251423759 1694.2095177560159 L 728 1690 L 717.8373251423758 1685.7904822439841" stroke-miterlimit="10"/></g><g transform="translate(-54,-70) scale(1,1)"><path fill="#C0C0C0" stroke="none" d="M 529 1735 L 604 1735 Q 614 1735 614 1745 L 614 1765 Q 614 1775 604 1775 L 529 1775 Q 519 1775 519 1765 L 519 1745 Q 519 1735 529 1735 Z" opacity="0.2"/></g><g transform="translate(-54,-70) scale(1,1)"><path fill="#ffffff" stroke="none" d="M 522 1728 L 597 1728 Q 607 1728 607 1738 L 607 1758 Q 607 1768 597 1768 L 522 1768 Q 512 1768 512 1758 L 512 1738 Q 512 1728 522 1728 Z"/></g><g transform="translate(-54,-70) scale(1,1)"><path fill="none" stroke="#000000" d="M 522 1728 L 597 1728 Q 607 1728 607 1738 L 607 1758 Q 607 1768 597 1768 L 522 1768 Q 512 1768 512 1758 L 512 1738 Q 512 1728 522 1728 Z" stroke-miterlimit="10"/></g><g transform="translate(-54,-70) scale(1,1)"><g><path fill="none" stroke="none"/><text fill="#000000" stroke="none" font-family="Arial" font-size="13px" font-style="normal" font-weight="bold" text-decoration="none" x="533.5" y="1747.5">贴图制作</text></g></g><g transform="translate(-54,-70) scale(1,1)"><path fill="none" stroke="#000000" d="M 408 1496 L 456 1496 M 456 1496 A 8 8 0 0 1 464 1504 L 464 1736 M 464 1736 A 8 8 0 0 0 472 1744 L 512 1744" stroke-miterlimit="10"/></g><g transform="translate(-54,-70) scale(1,1)"><path fill="none" stroke="#000000" d="M 501.83732514237585 1748.2095177560159 L 512 1744 L 501.83732514237585 1739.7904822439841" stroke-miterlimit="10"/></g><g transform="translate(-54,-70) scale(1,1)"><path fill="#C0C0C0" stroke="none" d="M 745 1735 L 868 1735 Q 878 1735 878 1745 L 878 1765 Q 878 1775 868 1775 L 745 1775 Q 735 1775 735 1765 L 735 1745 Q 735 1735 745 1735 Z" opacity="0.2"/></g><g transform="translate(-54,-70) scale(1,1)"><path fill="#ffffff" stroke="none" d="M 738 1728 L 861 1728 Q 871 1728 871 1738 L 871 1758 Q 871 1768 861 1768 L 738 1768 Q 728 1768 728 1758 L 728 1738 Q 728 1728 738 1728 Z"/></g><g transform="translate(-54,-70) scale(1,1)"><path fill="none" stroke="#000000" d="M 738 1728 L 861 1728 Q 871 1728 871 1738 L 871 1758 Q 871 1768 861 1768 L 738 1768 Q 728 1768 728 1758 L 728 1738 Q 728 1728 738 1728 Z" stroke-miterlimit="10"/></g><g transform="translate(-54,-70) scale(1,1)"><g><path fill="none" stroke="none"/><text fill="#000000" stroke="none" font-family="Arial" font-size="13px" font-style="normal" font-weight="bold" text-decoration="none" x="753.984130859375" y="1747.5">PS、PixPlant等</text></g></g><g transform="translate(-54,-70) scale(1,1)"><path fill="none" stroke="#000000" d="M 607 1754 L 728 1754" stroke-miterlimit="10"/></g><g transform="translate(-54,-70) scale(1,1)"><path fill="none" stroke="#000000" d="M 717.8373251423759 1758.2095177560159 L 728 1754 L 717.8373251423758 1749.7904822439841" stroke-miterlimit="10"/></g><g transform="translate(-54,-70) scale(1,1)"><path fill="#C0C0C0" stroke="none" d="M 81 1367 L 221.23046875 1367 Q 231.23046875 1367 231.23046875 1377 L 231.23046875 1404 Q 231.23046875 1414 221.23046875 1414 L 81 1414 Q 71 1414 71 1404 L 71 1377 Q 71 1367 81 1367 Z" opacity="0.2"/></g><g transform="translate(-54,-70) scale(1,1)"><path fill="#ffffff" stroke="none" d="M 74 1360 L 214.23046875 1360 Q 224.23046875 1360 224.23046875 1370 L 224.23046875 1397 Q 224.23046875 1407 214.23046875 1407 L 74 1407 Q 64 1407 64 1397 L 64 1370 Q 64 1360 74 1360 Z"/></g><g transform="translate(-54,-70) scale(1,1)"><path fill="none" stroke="#000000" d="M 74 1360 L 214.23046875 1360 Q 224.23046875 1360 224.23046875 1370 L 224.23046875 1397 Q 224.23046875 1407 214.23046875 1407 L 74 1407 Q 64 1407 64 1397 L 64 1370 Q 64 1360 74 1360 Z" stroke-miterlimit="10"/></g><g transform="translate(-54,-70) scale(1,1)"><g><path fill="none" stroke="none"/><text fill="#000000" stroke="none" font-family="Arial" font-size="20px" font-style="normal" font-weight="bold" text-decoration="none" x="70.2236328125" y="1386.5">AR初中物理电路</text></g></g><g transform="translate(-54,-70) scale(1,1)"><path fill="none" stroke="#000000" d="M 224 1376 L 248 1376 M 248 1376 A 8 8 0 0 0 256 1368 L 256 1096 M 256 1096 A 8 8 0 0 1 264 1088 L 296 1088" stroke-miterlimit="10"/></g><g transform="translate(-54,-70) scale(1,1)"><path fill="none" stroke="#000000" d="M 285.83732514237585 1092.2095177560159 L 296 1088 L 285.83732514237585 1083.7904822439841" stroke-miterlimit="10"/></g><g transform="translate(-54,-70) scale(1,1)"><path fill="none" stroke="#000000" d="M 224 1376 L 248 1376 M 248 1376 A 8 8 0 0 1 256 1384 L 256 1484 M 256 1484 A 8 8 0 0 0 264 1492 L 304 1492" stroke-miterlimit="10"/></g><g transform="translate(-54,-70) scale(1,1)"><path fill="none" stroke="#000000" d="M 293.83732514237585 1496.2095177560159 L 304 1492 L 293.83732514237585 1487.7904822439841" stroke-miterlimit="10"/></g></g></svg>