<svg version="1.1" xmlns="http://www.w3.org/2000/svg" xmlns:xlink="http://www.w3.org/1999/xlink" width="1220" height="2396"><defs/><g><g transform="translate(-38,-78) scale(1,1)"><path fill="#C0C0C0" stroke="none" d="M 601 1031 L 676 1031 Q 686 1031 686 1041 L 686 1061 Q 686 1071 676 1071 L 601 1071 Q 591 1071 591 1061 L 591 1041 Q 591 1031 601 1031 Z" opacity="0.2"/></g><g transform="translate(-38,-78) scale(1,1)"><path fill="#ffffff" stroke="none" d="M 594 1024 L 669 1024 Q 679 1024 679 1034 L 679 1054 Q 679 1064 669 1064 L 594 1064 Q 584 1064 584 1054 L 584 1034 Q 584 1024 594 1024 Z"/></g><g transform="translate(-38,-78) scale(1,1)"><path fill="none" stroke="#000000" d="M 594 1024 L 669 1024 Q 679 1024 679 1034 L 679 1054 Q 679 1064 669 1064 L 594 1064 Q 584 1064 584 1054 L 584 1034 Q 584 1024 594 1024 Z" stroke-miterlimit="10"/></g><g transform="translate(-38,-78) scale(1,1)"><g><path fill="none" stroke="none"/><text fill="#000000" stroke="none" font-family="Arial" font-size="13px" font-style="normal" font-weight="bold" text-decoration="none" x="605.5" y="1043.5">基本功能</text></g></g><g transform="translate(-38,-78) scale(1,1)"><path fill="#C0C0C0" stroke="none" d="M 785 959 L 933.046875 959 Q 943.046875 959 943.046875 969 L 943.046875 989 Q 943.046875 999 933.046875 999 L 785 999 Q 775 999 775 989 L 775 969 Q 775 959 785 959 Z" opacity="0.2"/></g><g transform="translate(-38,-78) scale(1,1)"><path fill="#ffffff" stroke="none" d="M 778 952 L 926.046875 952 Q 936.046875 952 936.046875 962 L 936.046875 982 Q 936.046875 992 926.046875 992 L 778 992 Q 768 992 768 982 L 768 962 Q 768 952 778 952 Z"/></g><g transform="translate(-38,-78) scale(1,1)"><path fill="none" stroke="#000000" d="M 778 952 L 926.046875 952 Q 936.046875 952 936.046875 962 L 936.046875 982 Q 936.046875 992 926.046875 992 L 778 992 Q 768 992 768 982 L 768 962 Q 768 952 778 952 Z" stroke-miterlimit="10"/></g><g transform="translate(-38,-78) scale(1,1)"><g><path fill="none" stroke="none"/><text fill="#000000" stroke="none" font-family="Arial" font-size="13px" font-style="normal" font-weight="bold" text-decoration="none" x="774.0234375" y="971.5">识别图片（课本里的插图）</text></g></g><g transform="translate(-38,-78) scale(1,1)"><path fill="none" stroke="#000000" d="M 679 1048 L 712 1048 M 712 1048 A 8 8 0 0 0 720 1040 L 720 984 M 720 984 A 8 8 0 0 1 728 976 L 768 976" stroke-miterlimit="10"/></g><g transform="translate(-38,-78) scale(1,1)"><path fill="none" stroke="#000000" d="M 757.8373251423759 980.209517756016 L 768 976 L 757.8373251423758 971.790482243984" stroke-miterlimit="10"/></g><g transform="translate(-38,-78) scale(1,1)"><path fill="#C0C0C0" stroke="none" d="M 785 1031 L 932 1031 Q 942 1031 942 1041 L 942 1061 Q 942 1071 932 1071 L 785 1071 Q 775 1071 775 1061 L 775 1041 Q 775 1031 785 1031 Z" opacity="0.2"/></g><g transform="translate(-38,-78) scale(1,1)"><path fill="#ffffff" stroke="none" d="M 778 1024 L 925 1024 Q 935 1024 935 1034 L 935 1054 Q 935 1064 925 1064 L 778 1064 Q 768 1064 768 1054 L 768 1034 Q 768 1024 778 1024 Z"/></g><g transform="translate(-38,-78) scale(1,1)"><path fill="none" stroke="#000000" d="M 778 1024 L 925 1024 Q 935 1024 935 1034 L 935 1054 Q 935 1064 925 1064 L 778 1064 Q 768 1064 768 1054 L 768 1034 Q 768 1024 778 1024 Z" stroke-miterlimit="10"/></g><g transform="translate(-38,-78) scale(1,1)"><g><path fill="none" stroke="none"/><text fill="#000000" stroke="none" font-family="Arial" font-size="13px" font-style="normal" font-weight="bold" text-decoration="none" x="816.470458984375" y="1043.5">构建AR场景</text></g></g><g transform="translate(-38,-78) scale(1,1)"><path fill="none" stroke="#000000" d="M 679 1048 L 768 1048" stroke-miterlimit="10"/></g><g transform="translate(-38,-78) scale(1,1)"><path fill="none" stroke="#000000" d="M 757.8373251423759 1052.2095177560159 L 768 1048 L 757.8373251423758 1043.7904822439841" stroke-miterlimit="10"/></g><g transform="translate(-38,-78) scale(1,1)"><path fill="#C0C0C0" stroke="none" d="M 785 1087 L 940 1087 Q 950 1087 950 1097 L 950 1117 Q 950 1127 940 1127 L 785 1127 Q 775 1127 775 1117 L 775 1097 Q 775 1087 785 1087 Z" opacity="0.2"/></g><g transform="translate(-38,-78) scale(1,1)"><path fill="#ffffff" stroke="none" d="M 778 1080 L 933 1080 Q 943 1080 943 1090 L 943 1110 Q 943 1120 933 1120 L 778 1120 Q 768 1120 768 1110 L 768 1090 Q 768 1080 778 1080 Z"/></g><g transform="translate(-38,-78) scale(1,1)"><path fill="none" stroke="#000000" d="M 778 1080 L 933 1080 Q 943 1080 943 1090 L 943 1110 Q 943 1120 933 1120 L 778 1120 Q 768 1120 768 1110 L 768 1090 Q 768 1080 778 1080 Z" stroke-miterlimit="10"/></g><g transform="translate(-38,-78) scale(1,1)"><g><path fill="none" stroke="none"/><text fill="#000000" stroke="none" font-family="Arial" font-size="13px" font-style="normal" font-weight="bold" text-decoration="none" x="790.5" y="1099.5">虚拟电路三维场景表现</text></g></g><g transform="translate(-38,-78) scale(1,1)"><path fill="none" stroke="#000000" d="M 679 1048 L 712 1048 M 712 1048 A 8 8 0 0 1 720 1056 L 720 1096 M 720 1096 A 8 8 0 0 0 728 1104 L 768 1104" stroke-miterlimit="10"/></g><g transform="translate(-38,-78) scale(1,1)"><path fill="none" stroke="#000000" d="M 757.8373251423759 1108.2095177560159 L 768 1104 L 757.8373251423758 1099.7904822439841" stroke-miterlimit="10"/></g><g transform="translate(-38,-78) scale(1,1)"><path fill="#C0C0C0" stroke="none" d="M 465 1255 L 533 1255 Q 543 1255 543 1265 L 543 1285 Q 543 1295 533 1295 L 465 1295 Q 455 1295 455 1285 L 455 1265 Q 455 1255 465 1255 Z" opacity="0.2"/></g><g transform="translate(-38,-78) scale(1,1)"><path fill="#ffffff" stroke="none" d="M 458 1248 L 526 1248 Q 536 1248 536 1258 L 536 1278 Q 536 1288 526 1288 L 458 1288 Q 448 1288 448 1278 L 448 1258 Q 448 1248 458 1248 Z"/></g><g transform="translate(-38,-78) scale(1,1)"><path fill="none" stroke="#000000" d="M 458 1248 L 526 1248 Q 536 1248 536 1258 L 536 1278 Q 536 1288 526 1288 L 458 1288 Q 448 1288 448 1278 L 448 1258 Q 448 1248 458 1248 Z" stroke-miterlimit="10"/></g><g transform="translate(-38,-78) scale(1,1)"><g><path fill="none" stroke="none"/><text fill="#000000" stroke="none" font-family="Arial" font-size="13px" font-style="normal" font-weight="bold" text-decoration="none" x="472.5" y="1267.5">方案二</text></g></g><g transform="translate(-38,-78) scale(1,1)"><path fill="#C0C0C0" stroke="none" d="M 609 863 L 685 863 Q 695 863 695 873 L 695 893 Q 695 903 685 903 L 609 903 Q 599 903 599 893 L 599 873 Q 599 863 609 863 Z" opacity="0.2"/></g><g transform="translate(-38,-78) scale(1,1)"><path fill="#ffffff" stroke="none" d="M 602 856 L 678 856 Q 688 856 688 866 L 688 886 Q 688 896 678 896 L 602 896 Q 592 896 592 886 L 592 866 Q 592 856 602 856 Z"/></g><g transform="translate(-38,-78) scale(1,1)"><path fill="none" stroke="#000000" d="M 602 856 L 678 856 Q 688 856 688 866 L 688 886 Q 688 896 678 896 L 602 896 Q 592 896 592 886 L 592 866 Q 592 856 602 856 Z" stroke-miterlimit="10"/></g><g transform="translate(-38,-78) scale(1,1)"><g><path fill="none" stroke="none"/><text fill="#000000" stroke="none" font-family="Arial" font-size="13px" font-style="normal" font-weight="bold" text-decoration="none" x="614" y="875.5">方案描述</text></g></g><g transform="translate(-38,-78) scale(1,1)"><path fill="none" stroke="#000000" d="M 536 1268 L 552 1268 M 552 1268 A 8 8 0 0 0 560 1260 L 560 888 M 560 888 A 8 8 0 0 1 568 880 L 592 880" stroke-miterlimit="10"/></g><g transform="translate(-38,-78) scale(1,1)"><path fill="none" stroke="#000000" d="M 581.8373251423759 884.209517756016 L 592 880 L 581.8373251423758 875.790482243984" stroke-miterlimit="10"/></g><g transform="translate(-38,-78) scale(1,1)"><path fill="none" stroke="#000000" d="M 536 1268 L 552 1268 M 552 1268 A 8 8 0 0 0 560 1260 L 560 1056 M 560 1056 A 8 8 0 0 1 568 1048 L 584 1048" stroke-miterlimit="10"/></g><g transform="translate(-38,-78) scale(1,1)"><path fill="none" stroke="#000000" d="M 573.8373251423759 1052.2095177560159 L 584 1048 L 573.8373251423758 1043.7904822439841" stroke-miterlimit="10"/></g><g transform="translate(-38,-78) scale(1,1)"><path fill="#ffffff" stroke="none" d="M 712 776 L 1123 776 L 1133 786 L 1133 911 L 712 911 L 712 776"/></g><g transform="translate(-38,-78) scale(1,1)"><path fill="none" stroke="#000000" d="M 712 776 L 1123 776 L 1133 786 L 1133 911 L 712 911 L 712 776 L 712 776" stroke-miterlimit="10"/></g><g transform="translate(-38,-78) scale(1,1)"><path fill="none" stroke="#000000" d="M 1123 776 L 1123 786 L 1133 786 L 1123 776" stroke-miterlimit="10"/></g><g transform="translate(-38,-78) scale(1,1)"><g><path fill="none" stroke="none"/><text fill="#000000" stroke="none" font-family="Arial" font-size="13px" font-style="normal" font-weight="normal" text-decoration="none" x="717" y="794">方案描述：</text></g></g><g transform="translate(-38,-78) scale(1,1)"><g><path fill="none" stroke="none"/><text fill="#000000" stroke="none" font-family="Arial" font-size="13px" font-style="normal" font-weight="normal" text-decoration="none" x="717" y="809">通过应用的图像识别功能，将物理课本上的电路相关的一些图片识别出</text><text fill="#000000" stroke="none" font-family="Arial" font-size="13px" font-style="normal" font-weight="normal" text-decoration="none" x="717" y="822">来，加载预先制作好的与图片对应的电路场景，对电路进行模拟演示，</text><text fill="#000000" stroke="none" font-family="Arial" font-size="13px" font-style="normal" font-weight="normal" text-decoration="none" x="717" y="835">显示电流流向和大小等，可对开关进行互动，可显示灯泡亮度和电动机</text><text fill="#000000" stroke="none" font-family="Arial" font-size="13px" font-style="normal" font-weight="normal" text-decoration="none" x="717" y="848">转速（功率），可对电路中的电学元件进行拖拽摆放，可增加删除或者</text><text fill="#000000" stroke="none" font-family="Arial" font-size="13px" font-style="normal" font-weight="normal" text-decoration="none" x="717" y="861">替换电路元件。可以在电路的任意一条线路上增加任意数量的闭合回路</text><text fill="#000000" stroke="none" font-family="Arial" font-size="13px" font-style="normal" font-weight="normal" text-decoration="none" x="717" y="874">，短路提示等等。</text></g></g><g transform="translate(-38,-78) scale(1,1)"><path fill="#C0C0C0" stroke="none" d="M 601 1615 L 668 1615 Q 678 1615 678 1625 L 678 1645 Q 678 1655 668 1655 L 601 1655 Q 591 1655 591 1645 L 591 1625 Q 591 1615 601 1615 Z" opacity="0.2"/></g><g transform="translate(-38,-78) scale(1,1)"><path fill="#ffffff" stroke="none" d="M 594 1608 L 661 1608 Q 671 1608 671 1618 L 671 1638 Q 671 1648 661 1648 L 594 1648 Q 584 1648 584 1638 L 584 1618 Q 584 1608 594 1608 Z"/></g><g transform="translate(-38,-78) scale(1,1)"><path fill="none" stroke="#000000" d="M 594 1608 L 661 1608 Q 671 1608 671 1618 L 671 1638 Q 671 1648 661 1648 L 594 1648 Q 584 1648 584 1638 L 584 1618 Q 584 1608 594 1608 Z" stroke-miterlimit="10"/></g><g transform="translate(-38,-78) scale(1,1)"><g><path fill="none" stroke="none"/><text fill="#000000" stroke="none" font-family="Arial" font-size="13px" font-style="normal" font-weight="bold" text-decoration="none" x="608" y="1627.5">优缺点</text></g></g><g transform="translate(-38,-78) scale(1,1)"><path fill="none" stroke="#000000" d="M 536 1268 L 552 1268 M 552 1268 A 8 8 0 0 1 560 1276 L 560 1620 M 560 1620 A 8 8 0 0 0 568 1628 L 584 1628" stroke-miterlimit="10"/></g><g transform="translate(-38,-78) scale(1,1)"><path fill="none" stroke="#000000" d="M 573.8373251423759 1632.2095177560159 L 584 1628 L 573.8373251423758 1623.7904822439841" stroke-miterlimit="10"/></g><g transform="translate(-38,-78) scale(1,1)"><path fill="#C0C0C0" stroke="none" d="M 785 1143 L 959.5546875 1143 Q 969.5546875 1143 969.5546875 1153 L 969.5546875 1173 Q 969.5546875 1183 959.5546875 1183 L 785 1183 Q 775 1183 775 1173 L 775 1153 Q 775 1143 785 1143 Z" opacity="0.2"/></g><g transform="translate(-38,-78) scale(1,1)"><path fill="#ffffff" stroke="none" d="M 778 1136 L 952.5546875 1136 Q 962.5546875 1136 962.5546875 1146 L 962.5546875 1166 Q 962.5546875 1176 952.5546875 1176 L 778 1176 Q 768 1176 768 1166 L 768 1146 Q 768 1136 778 1136 Z"/></g><g transform="translate(-38,-78) scale(1,1)"><path fill="none" stroke="#000000" d="M 778 1136 L 952.5546875 1136 Q 962.5546875 1136 962.5546875 1146 L 962.5546875 1166 Q 962.5546875 1176 952.5546875 1176 L 778 1176 Q 768 1176 768 1166 L 768 1146 Q 768 1136 778 1136 Z" stroke-miterlimit="10"/></g><g transform="translate(-38,-78) scale(1,1)"><g><path fill="none" stroke="none"/><text fill="#000000" stroke="none" font-family="Arial" font-size="13px" font-style="normal" font-weight="bold" text-decoration="none" x="774.27734375" y="1155.5">电路模拟演示（电流流向等等）</text></g></g><g transform="translate(-38,-78) scale(1,1)"><path fill="none" stroke="#000000" d="M 679 1048 L 712 1048 M 712 1048 A 8 8 0 0 1 720 1056 L 720 1152 M 720 1152 A 8 8 0 0 0 728 1160 L 768 1160" stroke-miterlimit="10"/></g><g transform="translate(-38,-78) scale(1,1)"><path fill="none" stroke="#000000" d="M 757.8373251423759 1164.2095177560159 L 768 1160 L 757.8373251423758 1155.7904822439841" stroke-miterlimit="10"/></g><g transform="translate(-38,-78) scale(1,1)"><path fill="#C0C0C0" stroke="none" d="M 785 1207 L 956 1207 Q 966 1207 966 1217 L 966 1237 Q 966 1247 956 1247 L 785 1247 Q 775 1247 775 1237 L 775 1217 Q 775 1207 785 1207 Z" opacity="0.2"/></g><g transform="translate(-38,-78) scale(1,1)"><path fill="#e2e2e2" stroke="none" d="M 778 1200 L 949 1200 Q 959 1200 959 1210 L 959 1230 Q 959 1240 949 1240 L 778 1240 Q 768 1240 768 1230 L 768 1210 Q 768 1200 778 1200 Z"/></g><g transform="translate(-38,-78) scale(1,1)"><path fill="none" stroke="#000000" d="M 778 1200 L 949 1200 Q 959 1200 959 1210 L 959 1230 Q 959 1240 949 1240 L 778 1240 Q 768 1240 768 1230 L 768 1210 Q 768 1200 778 1200 Z" stroke-miterlimit="10"/></g><g transform="translate(-38,-78) scale(1,1)"><g><path fill="none" stroke="none"/><text fill="#000000" stroke="none" font-family="Arial" font-size="13px" font-style="normal" font-weight="bold" text-decoration="none" x="779" y="1219.5">电路中的电学元件的增加删除</text></g></g><g transform="translate(-38,-78) scale(1,1)"><path fill="none" stroke="#000000" d="M 679 1048 L 712 1048 M 712 1048 A 8 8 0 0 1 720 1056 L 720 1216 M 720 1216 A 8 8 0 0 0 728 1224 L 768 1224" stroke-miterlimit="10"/></g><g transform="translate(-38,-78) scale(1,1)"><path fill="none" stroke="#000000" d="M 757.8373251423759 1228.2095177560159 L 768 1224 L 757.8373251423758 1219.7904822439841" stroke-miterlimit="10"/></g><g transform="translate(-38,-78) scale(1,1)"><path fill="none" stroke="#000000" d="M 688 866 L 712 866" stroke-miterlimit="10" stroke-dasharray="3"/></g><g transform="translate(-38,-78) scale(1,1)"><path fill="#C0C0C0" stroke="none" d="M 265 1327 L 372 1327 Q 382 1327 382 1337 L 382 1365 Q 382 1375 372 1375 L 265 1375 Q 255 1375 255 1365 L 255 1337 Q 255 1327 265 1327 Z" opacity="0.2"/></g><g transform="translate(-38,-78) scale(1,1)"><path fill="#ffffff" stroke="none" d="M 258 1320 L 365 1320 Q 375 1320 375 1330 L 375 1358 Q 375 1368 365 1368 L 258 1368 Q 248 1368 248 1358 L 248 1330 Q 248 1320 258 1320 Z"/></g><g transform="translate(-38,-78) scale(1,1)"><path fill="none" stroke="#000000" d="M 258 1320 L 365 1320 Q 375 1320 375 1330 L 375 1358 Q 375 1368 365 1368 L 258 1368 Q 248 1368 248 1358 L 248 1330 Q 248 1320 258 1320 Z" stroke-miterlimit="10"/></g><g transform="translate(-38,-78) scale(1,1)"><g><path fill="none" stroke="none"/><text fill="#000000" stroke="none" font-family="Arial" font-size="13px" font-style="normal" font-weight="bold" text-decoration="none" x="285.5" y="1339.5">功能方案</text></g></g><g transform="translate(-38,-78) scale(1,1)"><path fill="none" stroke="#000000" d="M 375 1344 L 408 1344 M 408 1344 A 8 8 0 0 0 416 1336 L 416 1276 M 416 1276 A 8 8 0 0 1 424 1268 L 448 1268" stroke-miterlimit="10"/></g><g transform="translate(-38,-78) scale(1,1)"><path fill="none" stroke="#000000" d="M 437.83732514237585 1272.2095177560159 L 448 1268 L 437.83732514237585 1263.7904822439841" stroke-miterlimit="10"/></g><g transform="translate(-38,-78) scale(1,1)"><path fill="#C0C0C0" stroke="none" d="M 785 1375 L 964 1375 Q 974 1375 974 1385 L 974 1405 Q 974 1415 964 1415 L 785 1415 Q 775 1415 775 1405 L 775 1385 Q 775 1375 785 1375 Z" opacity="0.2"/></g><g transform="translate(-38,-78) scale(1,1)"><path fill="#ffffff" stroke="none" d="M 778 1368 L 957 1368 Q 967 1368 967 1378 L 967 1398 Q 967 1408 957 1408 L 778 1408 Q 768 1408 768 1398 L 768 1378 Q 768 1368 778 1368 Z"/></g><g transform="translate(-38,-78) scale(1,1)"><path fill="none" stroke="#000000" d="M 778 1368 L 957 1368 Q 967 1368 967 1378 L 967 1398 Q 967 1408 957 1408 L 778 1408 Q 768 1408 768 1398 L 768 1378 Q 768 1368 778 1368 Z" stroke-miterlimit="10"/></g><g transform="translate(-38,-78) scale(1,1)"><g><path fill="none" stroke="none"/><text fill="#000000" stroke="none" font-family="Arial" font-size="13px" font-style="normal" font-weight="bold" text-decoration="none" x="841.5" y="1387.5">短路提示</text></g></g><g transform="translate(-38,-78) scale(1,1)"><path fill="#C0C0C0" stroke="none" d="M 785 1431 L 956 1431 Q 966 1431 966 1441 L 966 1461 Q 966 1471 956 1471 L 785 1471 Q 775 1471 775 1461 L 775 1441 Q 775 1431 785 1431 Z" opacity="0.2"/></g><g transform="translate(-38,-78) scale(1,1)"><path fill="#ffffff" stroke="none" d="M 778 1424 L 949 1424 Q 959 1424 959 1434 L 959 1454 Q 959 1464 949 1464 L 778 1464 Q 768 1464 768 1454 L 768 1434 Q 768 1424 778 1424 Z"/></g><g transform="translate(-38,-78) scale(1,1)"><path fill="none" stroke="#000000" d="M 778 1424 L 949 1424 Q 959 1424 959 1434 L 959 1454 Q 959 1464 949 1464 L 778 1464 Q 768 1464 768 1454 L 768 1434 Q 768 1424 778 1424 Z" stroke-miterlimit="10"/></g><g transform="translate(-38,-78) scale(1,1)"><g><path fill="none" stroke="none"/><text fill="#000000" stroke="none" font-family="Arial" font-size="13px" font-style="normal" font-weight="bold" text-decoration="none" x="824.5" y="1443.5">灯泡亮度提示</text></g></g><g transform="translate(-38,-78) scale(1,1)"><path fill="#C0C0C0" stroke="none" d="M 785 1487 L 956 1487 Q 966 1487 966 1497 L 966 1517 Q 966 1527 956 1527 L 785 1527 Q 775 1527 775 1517 L 775 1497 Q 775 1487 785 1487 Z" opacity="0.2"/></g><g transform="translate(-38,-78) scale(1,1)"><path fill="#ffffff" stroke="none" d="M 778 1480 L 949 1480 Q 959 1480 959 1490 L 959 1510 Q 959 1520 949 1520 L 778 1520 Q 768 1520 768 1510 L 768 1490 Q 768 1480 778 1480 Z"/></g><g transform="translate(-38,-78) scale(1,1)"><path fill="none" stroke="#000000" d="M 778 1480 L 949 1480 Q 959 1480 959 1490 L 959 1510 Q 959 1520 949 1520 L 778 1520 Q 768 1520 768 1510 L 768 1490 Q 768 1480 778 1480 Z" stroke-miterlimit="10"/></g><g transform="translate(-38,-78) scale(1,1)"><g><path fill="none" stroke="none"/><text fill="#000000" stroke="none" font-family="Arial" font-size="13px" font-style="normal" font-weight="bold" text-decoration="none" x="837.5" y="1499.5">开关互动</text></g></g><g transform="translate(-38,-78) scale(1,1)"><path fill="#ffffff" stroke="none" d="M 1008 1048 L 1237 1048 L 1247 1058 L 1247 1134 L 1008 1134 L 1008 1048"/></g><g transform="translate(-38,-78) scale(1,1)"><path fill="none" stroke="#000000" d="M 1008 1048 L 1237 1048 L 1247 1058 L 1247 1134 L 1008 1134 L 1008 1048 L 1008 1048" stroke-miterlimit="10"/></g><g transform="translate(-38,-78) scale(1,1)"><path fill="none" stroke="#000000" d="M 1237 1048 L 1237 1058 L 1247 1058 L 1237 1048" stroke-miterlimit="10"/></g><g transform="translate(-38,-78) scale(1,1)"><g><path fill="none" stroke="none"/><text fill="#000000" stroke="none" font-family="Arial" font-size="13px" font-style="normal" font-weight="normal" text-decoration="none" x="1013" y="1066">主要表现的电学元件为：</text></g></g><g transform="translate(-38,-78) scale(1,1)"><g><path fill="none" stroke="none"/><text fill="#000000" stroke="none" font-family="Arial" font-size="13px" font-style="normal" font-weight="normal" text-decoration="none" x="1013" y="1081">电源、灯泡、开关、导线、电阻、电动</text><text fill="#000000" stroke="none" font-family="Arial" font-size="13px" font-style="normal" font-weight="normal" text-decoration="none" x="1013" y="1094">机等等。</text></g></g><g transform="translate(-38,-78) scale(1,1)"><path fill="none" stroke="#000000" d="M 943 1098 L 1008 1098" stroke-miterlimit="10" stroke-dasharray="3"/></g><g transform="translate(-38,-78) scale(1,1)"><path fill="none" stroke="#000000" d="M 679 1052 L 712 1052 M 712 1052 A 8 8 0 0 1 720 1060 L 720 1396 M 720 1396 A 8 8 0 0 0 728 1404 L 768 1404" stroke-miterlimit="10"/></g><g transform="translate(-38,-78) scale(1,1)"><path fill="none" stroke="#000000" d="M 757.8373251423759 1408.2095177560159 L 768 1404 L 757.8373251423758 1399.7904822439841" stroke-miterlimit="10"/></g><g transform="translate(-38,-78) scale(1,1)"><path fill="none" stroke="#000000" d="M 679 1052 L 712 1052 M 712 1052 A 8 8 0 0 1 720 1060 L 720 1452 M 720 1452 A 8 8 0 0 0 728 1460 L 768 1460" stroke-miterlimit="10"/></g><g transform="translate(-38,-78) scale(1,1)"><path fill="none" stroke="#000000" d="M 757.8373251423759 1464.2095177560159 L 768 1460 L 757.8373251423758 1455.7904822439841" stroke-miterlimit="10"/></g><g transform="translate(-38,-78) scale(1,1)"><path fill="none" stroke="#000000" d="M 679 1052 L 712 1052 M 712 1052 A 8 8 0 0 1 720 1060 L 720 1508 M 720 1508 A 8 8 0 0 0 728 1516 L 768 1516" stroke-miterlimit="10"/></g><g transform="translate(-38,-78) scale(1,1)"><path fill="none" stroke="#000000" d="M 757.8373251423759 1520.2095177560159 L 768 1516 L 757.8373251423758 1511.7904822439841" stroke-miterlimit="10"/></g><g transform="translate(-38,-78) scale(1,1)"><path fill="#C0C0C0" stroke="none" d="M 785 1543 L 892 1543 Q 902 1543 902 1553 L 902 1573 Q 902 1583 892 1583 L 785 1583 Q 775 1583 775 1573 L 775 1553 Q 775 1543 785 1543 Z" opacity="0.2"/></g><g transform="translate(-38,-78) scale(1,1)"><path fill="#ffffff" stroke="none" d="M 778 1536 L 885 1536 Q 895 1536 895 1546 L 895 1566 Q 895 1576 885 1576 L 778 1576 Q 768 1576 768 1566 L 768 1546 Q 768 1536 778 1536 Z"/></g><g transform="translate(-38,-78) scale(1,1)"><path fill="none" stroke="#000000" d="M 778 1536 L 885 1536 Q 895 1536 895 1546 L 895 1566 Q 895 1576 885 1576 L 778 1576 Q 768 1576 768 1566 L 768 1546 Q 768 1536 778 1536 Z" stroke-miterlimit="10"/></g><g transform="translate(-38,-78) scale(1,1)"><g><path fill="none" stroke="none"/><text fill="#000000" stroke="none" font-family="Arial" font-size="13px" font-style="normal" font-weight="bold" text-decoration="none" x="812" y="1555.5">。。。</text></g></g><g transform="translate(-38,-78) scale(1,1)"><path fill="none" stroke="#000000" d="M 679 1052 L 712 1052 M 712 1052 A 8 8 0 0 1 720 1060 L 720 1564 M 720 1564 A 8 8 0 0 0 728 1572 L 768 1572" stroke-miterlimit="10"/></g><g transform="translate(-38,-78) scale(1,1)"><path fill="none" stroke="#000000" d="M 757.8373251423759 1576.2095177560159 L 768 1572 L 757.8373251423758 1567.7904822439841" stroke-miterlimit="10"/></g><g transform="translate(-38,-78) scale(1,1)"><path fill="#C0C0C0" stroke="none" d="M 785 1271 L 948 1271 Q 958 1271 958 1281 L 958 1301 Q 958 1311 948 1311 L 785 1311 Q 775 1311 775 1301 L 775 1281 Q 775 1271 785 1271 Z" opacity="0.2"/></g><g transform="translate(-38,-78) scale(1,1)"><path fill="#e2e2e2" stroke="none" d="M 778 1264 L 941 1264 Q 951 1264 951 1274 L 951 1294 Q 951 1304 941 1304 L 778 1304 Q 768 1304 768 1294 L 768 1274 Q 768 1264 778 1264 Z"/></g><g transform="translate(-38,-78) scale(1,1)"><path fill="none" stroke="#000000" d="M 778 1264 L 941 1264 Q 951 1264 951 1274 L 951 1294 Q 951 1304 941 1304 L 778 1304 Q 768 1304 768 1294 L 768 1274 Q 768 1264 778 1264 Z" stroke-miterlimit="10"/></g><g transform="translate(-38,-78) scale(1,1)"><g><path fill="none" stroke="none"/><text fill="#000000" stroke="none" font-family="Arial" font-size="13px" font-style="normal" font-weight="bold" text-decoration="none" x="801" y="1283.5">电学元件的拖拽功能</text></g></g><g transform="translate(-38,-78) scale(1,1)"><path fill="none" stroke="#000000" d="M 679 1048 L 712 1048 M 712 1048 A 8 8 0 0 1 720 1056 L 720 1280 M 720 1280 A 8 8 0 0 0 728 1288 L 768 1288" stroke-miterlimit="10"/></g><g transform="translate(-38,-78) scale(1,1)"><path fill="none" stroke="#000000" d="M 757.8373251423759 1292.2095177560159 L 768 1288 L 757.8373251423758 1283.7904822439841" stroke-miterlimit="10"/></g><g transform="translate(-38,-78) scale(1,1)"><path fill="#C0C0C0" stroke="none" d="M 785 1327 L 932 1327 Q 942 1327 942 1337 L 942 1357 Q 942 1367 932 1367 L 785 1367 Q 775 1367 775 1357 L 775 1337 Q 775 1327 785 1327 Z" opacity="0.2"/></g><g transform="translate(-38,-78) scale(1,1)"><path fill="#e2e2e2" stroke="none" d="M 778 1320 L 925 1320 Q 935 1320 935 1330 L 935 1350 Q 935 1360 925 1360 L 778 1360 Q 768 1360 768 1350 L 768 1330 Q 768 1320 778 1320 Z"/></g><g transform="translate(-38,-78) scale(1,1)"><path fill="none" stroke="#000000" d="M 778 1320 L 925 1320 Q 935 1320 935 1330 L 935 1350 Q 935 1360 925 1360 L 778 1360 Q 768 1360 768 1350 L 768 1330 Q 768 1320 778 1320 Z" stroke-miterlimit="10"/></g><g transform="translate(-38,-78) scale(1,1)"><g><path fill="none" stroke="none"/><text fill="#000000" stroke="none" font-family="Arial" font-size="13px" font-style="normal" font-weight="bold" text-decoration="none" x="812.5" y="1339.5">增加闭合回路</text></g></g><g transform="translate(-38,-78) scale(1,1)"><path fill="none" stroke="#000000" d="M 679 1048 L 712 1048 M 712 1048 A 8 8 0 0 1 720 1056 L 720 1328 M 720 1328 A 8 8 0 0 0 728 1336 L 768 1336" stroke-miterlimit="10"/></g><g transform="translate(-38,-78) scale(1,1)"><path fill="none" stroke="#000000" d="M 757.8373251423759 1340.2095177560159 L 768 1336 L 757.8373251423758 1331.7904822439841" stroke-miterlimit="10"/></g><g transform="translate(-38,-78) scale(1,1)"><path fill="#ffffff" stroke="none" d="M 744 1600 L 1110.22998046875 1600 L 1120.22998046875 1610 L 1120.22998046875 1711 L 744 1711 L 744 1600"/></g><g transform="translate(-38,-78) scale(1,1)"><path fill="none" stroke="#000000" d="M 744 1600 L 1110.22998046875 1600 L 1120.22998046875 1610 L 1120.22998046875 1711 L 744 1711 L 744 1600 L 744 1600" stroke-miterlimit="10"/></g><g transform="translate(-38,-78) scale(1,1)"><path fill="none" stroke="#000000" d="M 1110.22998046875 1600 L 1110.22998046875 1610 L 1120.22998046875 1610 L 1110.22998046875 1600" stroke-miterlimit="10"/></g><g transform="translate(-38,-78) scale(1,1)"><g><path fill="none" stroke="none"/><text fill="#000000" stroke="none" font-family="Arial" font-size="13px" font-style="normal" font-weight="normal" text-decoration="none" x="749" y="1618">优点：</text></g></g><g transform="translate(-38,-78) scale(1,1)"><g><path fill="none" stroke="none"/><text fill="#000000" stroke="none" font-family="Arial" font-size="13px" font-style="normal" font-weight="normal" text-decoration="none" x="749" y="1633">  1，功能较为丰富；</text></g></g><g transform="translate(-38,-78) scale(1,1)"><g><path fill="none" stroke="none"/><text fill="#000000" stroke="none" font-family="Arial" font-size="13px" font-style="normal" font-weight="normal" text-decoration="none" x="749" y="1648">  2，电路构建不会出错，能构建初中物理里的串联和并联电路；</text></g></g><g transform="translate(-38,-78) scale(1,1)"><g><path fill="none" stroke="none"/><text fill="#000000" stroke="none" font-family="Arial" font-size="13px" font-style="normal" font-weight="normal" text-decoration="none" x="749" y="1663">缺点：</text></g></g><g transform="translate(-38,-78) scale(1,1)"><g><path fill="none" stroke="none"/><text fill="#000000" stroke="none" font-family="Arial" font-size="13px" font-style="normal" font-weight="normal" text-decoration="none" x="749" y="1678">  1，操作比较繁琐；</text></g></g><g transform="translate(-38,-78) scale(1,1)"><g><path fill="none" stroke="none"/><text fill="#000000" stroke="none" font-family="Arial" font-size="13px" font-style="normal" font-weight="normal" text-decoration="none" x="749" y="1693">  2，容易遇到不可控的bug；</text></g></g><g transform="translate(-38,-78) scale(1,1)"><path fill="none" stroke="#000000" d="M 671 1639 L 744 1639" stroke-miterlimit="10" stroke-dasharray="3"/></g><g transform="translate(-38,-78) scale(1,1)"><path fill="#C0C0C0" stroke="none" d="M 457 1863 L 517 1863 Q 527 1863 527 1873 L 527 1893 Q 527 1903 517 1903 L 457 1903 Q 447 1903 447 1893 L 447 1873 Q 447 1863 457 1863 Z" opacity="0.2"/></g><g transform="translate(-38,-78) scale(1,1)"><path fill="#ffffff" stroke="none" d="M 450 1856 L 510 1856 Q 520 1856 520 1866 L 520 1886 Q 520 1896 510 1896 L 450 1896 Q 440 1896 440 1886 L 440 1866 Q 440 1856 450 1856 Z"/></g><g transform="translate(-38,-78) scale(1,1)"><path fill="none" stroke="#000000" d="M 450 1856 L 510 1856 Q 520 1856 520 1866 L 520 1886 Q 520 1896 510 1896 L 450 1896 Q 440 1896 440 1886 L 440 1866 Q 440 1856 450 1856 Z" stroke-miterlimit="10"/></g><g transform="translate(-38,-78) scale(1,1)"><g><path fill="none" stroke="none"/><text fill="#000000" stroke="none" font-family="Arial" font-size="13px" font-style="normal" font-weight="bold" text-decoration="none" x="460.5" y="1875.5">方案三</text></g></g><g transform="translate(-38,-78) scale(1,1)"><path fill="none" stroke="#000000" d="M 375 1344 L 408 1344 M 408 1344 A 8 8 0 0 1 416 1352 L 416 1864 M 416 1864 A 8 8 0 0 0 424 1872 L 440 1872" stroke-miterlimit="10"/></g><g transform="translate(-38,-78) scale(1,1)"><path fill="none" stroke="#000000" d="M 429.83732514237585 1876.2095177560159 L 440 1872 L 429.83732514237585 1867.7904822439841" stroke-miterlimit="10"/></g><g transform="translate(-38,-78) scale(1,1)"><path fill="#C0C0C0" stroke="none" d="M 617 1807 L 668 1807 Q 678 1807 678 1817 L 678 1837 Q 678 1847 668 1847 L 617 1847 Q 607 1847 607 1837 L 607 1817 Q 607 1807 617 1807 Z" opacity="0.2"/></g><g transform="translate(-38,-78) scale(1,1)"><path fill="#ffffff" stroke="none" d="M 610 1800 L 661 1800 Q 671 1800 671 1810 L 671 1830 Q 671 1840 661 1840 L 610 1840 Q 600 1840 600 1830 L 600 1810 Q 600 1800 610 1800 Z"/></g><g transform="translate(-38,-78) scale(1,1)"><path fill="none" stroke="#000000" d="M 610 1800 L 661 1800 Q 671 1800 671 1810 L 671 1830 Q 671 1840 661 1840 L 610 1840 Q 600 1840 600 1830 L 600 1810 Q 600 1800 610 1800 Z" stroke-miterlimit="10"/></g><g transform="translate(-38,-78) scale(1,1)"><g><path fill="none" stroke="none"/><text fill="#000000" stroke="none" font-family="Arial" font-size="13px" font-style="normal" font-weight="bold" text-decoration="none" x="609.5" y="1819.5">方案描述</text></g></g><g transform="translate(-38,-78) scale(1,1)"><path fill="#C0C0C0" stroke="none" d="M 617 1871 L 698.77734375 1871 Q 708.77734375 1871 708.77734375 1881 L 708.77734375 1901 Q 708.77734375 1911 698.77734375 1911 L 617 1911 Q 607 1911 607 1901 L 607 1881 Q 607 1871 617 1871 Z" opacity="0.2"/></g><g transform="translate(-38,-78) scale(1,1)"><path fill="#ffffff" stroke="none" d="M 610 1864 L 691.77734375 1864 Q 701.77734375 1864 701.77734375 1874 L 701.77734375 1894 Q 701.77734375 1904 691.77734375 1904 L 610 1904 Q 600 1904 600 1894 L 600 1874 Q 600 1864 610 1864 Z"/></g><g transform="translate(-38,-78) scale(1,1)"><path fill="none" stroke="#000000" d="M 610 1864 L 691.77734375 1864 Q 701.77734375 1864 701.77734375 1874 L 701.77734375 1894 Q 701.77734375 1904 691.77734375 1904 L 610 1904 Q 600 1904 600 1894 L 600 1874 Q 600 1864 610 1864 Z" stroke-miterlimit="10"/></g><g transform="translate(-38,-78) scale(1,1)"><g><path fill="none" stroke="none"/><text fill="#000000" stroke="none" font-family="Arial" font-size="13px" font-style="normal" font-weight="bold" text-decoration="none" x="605.388671875" y="1883.5">基本功能（略）</text></g></g><g transform="translate(-38,-78) scale(1,1)"><path fill="#C0C0C0" stroke="none" d="M 625 1975 L 684 1975 Q 694 1975 694 1985 L 694 2005 Q 694 2015 684 2015 L 625 2015 Q 615 2015 615 2005 L 615 1985 Q 615 1975 625 1975 Z" opacity="0.2"/></g><g transform="translate(-38,-78) scale(1,1)"><path fill="#ffffff" stroke="none" d="M 618 1968 L 677 1968 Q 687 1968 687 1978 L 687 1998 Q 687 2008 677 2008 L 618 2008 Q 608 2008 608 1998 L 608 1978 Q 608 1968 618 1968 Z"/></g><g transform="translate(-38,-78) scale(1,1)"><path fill="none" stroke="#000000" d="M 618 1968 L 677 1968 Q 687 1968 687 1978 L 687 1998 Q 687 2008 677 2008 L 618 2008 Q 608 2008 608 1998 L 608 1978 Q 608 1968 618 1968 Z" stroke-miterlimit="10"/></g><g transform="translate(-38,-78) scale(1,1)"><g><path fill="none" stroke="none"/><text fill="#000000" stroke="none" font-family="Arial" font-size="13px" font-style="normal" font-weight="bold" text-decoration="none" x="628" y="1987.5">优缺点</text></g></g><g transform="translate(-38,-78) scale(1,1)"><path fill="none" stroke="#000000" d="M 520 1872 L 560 1872 M 560 1872 A 8 8 0 0 0 568 1864 L 568 1832 M 568 1832 A 8 8 0 0 1 576 1824 L 600 1824" stroke-miterlimit="10"/></g><g transform="translate(-38,-78) scale(1,1)"><path fill="none" stroke="#000000" d="M 589.8373251423759 1828.2095177560159 L 600 1824 L 589.8373251423758 1819.7904822439841" stroke-miterlimit="10"/></g><g transform="translate(-38,-78) scale(1,1)"><path fill="none" stroke="#000000" d="M 520 1880 L 600 1880" stroke-miterlimit="10"/></g><g transform="translate(-38,-78) scale(1,1)"><path fill="none" stroke="#000000" d="M 589.8373251423759 1884.2095177560159 L 600 1880 L 589.8373251423758 1875.7904822439841" stroke-miterlimit="10"/></g><g transform="translate(-38,-78) scale(1,1)"><path fill="none" stroke="#000000" d="M 520 1888 L 560 1888 M 560 1888 A 8 8 0 0 1 568 1896 L 568 1984 M 568 1984 A 8 8 0 0 0 576 1992 L 608 1992" stroke-miterlimit="10"/></g><g transform="translate(-38,-78) scale(1,1)"><path fill="none" stroke="#000000" d="M 597.8373251423759 1996.2095177560159 L 608 1992 L 597.8373251423758 1987.7904822439841" stroke-miterlimit="10"/></g><g transform="translate(-38,-78) scale(1,1)"><path fill="#ffffff" stroke="none" d="M 736 1808 L 1043 1808 L 1053 1818 L 1053 1844 L 736 1844 L 736 1808"/></g><g transform="translate(-38,-78) scale(1,1)"><path fill="none" stroke="#000000" d="M 736 1808 L 1043 1808 L 1053 1818 L 1053 1844 L 736 1844 L 736 1808 L 736 1808" stroke-miterlimit="10"/></g><g transform="translate(-38,-78) scale(1,1)"><path fill="none" stroke="#000000" d="M 1043 1808 L 1043 1818 L 1053 1818 L 1043 1808" stroke-miterlimit="10"/></g><g transform="translate(-38,-78) scale(1,1)"><g><path fill="none" stroke="none"/><text fill="#000000" stroke="none" font-family="Arial" font-size="13px" font-style="normal" font-weight="normal" text-decoration="none" x="741" y="1826">在方案一的基础上移除操作较为繁琐的拖拽和增加，</text><text fill="#000000" stroke="none" font-family="Arial" font-size="13px" font-style="normal" font-weight="normal" text-decoration="none" x="741" y="1839">移除电学元件功能（方案二中灰色功能）</text></g></g><g transform="translate(-38,-78) scale(1,1)"><path fill="none" stroke="#000000" d="M 671 1821 L 736 1821" stroke-miterlimit="10" stroke-dasharray="3"/></g><g transform="translate(-38,-78) scale(1,1)"><path fill="#ffffff" stroke="none" d="M 736 1968 L 1102.22998046875 1968 L 1112.22998046875 1978 L 1112.22998046875 2036 L 736 2036 L 736 1968"/></g><g transform="translate(-38,-78) scale(1,1)"><path fill="none" stroke="#000000" d="M 736 1968 L 1102.22998046875 1968 L 1112.22998046875 1978 L 1112.22998046875 2036 L 736 2036 L 736 1968 L 736 1968" stroke-miterlimit="10"/></g><g transform="translate(-38,-78) scale(1,1)"><path fill="none" stroke="#000000" d="M 1102.22998046875 1968 L 1102.22998046875 1978 L 1112.22998046875 1978 L 1102.22998046875 1968" stroke-miterlimit="10"/></g><g transform="translate(-38,-78) scale(1,1)"><g><path fill="none" stroke="none"/><text fill="#000000" stroke="none" font-family="Arial" font-size="13px" font-style="normal" font-weight="normal" text-decoration="none" x="741" y="1986">优点：</text></g></g><g transform="translate(-38,-78) scale(1,1)"><g><path fill="none" stroke="none"/><text fill="#000000" stroke="none" font-family="Arial" font-size="13px" font-style="normal" font-weight="normal" text-decoration="none" x="741" y="2001">  1，操作比较简单；</text></g></g><g transform="translate(-38,-78) scale(1,1)"><g><path fill="none" stroke="none"/><text fill="#000000" stroke="none" font-family="Arial" font-size="13px" font-style="normal" font-weight="normal" text-decoration="none" x="741" y="2016">缺点：</text></g></g><g transform="translate(-38,-78) scale(1,1)"><g><path fill="none" stroke="none"/><text fill="#000000" stroke="none" font-family="Arial" font-size="13px" font-style="normal" font-weight="normal" text-decoration="none" x="741" y="2031">  1，功能较为单一；</text></g></g><g transform="translate(-38,-78) scale(1,1)"><path fill="none" stroke="#000000" d="M 687 1992 L 736 1992" stroke-miterlimit="10" stroke-dasharray="3"/></g><g transform="translate(-38,-78) scale(1,1)"><path fill="#C0C0C0" stroke="none" d="M 305 2175 L 389 2175 Q 399 2175 399 2185 L 399 2205 Q 399 2215 389 2215 L 305 2215 Q 295 2215 295 2205 L 295 2185 Q 295 2175 305 2175 Z" opacity="0.2"/></g><g transform="translate(-38,-78) scale(1,1)"><path fill="#ffffff" stroke="none" d="M 298 2168 L 382 2168 Q 392 2168 392 2178 L 392 2198 Q 392 2208 382 2208 L 298 2208 Q 288 2208 288 2198 L 288 2178 Q 288 2168 298 2168 Z"/></g><g transform="translate(-38,-78) scale(1,1)"><path fill="none" stroke="#000000" d="M 298 2168 L 382 2168 Q 392 2168 392 2178 L 392 2198 Q 392 2208 382 2208 L 298 2208 Q 288 2208 288 2198 L 288 2178 Q 288 2168 298 2168 Z" stroke-miterlimit="10"/></g><g transform="translate(-38,-78) scale(1,1)"><g><path fill="none" stroke="none"/><text fill="#000000" stroke="none" font-family="Arial" font-size="13px" font-style="normal" font-weight="bold" text-decoration="none" x="314" y="2187.5">主要技术</text></g></g><g transform="translate(-38,-78) scale(1,1)"><path fill="#C0C0C0" stroke="none" d="M 505 2175 L 604 2175 Q 614 2175 614 2185 L 614 2205 Q 614 2215 604 2215 L 505 2215 Q 495 2215 495 2205 L 495 2185 Q 495 2175 505 2175 Z" opacity="0.2"/></g><g transform="translate(-38,-78) scale(1,1)"><path fill="#ffffff" stroke="none" d="M 498 2168 L 597 2168 Q 607 2168 607 2178 L 607 2198 Q 607 2208 597 2208 L 498 2208 Q 488 2208 488 2198 L 488 2178 Q 488 2168 498 2168 Z"/></g><g transform="translate(-38,-78) scale(1,1)"><path fill="none" stroke="#000000" d="M 498 2168 L 597 2168 Q 607 2168 607 2178 L 607 2198 Q 607 2208 597 2208 L 498 2208 Q 488 2208 488 2198 L 488 2178 Q 488 2168 498 2168 Z" stroke-miterlimit="10"/></g><g transform="translate(-38,-78) scale(1,1)"><g><path fill="none" stroke="none"/><text fill="#000000" stroke="none" font-family="Arial" font-size="13px" font-style="normal" font-weight="bold" text-decoration="none" x="521.5" y="2187.5">图形渲染</text></g></g><g transform="translate(-38,-78) scale(1,1)"><path fill="#C0C0C0" stroke="none" d="M 497 2103 L 596 2103 Q 606 2103 606 2113 L 606 2133 Q 606 2143 596 2143 L 497 2143 Q 487 2143 487 2133 L 487 2113 Q 487 2103 497 2103 Z" opacity="0.2"/></g><g transform="translate(-38,-78) scale(1,1)"><path fill="#ffffff" stroke="none" d="M 490 2096 L 589 2096 Q 599 2096 599 2106 L 599 2126 Q 599 2136 589 2136 L 490 2136 Q 480 2136 480 2126 L 480 2106 Q 480 2096 490 2096 Z"/></g><g transform="translate(-38,-78) scale(1,1)"><path fill="none" stroke="#000000" d="M 490 2096 L 589 2096 Q 599 2096 599 2106 L 599 2126 Q 599 2136 589 2136 L 490 2136 Q 480 2136 480 2126 L 480 2106 Q 480 2096 490 2096 Z" stroke-miterlimit="10"/></g><g transform="translate(-38,-78) scale(1,1)"><g><path fill="none" stroke="none"/><text fill="#000000" stroke="none" font-family="Arial" font-size="13px" font-style="normal" font-weight="bold" text-decoration="none" x="526.5" y="2115.5">建模</text></g></g><g transform="translate(-38,-78) scale(1,1)"><path fill="#C0C0C0" stroke="none" d="M 505 2239 L 597 2239 Q 607 2239 607 2249 L 607 2269 Q 607 2279 597 2279 L 505 2279 Q 495 2279 495 2269 L 495 2249 Q 495 2239 505 2239 Z" opacity="0.2"/></g><g transform="translate(-38,-78) scale(1,1)"><path fill="#ffffff" stroke="none" d="M 498 2232 L 590 2232 Q 600 2232 600 2242 L 600 2262 Q 600 2272 590 2272 L 498 2272 Q 488 2272 488 2262 L 488 2242 Q 488 2232 498 2232 Z"/></g><g transform="translate(-38,-78) scale(1,1)"><path fill="none" stroke="#000000" d="M 498 2232 L 590 2232 Q 600 2232 600 2242 L 600 2262 Q 600 2272 590 2272 L 498 2272 Q 488 2272 488 2262 L 488 2242 Q 488 2232 498 2232 Z" stroke-miterlimit="10"/></g><g transform="translate(-38,-78) scale(1,1)"><g><path fill="none" stroke="none"/><text fill="#000000" stroke="none" font-family="Arial" font-size="13px" font-style="normal" font-weight="bold" text-decoration="none" x="518" y="2251.5">图像识别</text></g></g><g transform="translate(-38,-78) scale(1,1)"><path fill="#C0C0C0" stroke="none" d="M 505 2295 L 588 2295 Q 598 2295 598 2305 L 598 2325 Q 598 2335 588 2335 L 505 2335 Q 495 2335 495 2325 L 495 2305 Q 495 2295 505 2295 Z" opacity="0.2"/></g><g transform="translate(-38,-78) scale(1,1)"><path fill="#ffffff" stroke="none" d="M 498 2288 L 581 2288 Q 591 2288 591 2298 L 591 2318 Q 591 2328 581 2328 L 498 2328 Q 488 2328 488 2318 L 488 2298 Q 488 2288 498 2288 Z"/></g><g transform="translate(-38,-78) scale(1,1)"><path fill="none" stroke="#000000" d="M 498 2288 L 581 2288 Q 591 2288 591 2298 L 591 2318 Q 591 2328 581 2328 L 498 2328 Q 488 2328 488 2318 L 488 2298 Q 488 2288 498 2288 Z" stroke-miterlimit="10"/></g><g transform="translate(-38,-78) scale(1,1)"><g><path fill="none" stroke="none"/><text fill="#000000" stroke="none" font-family="Arial" font-size="13px" font-style="normal" font-weight="bold" text-decoration="none" x="513.5" y="2307.5">编程语言</text></g></g><g transform="translate(-38,-78) scale(1,1)"><path fill="#C0C0C0" stroke="none" d="M 713 2095 L 888.97021484375 2095 Q 898.97021484375 2095 898.97021484375 2105 L 898.97021484375 2125 Q 898.97021484375 2135 888.97021484375 2135 L 713 2135 Q 703 2135 703 2125 L 703 2105 Q 703 2095 713 2095 Z" opacity="0.2"/></g><g transform="translate(-38,-78) scale(1,1)"><path fill="#ffffff" stroke="none" d="M 706 2088 L 881.97021484375 2088 Q 891.97021484375 2088 891.97021484375 2098 L 891.97021484375 2118 Q 891.97021484375 2128 881.97021484375 2128 L 706 2128 Q 696 2128 696 2118 L 696 2098 Q 696 2088 706 2088 Z"/></g><g transform="translate(-38,-78) scale(1,1)"><path fill="none" stroke="#000000" d="M 706 2088 L 881.97021484375 2088 Q 891.97021484375 2088 891.97021484375 2098 L 891.97021484375 2118 Q 891.97021484375 2128 881.97021484375 2128 L 706 2128 Q 696 2128 696 2118 L 696 2098 Q 696 2088 706 2088 Z" stroke-miterlimit="10"/></g><g transform="translate(-38,-78) scale(1,1)"><g><path fill="none" stroke="none"/><text fill="#000000" stroke="none" font-family="Arial" font-size="13px" font-style="normal" font-weight="bold" text-decoration="none" x="703.3310546875" y="2107.5">3dsMax、maya等三维建模软件</text></g></g><g transform="translate(-38,-78) scale(1,1)"><path fill="#C0C0C0" stroke="none" d="M 721 2175 L 900 2175 Q 910 2175 910 2185 L 910 2205 Q 910 2215 900 2215 L 721 2215 Q 711 2215 711 2205 L 711 2185 Q 711 2175 721 2175 Z" opacity="0.2"/></g><g transform="translate(-38,-78) scale(1,1)"><path fill="#ffffff" stroke="none" d="M 714 2168 L 893 2168 Q 903 2168 903 2178 L 903 2198 Q 903 2208 893 2208 L 714 2208 Q 704 2208 704 2198 L 704 2178 Q 704 2168 714 2168 Z"/></g><g transform="translate(-38,-78) scale(1,1)"><path fill="none" stroke="#000000" d="M 714 2168 L 893 2168 Q 903 2168 903 2178 L 903 2198 Q 903 2208 893 2208 L 714 2208 Q 704 2208 704 2198 L 704 2178 Q 704 2168 714 2168 Z" stroke-miterlimit="10"/></g><g transform="translate(-38,-78) scale(1,1)"><g><path fill="none" stroke="none"/><text fill="#000000" stroke="none" font-family="Arial" font-size="13px" font-style="normal" font-weight="bold" text-decoration="none" x="738.46826171875" y="2187.5">unity5.x版本，openGL</text></g></g><g transform="translate(-38,-78) scale(1,1)"><path fill="#C0C0C0" stroke="none" d="M 721 2247 L 884 2247 Q 894 2247 894 2257 L 894 2277 Q 894 2287 884 2287 L 721 2287 Q 711 2287 711 2277 L 711 2257 Q 711 2247 721 2247 Z" opacity="0.2"/></g><g transform="translate(-38,-78) scale(1,1)"><path fill="#ffffff" stroke="none" d="M 714 2240 L 877 2240 Q 887 2240 887 2250 L 887 2270 Q 887 2280 877 2280 L 714 2280 Q 704 2280 704 2270 L 704 2250 Q 704 2240 714 2240 Z"/></g><g transform="translate(-38,-78) scale(1,1)"><path fill="none" stroke="#000000" d="M 714 2240 L 877 2240 Q 887 2240 887 2250 L 887 2270 Q 887 2280 877 2280 L 714 2280 Q 704 2280 704 2270 L 704 2250 Q 704 2240 714 2240 Z" stroke-miterlimit="10"/></g><g transform="translate(-38,-78) scale(1,1)"><g><path fill="none" stroke="none"/><text fill="#000000" stroke="none" font-family="Arial" font-size="13px" font-style="normal" font-weight="bold" text-decoration="none" x="723.615966796875" y="2259.5">高通ARSDK或者openCV</text></g></g><g transform="translate(-38,-78) scale(1,1)"><path fill="#C0C0C0" stroke="none" d="M 729 2311 L 860 2311 Q 870 2311 870 2321 L 870 2341 Q 870 2351 860 2351 L 729 2351 Q 719 2351 719 2341 L 719 2321 Q 719 2311 729 2311 Z" opacity="0.2"/></g><g transform="translate(-38,-78) scale(1,1)"><path fill="#ffffff" stroke="none" d="M 722 2304 L 853 2304 Q 863 2304 863 2314 L 863 2334 Q 863 2344 853 2344 L 722 2344 Q 712 2344 712 2334 L 712 2314 Q 712 2304 722 2304 Z"/></g><g transform="translate(-38,-78) scale(1,1)"><path fill="none" stroke="#000000" d="M 722 2304 L 853 2304 Q 863 2304 863 2314 L 863 2334 Q 863 2344 853 2344 L 722 2344 Q 712 2344 712 2334 L 712 2314 Q 712 2304 722 2304 Z" stroke-miterlimit="10"/></g><g transform="translate(-38,-78) scale(1,1)"><g><path fill="none" stroke="none"/><text fill="#000000" stroke="none" font-family="Arial" font-size="13px" font-style="normal" font-weight="bold" text-decoration="none" x="764.740478515625" y="2323.5">C sharp</text></g></g><g transform="translate(-38,-78) scale(1,1)"><path fill="none" stroke="#000000" d="M 591 2319 L 712 2319" stroke-miterlimit="10"/></g><g transform="translate(-38,-78) scale(1,1)"><path fill="none" stroke="#000000" d="M 701.8373251423759 2323.209517756016 L 712 2319 L 701.8373251423758 2314.790482243984" stroke-miterlimit="10"/></g><g transform="translate(-38,-78) scale(1,1)"><path fill="none" stroke="#000000" d="M 600 2257 L 704 2257" stroke-miterlimit="10"/></g><g transform="translate(-38,-78) scale(1,1)"><path fill="none" stroke="#000000" d="M 693.8373251423759 2261.209517756016 L 704 2257 L 693.8373251423758 2252.790482243984" stroke-miterlimit="10"/></g><g transform="translate(-38,-78) scale(1,1)"><path fill="none" stroke="#000000" d="M 607 2188 L 704 2188" stroke-miterlimit="10"/></g><g transform="translate(-38,-78) scale(1,1)"><path fill="none" stroke="#000000" d="M 693.8373251423759 2192.209517756016 L 704 2188 L 693.8373251423758 2183.790482243984" stroke-miterlimit="10"/></g><g transform="translate(-38,-78) scale(1,1)"><path fill="none" stroke="#000000" d="M 599 2114 L 696 2114" stroke-miterlimit="10"/></g><g transform="translate(-38,-78) scale(1,1)"><path fill="none" stroke="#000000" d="M 685.8373251423759 2118.209517756016 L 696 2114 L 685.8373251423758 2109.790482243984" stroke-miterlimit="10"/></g><g transform="translate(-38,-78) scale(1,1)"><path fill="none" stroke="#000000" d="M 392 2192 L 440 2192 M 440 2192 A 8 8 0 0 0 448 2184 L 448 2128 M 448 2128 A 8 8 0 0 1 456 2120 L 480 2120" stroke-miterlimit="10"/></g><g transform="translate(-38,-78) scale(1,1)"><path fill="none" stroke="#000000" d="M 469.83732514237585 2124.209517756016 L 480 2120 L 469.83732514237585 2115.790482243984" stroke-miterlimit="10"/></g><g transform="translate(-38,-78) scale(1,1)"><path fill="none" stroke="#000000" d="M 392 2192 L 488 2192" stroke-miterlimit="10"/></g><g transform="translate(-38,-78) scale(1,1)"><path fill="none" stroke="#000000" d="M 477.83732514237585 2196.209517756016 L 488 2192 L 477.83732514237585 2187.790482243984" stroke-miterlimit="10"/></g><g transform="translate(-38,-78) scale(1,1)"><path fill="none" stroke="#000000" d="M 392 2192 L 440 2192 M 440 2192 A 8 8 0 0 1 448 2200 L 448 2240 M 448 2240 A 8 8 0 0 0 456 2248 L 488 2248" stroke-miterlimit="10"/></g><g transform="translate(-38,-78) scale(1,1)"><path fill="none" stroke="#000000" d="M 477.83732514237585 2252.209517756016 L 488 2248 L 477.83732514237585 2243.790482243984" stroke-miterlimit="10"/></g><g transform="translate(-38,-78) scale(1,1)"><path fill="none" stroke="#000000" d="M 392 2192 L 440 2192 M 440 2192 A 8 8 0 0 1 448 2200 L 448 2280 M 448 2280 A 8 8 0 0 0 456 2288 L 488 2288" stroke-miterlimit="10"/></g><g transform="translate(-38,-78) scale(1,1)"><path fill="none" stroke="#000000" d="M 477.83732514237585 2292.209517756016 L 488 2288 L 477.83732514237585 2283.790482243984" stroke-miterlimit="10"/></g><g transform="translate(-38,-78) scale(1,1)"><path fill="#C0C0C0" stroke="none" d="M 513 2367 L 580 2367 Q 590 2367 590 2377 L 590 2397 Q 590 2407 580 2407 L 513 2407 Q 503 2407 503 2397 L 503 2377 Q 503 2367 513 2367 Z" opacity="0.2"/></g><g transform="translate(-38,-78) scale(1,1)"><path fill="#ffffff" stroke="none" d="M 506 2360 L 573 2360 Q 583 2360 583 2370 L 583 2390 Q 583 2400 573 2400 L 506 2400 Q 496 2400 496 2390 L 496 2370 Q 496 2360 506 2360 Z"/></g><g transform="translate(-38,-78) scale(1,1)"><path fill="none" stroke="#000000" d="M 506 2360 L 573 2360 Q 583 2360 583 2370 L 583 2390 Q 583 2400 573 2400 L 506 2400 Q 496 2400 496 2390 L 496 2370 Q 496 2360 506 2360 Z" stroke-miterlimit="10"/></g><g transform="translate(-38,-78) scale(1,1)"><g><path fill="none" stroke="none"/><text fill="#000000" stroke="none" font-family="Arial" font-size="13px" font-style="normal" font-weight="bold" text-decoration="none" x="507" y="2379.5">UI设计制作</text></g></g><g transform="translate(-38,-78) scale(1,1)"><path fill="#C0C0C0" stroke="none" d="M 729 2375 L 852 2375 Q 862 2375 862 2385 L 862 2405 Q 862 2415 852 2415 L 729 2415 Q 719 2415 719 2405 L 719 2385 Q 719 2375 729 2375 Z" opacity="0.2"/></g><g transform="translate(-38,-78) scale(1,1)"><path fill="#ffffff" stroke="none" d="M 722 2368 L 845 2368 Q 855 2368 855 2378 L 855 2398 Q 855 2408 845 2408 L 722 2408 Q 712 2408 712 2398 L 712 2378 Q 712 2368 722 2368 Z"/></g><g transform="translate(-38,-78) scale(1,1)"><path fill="none" stroke="#000000" d="M 722 2368 L 845 2368 Q 855 2368 855 2378 L 855 2398 Q 855 2408 845 2408 L 722 2408 Q 712 2408 712 2398 L 712 2378 Q 712 2368 722 2368 Z" stroke-miterlimit="10"/></g><g transform="translate(-38,-78) scale(1,1)"><g><path fill="none" stroke="none"/><text fill="#000000" stroke="none" font-family="Arial" font-size="13px" font-style="normal" font-weight="bold" text-decoration="none" x="755.687744140625" y="2387.5">PS、AI等</text></g></g><g transform="translate(-38,-78) scale(1,1)"><path fill="none" stroke="#000000" d="M 392 2192 L 440 2192 M 440 2192 A 8 8 0 0 1 448 2200 L 448 2368 M 448 2368 A 8 8 0 0 0 456 2376 L 496 2376" stroke-miterlimit="10"/></g><g transform="translate(-38,-78) scale(1,1)"><path fill="none" stroke="#000000" d="M 485.83732514237585 2380.209517756016 L 496 2376 L 485.83732514237585 2371.790482243984" stroke-miterlimit="10"/></g><g transform="translate(-38,-78) scale(1,1)"><path fill="none" stroke="#000000" d="M 583 2386 L 712 2386" stroke-miterlimit="10"/></g><g transform="translate(-38,-78) scale(1,1)"><path fill="none" stroke="#000000" d="M 701.8373251423759 2390.209517756016 L 712 2386 L 701.8373251423758 2381.790482243984" stroke-miterlimit="10"/></g><g transform="translate(-38,-78) scale(1,1)"><path fill="#C0C0C0" stroke="none" d="M 513 2431 L 588 2431 Q 598 2431 598 2441 L 598 2461 Q 598 2471 588 2471 L 513 2471 Q 503 2471 503 2461 L 503 2441 Q 503 2431 513 2431 Z" opacity="0.2"/></g><g transform="translate(-38,-78) scale(1,1)"><path fill="#ffffff" stroke="none" d="M 506 2424 L 581 2424 Q 591 2424 591 2434 L 591 2454 Q 591 2464 581 2464 L 506 2464 Q 496 2464 496 2454 L 496 2434 Q 496 2424 506 2424 Z"/></g><g transform="translate(-38,-78) scale(1,1)"><path fill="none" stroke="#000000" d="M 506 2424 L 581 2424 Q 591 2424 591 2434 L 591 2454 Q 591 2464 581 2464 L 506 2464 Q 496 2464 496 2454 L 496 2434 Q 496 2424 506 2424 Z" stroke-miterlimit="10"/></g><g transform="translate(-38,-78) scale(1,1)"><g><path fill="none" stroke="none"/><text fill="#000000" stroke="none" font-family="Arial" font-size="13px" font-style="normal" font-weight="bold" text-decoration="none" x="517.5" y="2443.5">贴图制作</text></g></g><g transform="translate(-38,-78) scale(1,1)"><path fill="none" stroke="#000000" d="M 392 2192 L 440 2192 M 440 2192 A 8 8 0 0 1 448 2200 L 448 2432 M 448 2432 A 8 8 0 0 0 456 2440 L 496 2440" stroke-miterlimit="10"/></g><g transform="translate(-38,-78) scale(1,1)"><path fill="none" stroke="#000000" d="M 485.83732514237585 2444.209517756016 L 496 2440 L 485.83732514237585 2435.790482243984" stroke-miterlimit="10"/></g><g transform="translate(-38,-78) scale(1,1)"><path fill="#C0C0C0" stroke="none" d="M 729 2431 L 852 2431 Q 862 2431 862 2441 L 862 2461 Q 862 2471 852 2471 L 729 2471 Q 719 2471 719 2461 L 719 2441 Q 719 2431 729 2431 Z" opacity="0.2"/></g><g transform="translate(-38,-78) scale(1,1)"><path fill="#ffffff" stroke="none" d="M 722 2424 L 845 2424 Q 855 2424 855 2434 L 855 2454 Q 855 2464 845 2464 L 722 2464 Q 712 2464 712 2454 L 712 2434 Q 712 2424 722 2424 Z"/></g><g transform="translate(-38,-78) scale(1,1)"><path fill="none" stroke="#000000" d="M 722 2424 L 845 2424 Q 855 2424 855 2434 L 855 2454 Q 855 2464 845 2464 L 722 2464 Q 712 2464 712 2454 L 712 2434 Q 712 2424 722 2424 Z" stroke-miterlimit="10"/></g><g transform="translate(-38,-78) scale(1,1)"><g><path fill="none" stroke="none"/><text fill="#000000" stroke="none" font-family="Arial" font-size="13px" font-style="normal" font-weight="bold" text-decoration="none" x="737.984130859375" y="2443.5">PS、PixPlant等</text></g></g><g transform="translate(-38,-78) scale(1,1)"><path fill="none" stroke="#000000" d="M 591 2450 L 712 2450" stroke-miterlimit="10"/></g><g transform="translate(-38,-78) scale(1,1)"><path fill="none" stroke="#000000" d="M 701.8373251423759 2454.209517756016 L 712 2450 L 701.8373251423758 2445.790482243984" stroke-miterlimit="10"/></g><g transform="translate(-38,-78) scale(1,1)"><path fill="#C0C0C0" stroke="none" d="M 65 2063 L 205.23046875 2063 Q 215.23046875 2063 215.23046875 2073 L 215.23046875 2100 Q 215.23046875 2110 205.23046875 2110 L 65 2110 Q 55 2110 55 2100 L 55 2073 Q 55 2063 65 2063 Z" opacity="0.2"/></g><g transform="translate(-38,-78) scale(1,1)"><path fill="#ffffff" stroke="none" d="M 58 2056 L 198.23046875 2056 Q 208.23046875 2056 208.23046875 2066 L 208.23046875 2093 Q 208.23046875 2103 198.23046875 2103 L 58 2103 Q 48 2103 48 2093 L 48 2066 Q 48 2056 58 2056 Z"/></g><g transform="translate(-38,-78) scale(1,1)"><path fill="none" stroke="#000000" d="M 58 2056 L 198.23046875 2056 Q 208.23046875 2056 208.23046875 2066 L 208.23046875 2093 Q 208.23046875 2103 198.23046875 2103 L 58 2103 Q 48 2103 48 2093 L 48 2066 Q 48 2056 58 2056 Z" stroke-miterlimit="10"/></g><g transform="translate(-38,-78) scale(1,1)"><g><path fill="none" stroke="none"/><text fill="#000000" stroke="none" font-family="Arial" font-size="20px" font-style="normal" font-weight="bold" text-decoration="none" x="54.2236328125" y="2082.5">AR初中物理电路</text></g></g><g transform="translate(-38,-78) scale(1,1)"><path fill="none" stroke="#000000" d="M 208 2072 L 232 2072 M 232 2072 A 8 8 0 0 0 240 2064 L 240 1352 M 240 1352 A 8 8 0 0 1 248 1344 L 248 1344" stroke-miterlimit="10"/></g><g transform="translate(-38,-78) scale(1,1)"><path fill="none" stroke="#000000" d="M 237.83732514237585 1348.2095177560159 L 248 1344 L 237.83732514237585 1339.7904822439841" stroke-miterlimit="10"/></g><g transform="translate(-38,-78) scale(1,1)"><path fill="none" stroke="#000000" d="M 208 2072 L 232 2072 M 232 2072 A 8 8 0 0 1 240 2080 L 240 2180 M 240 2180 A 8 8 0 0 0 248 2188 L 288 2188" stroke-miterlimit="10"/></g><g transform="translate(-38,-78) scale(1,1)"><path fill="none" stroke="#000000" d="M 277.83732514237585 2192.209517756016 L 288 2188 L 277.83732514237585 2183.790482243984" stroke-miterlimit="10"/></g><g transform="translate(-38,-78) scale(1,1)"><path fill="#C0C0C0" stroke="none" d="M 457 463 L 524 463 Q 534 463 534 473 L 534 493 Q 534 503 524 503 L 457 503 Q 447 503 447 493 L 447 473 Q 447 463 457 463 Z" opacity="0.2"/></g><g transform="translate(-38,-78) scale(1,1)"><path fill="#ffffff" stroke="none" d="M 450 456 L 517 456 Q 527 456 527 466 L 527 486 Q 527 496 517 496 L 450 496 Q 440 496 440 486 L 440 466 Q 440 456 450 456 Z"/></g><g transform="translate(-38,-78) scale(1,1)"><path fill="none" stroke="#000000" d="M 450 456 L 517 456 Q 527 456 527 466 L 527 486 Q 527 496 517 496 L 450 496 Q 440 496 440 486 L 440 466 Q 440 456 450 456 Z" stroke-miterlimit="10"/></g><g transform="translate(-38,-78) scale(1,1)"><g><path fill="none" stroke="none"/><text fill="#000000" stroke="none" font-family="Arial" font-size="13px" font-style="normal" font-weight="bold" text-decoration="none" x="464" y="475.5">方案一</text></g></g><g transform="translate(-38,-78) scale(1,1)"><path fill="none" stroke="#000000" d="M 375 1344 L 408 1344 M 408 1344 A 8 8 0 0 0 416 1336 L 416 492 M 416 492 A 8 8 0 0 1 424 484 L 440 484" stroke-miterlimit="10"/></g><g transform="translate(-38,-78) scale(1,1)"><path fill="none" stroke="#000000" d="M 429.83732514237585 488.209517756016 L 440 484 L 429.83732514237585 479.790482243984" stroke-miterlimit="10"/></g><g transform="translate(-38,-78) scale(1,1)"><path fill="#C0C0C0" stroke="none" d="M 601 151 L 669 151 Q 679 151 679 161 L 679 181 Q 679 191 669 191 L 601 191 Q 591 191 591 181 L 591 161 Q 591 151 601 151 Z" opacity="0.2"/></g><g transform="translate(-38,-78) scale(1,1)"><path fill="#ffffff" stroke="none" d="M 594 144 L 662 144 Q 672 144 672 154 L 672 174 Q 672 184 662 184 L 594 184 Q 584 184 584 174 L 584 154 Q 584 144 594 144 Z"/></g><g transform="translate(-38,-78) scale(1,1)"><path fill="none" stroke="#000000" d="M 594 144 L 662 144 Q 672 144 672 154 L 672 174 Q 672 184 662 184 L 594 184 Q 584 184 584 174 L 584 154 Q 584 144 594 144 Z" stroke-miterlimit="10"/></g><g transform="translate(-38,-78) scale(1,1)"><g><path fill="none" stroke="none"/><text fill="#000000" stroke="none" font-family="Arial" font-size="13px" font-style="normal" font-weight="bold" text-decoration="none" x="602" y="163.5">方案描述</text></g></g><g transform="translate(-38,-78) scale(1,1)"><path fill="#C0C0C0" stroke="none" d="M 601 527 L 669 527 Q 679 527 679 537 L 679 557 Q 679 567 669 567 L 601 567 Q 591 567 591 557 L 591 537 Q 591 527 601 527 Z" opacity="0.2"/></g><g transform="translate(-38,-78) scale(1,1)"><path fill="#ffffff" stroke="none" d="M 594 520 L 662 520 Q 672 520 672 530 L 672 550 Q 672 560 662 560 L 594 560 Q 584 560 584 550 L 584 530 Q 584 520 594 520 Z"/></g><g transform="translate(-38,-78) scale(1,1)"><path fill="none" stroke="#000000" d="M 594 520 L 662 520 Q 672 520 672 530 L 672 550 Q 672 560 662 560 L 594 560 Q 584 560 584 550 L 584 530 Q 584 520 594 520 Z" stroke-miterlimit="10"/></g><g transform="translate(-38,-78) scale(1,1)"><g><path fill="none" stroke="none"/><text fill="#000000" stroke="none" font-family="Arial" font-size="13px" font-style="normal" font-weight="bold" text-decoration="none" x="602" y="539.5">基本功能</text></g></g><g transform="translate(-38,-78) scale(1,1)"><path fill="none" stroke="#000000" d="M 527 476 L 552 476 M 552 476 A 8 8 0 0 0 560 468 L 560 172 M 560 172 A 8 8 0 0 1 568 164 L 584 164" stroke-miterlimit="10"/></g><g transform="translate(-38,-78) scale(1,1)"><path fill="none" stroke="#000000" d="M 573.8373251423759 168.209517756016 L 584 164 L 573.8373251423758 159.790482243984" stroke-miterlimit="10"/></g><g transform="translate(-38,-78) scale(1,1)"><path fill="none" stroke="#000000" d="M 527 480 L 544 480 M 544 480 A 8 8 0 0 1 552 488 L 552 532 M 552 532 A 8 8 0 0 0 560 540 L 584 540" stroke-miterlimit="10"/></g><g transform="translate(-38,-78) scale(1,1)"><path fill="none" stroke="#000000" d="M 573.8373251423759 544.209517756016 L 584 540 L 573.8373251423758 535.790482243984" stroke-miterlimit="10"/></g><g transform="translate(-38,-78) scale(1,1)"><path fill="#ffffff" stroke="none" d="M 712 128 L 1149 128 L 1159 138 L 1159 247 L 712 247 L 712 128"/></g><g transform="translate(-38,-78) scale(1,1)"><path fill="none" stroke="#000000" d="M 712 128 L 1149 128 L 1159 138 L 1159 247 L 712 247 L 712 128 L 712 128" stroke-miterlimit="10"/></g><g transform="translate(-38,-78) scale(1,1)"><path fill="none" stroke="#000000" d="M 1149 128 L 1149 138 L 1159 138 L 1149 128" stroke-miterlimit="10"/></g><g transform="translate(-38,-78) scale(1,1)"><g><path fill="none" stroke="none"/><text fill="#000000" stroke="none" font-family="Arial" font-size="13px" font-style="normal" font-weight="normal" text-decoration="none" x="717" y="146">方案描述：</text></g></g><g transform="translate(-38,-78) scale(1,1)"><g><path fill="none" stroke="none"/><text fill="#000000" stroke="none" font-family="Arial" font-size="13px" font-style="normal" font-weight="normal" text-decoration="none" x="717" y="161">通过应用的图像识别功能，将物理课本上的电路相关的一些图片识别出</text><text fill="#000000" stroke="none" font-family="Arial" font-size="13px" font-style="normal" font-weight="normal" text-decoration="none" x="717" y="174">来，用户通过点击UI上的相应的电学元件图标（如开关，灯泡等），可</text><text fill="#000000" stroke="none" font-family="Arial" font-size="13px" font-style="normal" font-weight="normal" text-decoration="none" x="717" y="187">以将元件添加到AR场景中，这时候用户 可以对这些虚拟电学元件进行</text><text fill="#000000" stroke="none" font-family="Arial" font-size="13px" font-style="normal" font-weight="normal" text-decoration="none" x="717" y="200">拖拽，拖拽到制定的位置，则说明电路摆放完成。，对电路进行模拟演示，</text><text fill="#000000" stroke="none" font-family="Arial" font-size="13px" font-style="normal" font-weight="normal" text-decoration="none" x="717" y="213">显示电流流向和大小等，可对开关进行互动，可显示灯泡亮度和电动机</text><text fill="#000000" stroke="none" font-family="Arial" font-size="13px" font-style="normal" font-weight="normal" text-decoration="none" x="717" y="226">转速（功率），</text></g></g><g transform="translate(-38,-78) scale(1,1)"><path fill="none" stroke="#000000" d="M 672 160 L 712 160" stroke-miterlimit="10" stroke-dasharray="3"/></g><g transform="translate(-38,-78) scale(1,1)"><path fill="#C0C0C0" stroke="none" d="M 753 335 L 901.046875 335 Q 911.046875 335 911.046875 345 L 911.046875 365 Q 911.046875 375 901.046875 375 L 753 375 Q 743 375 743 365 L 743 345 Q 743 335 753 335 Z" opacity="0.2"/></g><g transform="translate(-38,-78) scale(1,1)"><path fill="#ffffff" stroke="none" d="M 746 328 L 894.046875 328 Q 904.046875 328 904.046875 338 L 904.046875 358 Q 904.046875 368 894.046875 368 L 746 368 Q 736 368 736 358 L 736 338 Q 736 328 746 328 Z"/></g><g transform="translate(-38,-78) scale(1,1)"><path fill="none" stroke="#000000" d="M 746 328 L 894.046875 328 Q 904.046875 328 904.046875 338 L 904.046875 358 Q 904.046875 368 894.046875 368 L 746 368 Q 736 368 736 358 L 736 338 Q 736 328 746 328 Z" stroke-miterlimit="10"/></g><g transform="translate(-38,-78) scale(1,1)"><g><path fill="none" stroke="none"/><text fill="#000000" stroke="none" font-family="Arial" font-size="13px" font-style="normal" font-weight="bold" text-decoration="none" x="742.0234375" y="347.5">识别图片（课本里的插图）</text></g></g><g transform="translate(-38,-78) scale(1,1)"><path fill="#C0C0C0" stroke="none" d="M 785 399 L 876 399 Q 886 399 886 409 L 886 429 Q 886 439 876 439 L 785 439 Q 775 439 775 429 L 775 409 Q 775 399 785 399 Z" opacity="0.2"/></g><g transform="translate(-38,-78) scale(1,1)"><path fill="#ffffff" stroke="none" d="M 778 392 L 869 392 Q 879 392 879 402 L 879 422 Q 879 432 869 432 L 778 432 Q 768 432 768 422 L 768 402 Q 768 392 778 392 Z"/></g><g transform="translate(-38,-78) scale(1,1)"><path fill="none" stroke="#000000" d="M 778 392 L 869 392 Q 879 392 879 402 L 879 422 Q 879 432 869 432 L 778 432 Q 768 432 768 422 L 768 402 Q 768 392 778 392 Z" stroke-miterlimit="10"/></g><g transform="translate(-38,-78) scale(1,1)"><g><path fill="none" stroke="none"/><text fill="#000000" stroke="none" font-family="Arial" font-size="13px" font-style="normal" font-weight="bold" text-decoration="none" x="788.470458984375" y="411.5">构建AR场景</text></g></g><g transform="translate(-38,-78) scale(1,1)"><path fill="#C0C0C0" stroke="none" d="M 777 455 L 898.5390625 455 Q 908.5390625 455 908.5390625 465 L 908.5390625 492 Q 908.5390625 502 898.5390625 502 L 777 502 Q 767 502 767 492 L 767 465 Q 767 455 777 455 Z" opacity="0.2"/></g><g transform="translate(-38,-78) scale(1,1)"><path fill="#ffffff" stroke="none" d="M 770 448 L 891.5390625 448 Q 901.5390625 448 901.5390625 458 L 901.5390625 485 Q 901.5390625 495 891.5390625 495 L 770 495 Q 760 495 760 485 L 760 458 Q 760 448 770 448 Z"/></g><g transform="translate(-38,-78) scale(1,1)"><path fill="none" stroke="#000000" d="M 770 448 L 891.5390625 448 Q 901.5390625 448 901.5390625 458 L 901.5390625 485 Q 901.5390625 495 891.5390625 495 L 770 495 Q 760 495 760 485 L 760 458 Q 760 448 770 448 Z" stroke-miterlimit="10"/></g><g transform="translate(-38,-78) scale(1,1)"><g><path fill="none" stroke="none"/><text fill="#000000" stroke="none" font-family="Arial" font-size="13px" font-style="normal" font-weight="bold" text-decoration="none" x="765.76953125" y="467.5">虚拟电路三维场景表现</text></g></g><g transform="translate(-38,-78) scale(1,1)"><path fill="#C0C0C0" stroke="none" d="M 785 527 L 959.5546875 527 Q 969.5546875 527 969.5546875 537 L 969.5546875 557 Q 969.5546875 567 959.5546875 567 L 785 567 Q 775 567 775 557 L 775 537 Q 775 527 785 527 Z" opacity="0.2"/></g><g transform="translate(-38,-78) scale(1,1)"><path fill="#ffffff" stroke="none" d="M 778 520 L 952.5546875 520 Q 962.5546875 520 962.5546875 530 L 962.5546875 550 Q 962.5546875 560 952.5546875 560 L 778 560 Q 768 560 768 550 L 768 530 Q 768 520 778 520 Z"/></g><g transform="translate(-38,-78) scale(1,1)"><path fill="none" stroke="#000000" d="M 778 520 L 952.5546875 520 Q 962.5546875 520 962.5546875 530 L 962.5546875 550 Q 962.5546875 560 952.5546875 560 L 778 560 Q 768 560 768 550 L 768 530 Q 768 520 778 520 Z" stroke-miterlimit="10"/></g><g transform="translate(-38,-78) scale(1,1)"><g><path fill="none" stroke="none"/><text fill="#000000" stroke="none" font-family="Arial" font-size="13px" font-style="normal" font-weight="bold" text-decoration="none" x="774.27734375" y="539.5">电路模拟演示（电流流向等等）</text></g></g><g transform="translate(-38,-78) scale(1,1)"><path fill="#C0C0C0" stroke="none" d="M 785 591 L 853.5234375 591 Q 863.5234375 591 863.5234375 601 L 863.5234375 621 Q 863.5234375 631 853.5234375 631 L 785 631 Q 775 631 775 621 L 775 601 Q 775 591 785 591 Z" opacity="0.2"/></g><g transform="translate(-38,-78) scale(1,1)"><path fill="#ffffff" stroke="none" d="M 778 584 L 846.5234375 584 Q 856.5234375 584 856.5234375 594 L 856.5234375 614 Q 856.5234375 624 846.5234375 624 L 778 624 Q 768 624 768 614 L 768 594 Q 768 584 778 584 Z"/></g><g transform="translate(-38,-78) scale(1,1)"><path fill="none" stroke="#000000" d="M 778 584 L 846.5234375 584 Q 856.5234375 584 856.5234375 594 L 856.5234375 614 Q 856.5234375 624 846.5234375 624 L 778 624 Q 768 624 768 614 L 768 594 Q 768 584 778 584 Z" stroke-miterlimit="10"/></g><g transform="translate(-38,-78) scale(1,1)"><g><path fill="none" stroke="none"/><text fill="#000000" stroke="none" font-family="Arial" font-size="13px" font-style="normal" font-weight="bold" text-decoration="none" x="773.26171875" y="603.5">灯泡亮度提示</text></g></g><g transform="translate(-38,-78) scale(1,1)"><path fill="#C0C0C0" stroke="none" d="M 793 639 L 844 639 Q 854 639 854 649 L 854 669 Q 854 679 844 679 L 793 679 Q 783 679 783 669 L 783 649 Q 783 639 793 639 Z" opacity="0.2"/></g><g transform="translate(-38,-78) scale(1,1)"><path fill="#ffffff" stroke="none" d="M 786 632 L 837 632 Q 847 632 847 642 L 847 662 Q 847 672 837 672 L 786 672 Q 776 672 776 662 L 776 642 Q 776 632 786 632 Z"/></g><g transform="translate(-38,-78) scale(1,1)"><path fill="none" stroke="#000000" d="M 786 632 L 837 632 Q 847 632 847 642 L 847 662 Q 847 672 837 672 L 786 672 Q 776 672 776 662 L 776 642 Q 776 632 786 632 Z" stroke-miterlimit="10"/></g><g transform="translate(-38,-78) scale(1,1)"><g><path fill="none" stroke="none"/><text fill="#000000" stroke="none" font-family="Arial" font-size="13px" font-style="normal" font-weight="bold" text-decoration="none" x="785.5" y="651.5">开关互动</text></g></g><g transform="translate(-38,-78) scale(1,1)"><path fill="#C0C0C0" stroke="none" d="M 777 695 L 884 695 Q 894 695 894 705 L 894 725 Q 894 735 884 735 L 777 735 Q 767 735 767 725 L 767 705 Q 767 695 777 695 Z" opacity="0.2"/></g><g transform="translate(-38,-78) scale(1,1)"><path fill="#ffffff" stroke="none" d="M 770 688 L 877 688 Q 887 688 887 698 L 887 718 Q 887 728 877 728 L 770 728 Q 760 728 760 718 L 760 698 Q 760 688 770 688 Z"/></g><g transform="translate(-38,-78) scale(1,1)"><path fill="none" stroke="#000000" d="M 770 688 L 877 688 Q 887 688 887 698 L 887 718 Q 887 728 877 728 L 770 728 Q 760 728 760 718 L 760 698 Q 760 688 770 688 Z" stroke-miterlimit="10"/></g><g transform="translate(-38,-78) scale(1,1)"><g><path fill="none" stroke="none"/><text fill="#000000" stroke="none" font-family="Arial" font-size="13px" font-style="normal" font-weight="bold" text-decoration="none" x="818.082275390625" y="707.5">...</text></g></g><g transform="translate(-38,-78) scale(1,1)"><path fill="none" stroke="#000000" d="M 672 540 L 688 540 M 688 540 A 8 8 0 0 0 696 532 L 696 360 M 696 360 A 8 8 0 0 1 704 352 L 736 352" stroke-miterlimit="10"/></g><g transform="translate(-38,-78) scale(1,1)"><path fill="none" stroke="#000000" d="M 725.8373251423759 356.209517756016 L 736 352 L 725.8373251423758 347.790482243984" stroke-miterlimit="10"/></g><g transform="translate(-38,-78) scale(1,1)"><path fill="none" stroke="#000000" d="M 672 540 L 688 540 M 688 540 A 8 8 0 0 0 696 532 L 696 424 M 696 424 A 8 8 0 0 1 704 416 L 768 416" stroke-miterlimit="10"/></g><g transform="translate(-38,-78) scale(1,1)"><path fill="none" stroke="#000000" d="M 757.8373251423759 420.209517756016 L 768 416 L 757.8373251423758 411.790482243984" stroke-miterlimit="10"/></g><g transform="translate(-38,-78) scale(1,1)"><path fill="none" stroke="#000000" d="M 672 540 L 688 540 M 688 540 A 8 8 0 0 0 696 532 L 696 503 M 696 503 A 8 8 0 0 1 704 495 L 760 495" stroke-miterlimit="10"/></g><g transform="translate(-38,-78) scale(1,1)"><path fill="none" stroke="#000000" d="M 749.8373251423759 499.209517756016 L 760 495 L 749.8373251423758 490.790482243984" stroke-miterlimit="10"/></g><g transform="translate(-38,-78) scale(1,1)"><path fill="none" stroke="#000000" d="M 672 540 L 688 540 M 688 540 A 8 8 0 0 1 696 548 L 696 536 M 696 536 A 8 8 0 0 0 704 544 L 768 544" stroke-miterlimit="10"/></g><g transform="translate(-38,-78) scale(1,1)"><path fill="none" stroke="#000000" d="M 757.8373251423759 548.209517756016 L 768 544 L 757.8373251423758 539.790482243984" stroke-miterlimit="10"/></g><g transform="translate(-38,-78) scale(1,1)"><path fill="none" stroke="#000000" d="M 672 536 L 688 536 M 688 536 A 8 8 0 0 1 696 544 L 696 592 M 696 592 A 8 8 0 0 0 704 600 L 768 600" stroke-miterlimit="10"/></g><g transform="translate(-38,-78) scale(1,1)"><path fill="none" stroke="#000000" d="M 757.8373251423759 604.209517756016 L 768 600 L 757.8373251423758 595.790482243984" stroke-miterlimit="10"/></g><g transform="translate(-38,-78) scale(1,1)"><path fill="none" stroke="#000000" d="M 672 544 L 688 544 M 688 544 A 8 8 0 0 1 696 552 L 696 640 M 696 640 A 8 8 0 0 0 704 648 L 776 648" stroke-miterlimit="10"/></g><g transform="translate(-38,-78) scale(1,1)"><path fill="none" stroke="#000000" d="M 765.8373251423759 652.209517756016 L 776 648 L 765.8373251423758 643.790482243984" stroke-miterlimit="10"/></g><g transform="translate(-38,-78) scale(1,1)"><path fill="none" stroke="#000000" d="M 672 544 L 688 544 M 688 544 A 8 8 0 0 1 696 552 L 696 704 M 696 704 A 8 8 0 0 0 704 712 L 760 712" stroke-miterlimit="10"/></g><g transform="translate(-38,-78) scale(1,1)"><path fill="none" stroke="#000000" d="M 749.8373251423759 716.209517756016 L 760 712 L 749.8373251423758 707.790482243984" stroke-miterlimit="10"/></g><g transform="translate(-38,-78) scale(1,1)"><path fill="#ffffff" stroke="none" d="M 104 88 L 452 88 L 462 98 L 462 111 L 104 111 L 104 88"/></g><g transform="translate(-38,-78) scale(1,1)"><path fill="none" stroke="#000000" d="M 104 88 L 452 88 L 462 98 L 462 111 L 104 111 L 104 88 L 104 88" stroke-miterlimit="10"/></g><g transform="translate(-38,-78) scale(1,1)"><path fill="none" stroke="#000000" d="M 452 88 L 452 98 L 462 98 L 452 88" stroke-miterlimit="10"/></g><g transform="translate(-38,-78) scale(1,1)"><g><path fill="none" stroke="none"/><text fill="#000000" stroke="none" font-family="Arial" font-size="13px" font-style="normal" font-weight="normal" text-decoration="none" x="109" y="106">功能和技术方案.</text></g></g></g></svg>