<svg version="1.1" xmlns="http://www.w3.org/2000/svg" xmlns:xlink="http://www.w3.org/1999/xlink" width="892.22998046875" height="1685"><defs/><g><g transform="translate(-14,-6) scale(1,1)"><path fill="#C0C0C0" stroke="none" d="M 263 88.5 C 263 83.2532944 267.2532944 79 272.5 79 C 277.7467056 79 282 83.2532944 282 88.5 C 282 93.7467056 277.7467056 98 272.5 98 C 267.2532944 98 263 93.7467056 263 88.5 Z" opacity="0.2"/></g><g transform="translate(-14,-6) scale(1,1)"><path fill="#000000" stroke="none" d="M 256 81.5 C 256 76.2532944 260.2532944 72 265.5 72 C 270.7467056 72 275 76.2532944 275 81.5 C 275 86.7467056 270.7467056 91 265.5 91 C 260.2532944 91 256 86.7467056 256 81.5 Z"/></g><g transform="translate(-14,-6) scale(1,1)"><path fill="#C0C0C0" stroke="none" d="M 233 135 L 316 135 Q 326 135 326 145 L 326 165 Q 326 175 316 175 L 233 175 Q 223 175 223 165 L 223 145 Q 223 135 233 135 Z" opacity="0.2"/></g><g transform="translate(-14,-6) scale(1,1)"><path fill="#ffffff" stroke="none" d="M 226 128 L 309 128 Q 319 128 319 138 L 319 158 Q 319 168 309 168 L 226 168 Q 216 168 216 158 L 216 138 Q 216 128 226 128 Z"/></g><g transform="translate(-14,-6) scale(1,1)"><path fill="none" stroke="#000000" d="M 226 128 L 309 128 Q 319 128 319 138 L 319 158 Q 319 168 309 168 L 226 168 Q 216 168 216 158 L 216 138 Q 216 128 226 128 Z" stroke-miterlimit="10"/></g><g transform="translate(-14,-6) scale(1,1)"><g><path fill="none" stroke="none"/><text fill="#000000" stroke="none" font-family="Arial" font-size="13px" font-style="normal" font-weight="bold" text-decoration="none" x="241.5" y="147.5">启动界面</text></g></g><g transform="translate(-14,-6) scale(1,1)"><path fill="#C0C0C0" stroke="none" d="M 233 207 L 316 207 Q 326 207 326 217 L 326 237 Q 326 247 316 247 L 233 247 Q 223 247 223 237 L 223 217 Q 223 207 233 207 Z" opacity="0.2"/></g><g transform="translate(-14,-6) scale(1,1)"><path fill="#ffffff" stroke="none" d="M 226 200 L 309 200 Q 319 200 319 210 L 319 230 Q 319 240 309 240 L 226 240 Q 216 240 216 230 L 216 210 Q 216 200 226 200 Z"/></g><g transform="translate(-14,-6) scale(1,1)"><path fill="none" stroke="#000000" d="M 226 200 L 309 200 Q 319 200 319 210 L 319 230 Q 319 240 309 240 L 226 240 Q 216 240 216 230 L 216 210 Q 216 200 226 200 Z" stroke-miterlimit="10"/></g><g transform="translate(-14,-6) scale(1,1)"><g><path fill="none" stroke="none"/><text fill="#000000" stroke="none" font-family="Arial" font-size="13px" font-style="normal" font-weight="bold" text-decoration="none" x="241.5" y="219.5">主页界面</text></g></g><g transform="translate(-14,-6) scale(1,1)"><path fill="#C0C0C0" stroke="none" d="M 217 295 L 324 295 Q 334 295 334 305 L 334 332 Q 334 342 324 342 L 217 342 Q 207 342 207 332 L 207 305 Q 207 295 217 295 Z" opacity="0.2"/></g><g transform="translate(-14,-6) scale(1,1)"><path fill="#ffffff" stroke="none" d="M 210 288 L 317 288 Q 327 288 327 298 L 327 325 Q 327 335 317 335 L 210 335 Q 200 335 200 325 L 200 298 Q 200 288 210 288 Z"/></g><g transform="translate(-14,-6) scale(1,1)"><path fill="none" stroke="#000000" d="M 210 288 L 317 288 Q 327 288 327 298 L 327 325 Q 327 335 317 335 L 210 335 Q 200 335 200 325 L 200 298 Q 200 288 210 288 Z" stroke-miterlimit="10"/></g><g transform="translate(-14,-6) scale(1,1)"><g><path fill="none" stroke="none"/><text fill="#000000" stroke="none" font-family="Arial" font-size="13px" font-style="normal" font-weight="bold" text-decoration="none" x="244" y="307.5">主界面</text></g></g><g transform="translate(-14,-6) scale(1,1)"><path fill="#ffffff" stroke="none" d="M 344 184 L 586 184 L 596 194 L 596 239 L 344 239 L 344 184"/></g><g transform="translate(-14,-6) scale(1,1)"><path fill="none" stroke="#000000" d="M 344 184 L 586 184 L 596 194 L 596 239 L 344 239 L 344 184 L 344 184" stroke-miterlimit="10"/></g><g transform="translate(-14,-6) scale(1,1)"><path fill="none" stroke="#000000" d="M 586 184 L 586 194 L 596 194 L 586 184" stroke-miterlimit="10"/></g><g transform="translate(-14,-6) scale(1,1)"><g><path fill="none" stroke="none"/><text fill="#000000" stroke="none" font-family="Arial" font-size="13px" font-style="normal" font-weight="normal" text-decoration="none" x="349" y="202">含有一个标题，一张图片或者一个动画效 </text></g></g><g transform="translate(-14,-6) scale(1,1)"><g><path fill="none" stroke="none"/><text fill="#000000" stroke="none" font-family="Arial" font-size="13px" font-style="normal" font-weight="normal" text-decoration="none" x="349" y="217">果，图像内容与软件内容相关，一个启动 </text></g></g><g transform="translate(-14,-6) scale(1,1)"><g><path fill="none" stroke="none"/><text fill="#000000" stroke="none" font-family="Arial" font-size="13px" font-style="normal" font-weight="normal" text-decoration="none" x="349" y="232">按钮  ，以及开发者信息。</text></g></g><g transform="translate(-14,-6) scale(1,1)"><path fill="none" stroke="#000000" d="M 267 168 L 267 200" stroke-miterlimit="10"/></g><g transform="translate(-14,-6) scale(1,1)"><path fill="none" stroke="#000000" d="M 262.790482243984 189.83732514237585 L 267 200 L 271.209517756016 189.83732514237585" stroke-miterlimit="10"/></g><g transform="translate(-14,-6) scale(1,1)"><path fill="none" stroke="#000000" d="M 319 220 L 344 220" stroke-miterlimit="10" stroke-dasharray="3"/></g><g transform="translate(-14,-6) scale(1,1)"><path fill="none" stroke="#000000" d="M 266 240 L 266 288" stroke-miterlimit="10"/></g><g transform="translate(-14,-6) scale(1,1)"><path fill="none" stroke="#000000" d="M 261.790482243984 277.83732514237585 L 266 288 L 270.209517756016 277.83732514237585" stroke-miterlimit="10"/></g><g transform="translate(-14,-6) scale(1,1)"><g><path fill="none" stroke="none"/><text fill="#000000" stroke="none" font-family="Arial" font-size="13px" font-style="normal" font-weight="normal" text-decoration="none" x="174.5" y="268.5">点击启动按钮</text></g></g><g transform="translate(-14,-6) scale(1,1)"><path fill="#ffffff" stroke="none" d="M 416 248 L 660 248 L 670 258 L 670 303 L 416 303 L 416 248"/></g><g transform="translate(-14,-6) scale(1,1)"><path fill="none" stroke="#000000" d="M 416 248 L 660 248 L 670 258 L 670 303 L 416 303 L 416 248 L 416 248" stroke-miterlimit="10"/></g><g transform="translate(-14,-6) scale(1,1)"><path fill="none" stroke="#000000" d="M 660 248 L 660 258 L 670 258 L 660 248" stroke-miterlimit="10"/></g><g transform="translate(-14,-6) scale(1,1)"><g><path fill="none" stroke="none"/><text fill="#000000" stroke="none" font-family="Arial" font-size="13px" font-style="normal" font-weight="normal" text-decoration="none" x="421" y="266">此时将打开摄像头，并提示用户开始扫描</text></g></g><g transform="translate(-14,-6) scale(1,1)"><g><path fill="none" stroke="none"/><text fill="#000000" stroke="none" font-family="Arial" font-size="13px" font-style="normal" font-weight="normal" text-decoration="none" x="421" y="281">课本上的指定的一张或者几张图片。</text></g></g><g transform="translate(-14,-6) scale(1,1)"><path fill="#ffffff" stroke="none" d="M 24 16 L 348 16 L 358 26 L 358 46 L 24 46 L 24 16"/></g><g transform="translate(-14,-6) scale(1,1)"><path fill="none" stroke="#000000" d="M 24 16 L 348 16 L 358 26 L 358 46 L 24 46 L 24 16 L 24 16" stroke-miterlimit="10"/></g><g transform="translate(-14,-6) scale(1,1)"><path fill="none" stroke="#000000" d="M 348 16 L 348 26 L 358 26 L 348 16" stroke-miterlimit="10"/></g><g transform="translate(-14,-6) scale(1,1)"><g><path fill="none" stroke="none"/><text fill="#000000" stroke="none" font-family="Arial" font-size="13px" font-style="normal" font-weight="normal" text-decoration="none" x="29" y="34">方案一详细流程</text></g></g><g transform="translate(-14,-6) scale(1,1)"><path fill="none" stroke="#000000" d="M 265 91 L 265 128" stroke-miterlimit="10"/></g><g transform="translate(-14,-6) scale(1,1)"><path fill="none" stroke="#000000" d="M 260.790482243984 117.83732514237585 L 265 128 L 269.209517756016 117.83732514237585" stroke-miterlimit="10"/></g><g transform="translate(-14,-6) scale(1,1)"><path fill="#C0C0C0" stroke="none" d="M 217 383 L 324 383 Q 334 383 334 393 L 334 413 Q 334 423 324 423 L 217 423 Q 207 423 207 413 L 207 393 Q 207 383 217 383 Z" opacity="0.2"/></g><g transform="translate(-14,-6) scale(1,1)"><path fill="#ffffff" stroke="none" d="M 210 376 L 317 376 Q 327 376 327 386 L 327 406 Q 327 416 317 416 L 210 416 Q 200 416 200 406 L 200 386 Q 200 376 210 376 Z"/></g><g transform="translate(-14,-6) scale(1,1)"><path fill="none" stroke="#000000" d="M 210 376 L 317 376 Q 327 376 327 386 L 327 406 Q 327 416 317 416 L 210 416 Q 200 416 200 406 L 200 386 Q 200 376 210 376 Z" stroke-miterlimit="10"/></g><g transform="translate(-14,-6) scale(1,1)"><g><path fill="none" stroke="none"/><text fill="#000000" stroke="none" font-family="Arial" font-size="13px" font-style="normal" font-weight="bold" text-decoration="none" x="224.5" y="395.5">开始识别图像</text></g></g><g transform="translate(-14,-6) scale(1,1)"><path fill="none" stroke="#000000" d="M 327 288 L 327 280 M 327 280 A 8 8 0 0 1 335 272 L 416 272" stroke-miterlimit="10" stroke-dasharray="3"/></g><g transform="translate(-14,-6) scale(1,1)"><path fill="#C0C0C0" stroke="none" d="M 231 463.5 L 267.5 447 L 303 463.5 L 267.5 479 L 231 463.5" opacity="0.2"/></g><g transform="translate(-14,-6) scale(1,1)"><path fill="#ffffff" stroke="none" d="M 224 456 L 260 440 L 296 456 L 260 472 L 224 456"/></g><g transform="translate(-14,-6) scale(1,1)"><path fill="none" stroke="#000000" d="M 224 456 L 260 440 L 296 456 L 260 472 L 224 456 L 224 456" stroke-miterlimit="10"/></g><g transform="translate(-14,-6) scale(1,1)"><path fill="none" stroke="#000000" d="M 261 416 L 261 440" stroke-miterlimit="10"/></g><g transform="translate(-14,-6) scale(1,1)"><path fill="none" stroke="#000000" d="M 256.790482243984 429.83732514237585 L 261 440 L 265.209517756016 429.83732514237585" stroke-miterlimit="10"/></g><g transform="translate(-14,-6) scale(1,1)"><path fill="none" stroke="#000000" d="M 263 335 L 263 376" stroke-miterlimit="10"/></g><g transform="translate(-14,-6) scale(1,1)"><path fill="none" stroke="#000000" d="M 258.790482243984 365.83732514237585 L 263 376 L 267.209517756016 365.83732514237585" stroke-miterlimit="10"/></g><g transform="translate(-14,-6) scale(1,1)"><path fill="#C0C0C0" stroke="none" d="M 225 591 L 300 591 Q 310 591 310 601 L 310 621 Q 310 631 300 631 L 225 631 Q 215 631 215 621 L 215 601 Q 215 591 225 591 Z" opacity="0.2"/></g><g transform="translate(-14,-6) scale(1,1)"><path fill="#ffffff" stroke="none" d="M 218 584 L 293 584 Q 303 584 303 594 L 303 614 Q 303 624 293 624 L 218 624 Q 208 624 208 614 L 208 594 Q 208 584 218 584 Z"/></g><g transform="translate(-14,-6) scale(1,1)"><path fill="none" stroke="#000000" d="M 218 584 L 293 584 Q 303 584 303 594 L 303 614 Q 303 624 293 624 L 218 624 Q 208 624 208 614 L 208 594 Q 208 584 218 584 Z" stroke-miterlimit="10"/></g><g transform="translate(-14,-6) scale(1,1)"><g><path fill="none" stroke="none"/><text fill="#000000" stroke="none" font-family="Arial" font-size="13px" font-style="normal" font-weight="bold" text-decoration="none" x="216.5" y="603.5">加载可交互UI</text></g></g><g transform="translate(-14,-6) scale(1,1)"><path fill="none" stroke="#000000" d="M 296 456 L 416 456 M 416 456 A 8 8 0 0 0 424 448 L 424 328 M 424 328 A 8 8 0 0 0 416 320 L 327 320" stroke-miterlimit="10"/></g><g transform="translate(-14,-6) scale(1,1)"><path fill="none" stroke="#000000" d="M 337.16267485762415 315.790482243984 L 327 320 L 337.16267485762415 324.209517756016" stroke-miterlimit="10"/></g><g transform="translate(-14,-6) scale(1,1)"><g><path fill="none" stroke="none"/><text fill="#000000" stroke="none" font-family="Arial" font-size="13px" font-style="normal" font-weight="normal" text-decoration="none" x="423.5" y="392.5">没有识别出出图像</text></g></g><g transform="translate(-14,-6) scale(1,1)"><path fill="#C0C0C0" stroke="none" d="M 81 831 L 208.0615234375 831 Q 218.0615234375 831 218.0615234375 841 L 218.0615234375 861 Q 218.0615234375 871 208.0615234375 871 L 81 871 Q 71 871 71 861 L 71 841 Q 71 831 81 831 Z" opacity="0.2"/></g><g transform="translate(-14,-6) scale(1,1)"><path fill="#ffffff" stroke="none" d="M 74 824 L 201.0615234375 824 Q 211.0615234375 824 211.0615234375 834 L 211.0615234375 854 Q 211.0615234375 864 201.0615234375 864 L 74 864 Q 64 864 64 854 L 64 834 Q 64 824 74 824 Z"/></g><g transform="translate(-14,-6) scale(1,1)"><path fill="none" stroke="#000000" d="M 74 824 L 201.0615234375 824 Q 211.0615234375 824 211.0615234375 834 L 211.0615234375 854 Q 211.0615234375 864 201.0615234375 864 L 74 864 Q 64 864 64 854 L 64 834 Q 64 824 74 824 Z" stroke-miterlimit="10"/></g><g transform="translate(-14,-6) scale(1,1)"><g><path fill="none" stroke="none"/><text fill="#000000" stroke="none" font-family="Arial" font-size="13px" font-style="normal" font-weight="bold" text-decoration="none" x="70.001220703125" y="843.5">将电学元件加入AR场景</text></g></g><g transform="translate(-14,-6) scale(1,1)"><path fill="#ffffff" stroke="none" d="M 584 576 L 885.22998046875 576 L 895.22998046875 586 L 895.22998046875 642 L 584 642 L 584 576"/></g><g transform="translate(-14,-6) scale(1,1)"><path fill="none" stroke="#000000" d="M 584 576 L 885.22998046875 576 L 895.22998046875 586 L 895.22998046875 642 L 584 642 L 584 576 L 584 576" stroke-miterlimit="10"/></g><g transform="translate(-14,-6) scale(1,1)"><path fill="none" stroke="#000000" d="M 885.22998046875 576 L 885.22998046875 586 L 895.22998046875 586 L 885.22998046875 576" stroke-miterlimit="10"/></g><g transform="translate(-14,-6) scale(1,1)"><g><path fill="none" stroke="none"/><text fill="#000000" stroke="none" font-family="Arial" font-size="13px" font-style="normal" font-weight="normal" text-decoration="none" x="589" y="594">主要的UI为</text></g></g><g transform="translate(-14,-6) scale(1,1)"><g><path fill="none" stroke="none"/><text fill="#000000" stroke="none" font-family="Arial" font-size="13px" font-style="normal" font-weight="normal" text-decoration="none" x="589" y="609">1，电路组件列表UI：一个可收缩的界面，在打开后</text><text fill="#000000" stroke="none" font-family="Arial" font-size="13px" font-style="normal" font-weight="normal" text-decoration="none" x="589" y="622">，出现电学元件列表（电源灯泡电阻）；</text></g></g><g transform="translate(-14,-6) scale(1,1)"><g><path fill="none" stroke="none"/><text fill="#000000" stroke="none" font-family="Arial" font-size="13px" font-style="normal" font-weight="normal" text-decoration="none" x="589" y="637">2，使用帮助（选项）UI：点击后弹出帮助菜单</text></g></g><g transform="translate(-14,-6) scale(1,1)"><path fill="none" stroke="#000000" d="M 303 605 L 584 605" stroke-miterlimit="10" stroke-dasharray="3"/></g><g transform="translate(-14,-6) scale(1,1)"><path fill="#C0C0C0" stroke="none" d="M 223 755.5 L 255.5 743 L 287 755.5 L 255.5 767 L 223 755.5" opacity="0.2"/></g><g transform="translate(-14,-6) scale(1,1)"><path fill="#ffffff" stroke="none" d="M 216 748 L 248 736 L 280 748 L 248 760 L 216 748"/></g><g transform="translate(-14,-6) scale(1,1)"><path fill="none" stroke="#000000" d="M 216 748 L 248 736 L 280 748 L 248 760 L 216 748 L 216 748" stroke-miterlimit="10"/></g><g transform="translate(-14,-6) scale(1,1)"><path fill="none" stroke="#000000" d="M 240 760 L 240 776 M 240 776 A 8 8 0 0 1 232 784 L 128 784 M 128 784 A 8 8 0 0 0 120 792 L 120 824" stroke-miterlimit="10"/></g><g transform="translate(-14,-6) scale(1,1)"><path fill="none" stroke="#000000" d="M 115.79048224398402 813.8373251423759 L 120 824 L 124.20951775601598 813.8373251423759" stroke-miterlimit="10"/></g><g transform="translate(-14,-6) scale(1,1)"><g><path fill="none" stroke="none"/><text fill="#000000" stroke="none" font-family="Arial" font-size="13px" font-style="normal" font-weight="normal" text-decoration="none" x="70.5" y="779.5">点击某一电学元件</text></g></g><g transform="translate(-14,-6) scale(1,1)"><path fill="#C0C0C0" stroke="none" d="M 225 511 L 300 511 Q 310 511 310 521 L 310 541 Q 310 551 300 551 L 225 551 Q 215 551 215 541 L 215 521 Q 215 511 225 511 Z" opacity="0.2"/></g><g transform="translate(-14,-6) scale(1,1)"><path fill="#ffffff" stroke="none" d="M 218 504 L 293 504 Q 303 504 303 514 L 303 534 Q 303 544 293 544 L 218 544 Q 208 544 208 534 L 208 514 Q 208 504 218 504 Z"/></g><g transform="translate(-14,-6) scale(1,1)"><path fill="none" stroke="#000000" d="M 218 504 L 293 504 Q 303 504 303 514 L 303 534 Q 303 544 293 544 L 218 544 Q 208 544 208 534 L 208 514 Q 208 504 218 504 Z" stroke-miterlimit="10"/></g><g transform="translate(-14,-6) scale(1,1)"><g><path fill="none" stroke="none"/><text fill="#000000" stroke="none" font-family="Arial" font-size="13px" font-style="normal" font-weight="bold" text-decoration="none" x="220.470458984375" y="523.5">构建AR场景</text></g></g><g transform="translate(-14,-6) scale(1,1)"><path fill="none" stroke="#000000" d="M 256 472 L 256 504" stroke-miterlimit="10"/></g><g transform="translate(-14,-6) scale(1,1)"><path fill="none" stroke="#000000" d="M 251.790482243984 493.83732514237585 L 256 504 L 260.209517756016 493.83732514237585" stroke-miterlimit="10"/></g><g transform="translate(-14,-6) scale(1,1)"><g><path fill="none" stroke="none"/><text fill="#000000" stroke="none" font-family="Arial" font-size="13px" font-style="normal" font-weight="normal" text-decoration="none" x="174.5" y="492.5">识别成功</text></g></g><g transform="translate(-14,-6) scale(1,1)"><path fill="#C0C0C0" stroke="none" d="M 329 815 L 468 815 Q 478 815 478 825 L 478 845 Q 478 855 468 855 L 329 855 Q 319 855 319 845 L 319 825 Q 319 815 329 815 Z" opacity="0.2"/></g><g transform="translate(-14,-6) scale(1,1)"><path fill="#ffffff" stroke="none" d="M 322 808 L 461 808 Q 471 808 471 818 L 471 838 Q 471 848 461 848 L 322 848 Q 312 848 312 838 L 312 818 Q 312 808 322 808 Z"/></g><g transform="translate(-14,-6) scale(1,1)"><path fill="none" stroke="#000000" d="M 322 808 L 461 808 Q 471 808 471 818 L 471 838 Q 471 848 461 848 L 322 848 Q 312 848 312 838 L 312 818 Q 312 808 322 808 Z" stroke-miterlimit="10"/></g><g transform="translate(-14,-6) scale(1,1)"><g><path fill="none" stroke="none"/><text fill="#000000" stroke="none" font-family="Arial" font-size="13px" font-style="normal" font-weight="bold" text-decoration="none" x="352.5" y="827.5">打开帮助界面</text></g></g><g transform="translate(-14,-6) scale(1,1)"><path fill="none" stroke="#000000" d="M 265 760 L 265 816 M 265 816 A 8 8 0 0 0 273 824 L 312 824" stroke-miterlimit="10"/></g><g transform="translate(-14,-6) scale(1,1)"><path fill="none" stroke="#000000" d="M 301.83732514237585 828.209517756016 L 312 824 L 301.83732514237585 819.790482243984" stroke-miterlimit="10"/></g><g transform="translate(-14,-6) scale(1,1)"><g><path fill="none" stroke="none"/><text fill="#000000" stroke="none" font-family="Arial" font-size="13px" font-style="normal" font-weight="normal" text-decoration="none" x="270.5" y="796.5">点击“帮助”</text></g></g><g transform="translate(-14,-6) scale(1,1)"><path fill="none" stroke="#000000" d="M 255 544 L 255 584" stroke-miterlimit="10"/></g><g transform="translate(-14,-6) scale(1,1)"><path fill="none" stroke="#000000" d="M 250.790482243984 573.8373251423759 L 255 584 L 259.209517756016 573.8373251423759" stroke-miterlimit="10"/></g><g transform="translate(-14,-6) scale(1,1)"><path fill="#C0C0C0" stroke="none" d="M 225 663 L 293.5234375 663 Q 303.5234375 663 303.5234375 673 L 303.5234375 693 Q 303.5234375 703 293.5234375 703 L 225 703 Q 215 703 215 693 L 215 673 Q 215 663 225 663 Z" opacity="0.2"/></g><g transform="translate(-14,-6) scale(1,1)"><path fill="#ffffff" stroke="none" d="M 218 656 L 286.5234375 656 Q 296.5234375 656 296.5234375 666 L 296.5234375 686 Q 296.5234375 696 286.5234375 696 L 218 696 Q 208 696 208 686 L 208 666 Q 208 656 218 656 Z"/></g><g transform="translate(-14,-6) scale(1,1)"><path fill="none" stroke="#000000" d="M 218 656 L 286.5234375 656 Q 296.5234375 656 296.5234375 666 L 296.5234375 686 Q 296.5234375 696 286.5234375 696 L 218 696 Q 208 696 208 686 L 208 666 Q 208 656 218 656 Z" stroke-miterlimit="10"/></g><g transform="translate(-14,-6) scale(1,1)"><g><path fill="none" stroke="none"/><text fill="#000000" stroke="none" font-family="Arial" font-size="13px" font-style="normal" font-weight="bold" text-decoration="none" x="213.26171875" y="675.5">等待用户输入</text></g></g><g transform="translate(-14,-6) scale(1,1)"><path fill="none" stroke="#000000" d="M 254 624 L 254 656" stroke-miterlimit="10"/></g><g transform="translate(-14,-6) scale(1,1)"><path fill="none" stroke="#000000" d="M 249.790482243984 645.8373251423759 L 254 656 L 258.209517756016 645.8373251423759" stroke-miterlimit="10"/></g><g transform="translate(-14,-6) scale(1,1)"><path fill="none" stroke="#000000" d="M 251 696 L 251 736" stroke-miterlimit="10"/></g><g transform="translate(-14,-6) scale(1,1)"><path fill="none" stroke="#000000" d="M 246.790482243984 725.8373251423759 L 251 736 L 255.209517756016 725.8373251423759" stroke-miterlimit="10"/></g><g transform="translate(-14,-6) scale(1,1)"><path fill="none" stroke="#000000" d="M 471 832 L 504 832 M 504 832 A 8 8 0 0 0 512 824 L 512 696 M 512 696 A 8 8 0 0 0 504 688 L 297 688" stroke-miterlimit="10"/></g><g transform="translate(-14,-6) scale(1,1)"><path fill="none" stroke="#000000" d="M 307.16267485762415 683.790482243984 L 297 688 L 307.16267485762415 692.209517756016" stroke-miterlimit="10"/></g><g transform="translate(-14,-6) scale(1,1)"><g><path fill="none" stroke="none"/><text fill="#000000" stroke="none" font-family="Arial" font-size="13px" font-style="normal" font-weight="normal" text-decoration="none" x="445.5" y="760.5">点击“返回”</text></g></g><g transform="translate(-14,-6) scale(1,1)"><path fill="#C0C0C0" stroke="none" d="M 98 903 L 195 903 Q 198 903 198 906 L 198 905 Q 198 908 195 908 L 98 908 Q 95 908 95 905 L 95 906 Q 95 903 98 903 Z" opacity="0.2"/></g><g transform="translate(-14,-6) scale(1,1)"><path fill="#000000" stroke="none" d="M 91 896 L 188 896 Q 191 896 191 899 L 191 899 Q 191 902 188 902 L 91 902 Q 88 902 88 899 L 88 899 Q 88 896 91 896 Z"/></g><g transform="translate(-14,-6) scale(1,1)"><path fill="none" stroke="#000000" d="M 138 864 L 138 896" stroke-miterlimit="10"/></g><g transform="translate(-14,-6) scale(1,1)"><path fill="none" stroke="#000000" d="M 133.790482243984 885.8373251423759 L 138 896 L 142.209517756016 885.8373251423759" stroke-miterlimit="10"/></g><g transform="translate(-14,-6) scale(1,1)"><path fill="#C0C0C0" stroke="none" d="M 81 967 L 202.5390625 967 Q 212.5390625 967 212.5390625 977 L 212.5390625 997 Q 212.5390625 1007 202.5390625 1007 L 81 1007 Q 71 1007 71 997 L 71 977 Q 71 967 81 967 Z" opacity="0.2"/></g><g transform="translate(-14,-6) scale(1,1)"><path fill="#ffffff" stroke="none" d="M 74 960 L 195.5390625 960 Q 205.5390625 960 205.5390625 970 L 205.5390625 990 Q 205.5390625 1000 195.5390625 1000 L 74 1000 Q 64 1000 64 990 L 64 970 Q 64 960 74 960 Z"/></g><g transform="translate(-14,-6) scale(1,1)"><path fill="none" stroke="#000000" d="M 74 960 L 195.5390625 960 Q 205.5390625 960 205.5390625 970 L 205.5390625 990 Q 205.5390625 1000 195.5390625 1000 L 74 1000 Q 64 1000 64 990 L 64 970 Q 64 960 74 960 Z" stroke-miterlimit="10"/></g><g transform="translate(-14,-6) scale(1,1)"><g><path fill="none" stroke="none"/><text fill="#000000" stroke="none" font-family="Arial" font-size="13px" font-style="normal" font-weight="bold" text-decoration="none" x="69.76953125" y="979.5">等待用户进行拖拽操作</text></g></g><g transform="translate(-14,-6) scale(1,1)"><path fill="#C0C0C0" stroke="none" d="M 273 967 L 500.5703125 967 Q 510.5703125 967 510.5703125 977 L 510.5703125 997 Q 510.5703125 1007 500.5703125 1007 L 273 1007 Q 263 1007 263 997 L 263 977 Q 263 967 273 967 Z" opacity="0.2"/></g><g transform="translate(-14,-6) scale(1,1)"><path fill="#ffffff" stroke="none" d="M 266 960 L 493.5703125 960 Q 503.5703125 960 503.5703125 970 L 503.5703125 990 Q 503.5703125 1000 493.5703125 1000 L 266 1000 Q 256 1000 256 990 L 256 970 Q 256 960 266 960 Z"/></g><g transform="translate(-14,-6) scale(1,1)"><path fill="none" stroke="#000000" d="M 266 960 L 493.5703125 960 Q 503.5703125 960 503.5703125 970 L 503.5703125 990 Q 503.5703125 1000 493.5703125 1000 L 266 1000 Q 256 1000 256 990 L 256 970 Q 256 960 266 960 Z" stroke-miterlimit="10"/></g><g transform="translate(-14,-6) scale(1,1)"><g><path fill="none" stroke="none"/><text fill="#000000" stroke="none" font-family="Arial" font-size="13px" font-style="normal" font-weight="bold" text-decoration="none" x="262.78515625" y="979.5">电学元件对应的空位出现提示（闪烁等）</text></g></g><g transform="translate(-14,-6) scale(1,1)"><path fill="none" stroke="#000000" d="M 144 901 L 144 960" stroke-miterlimit="10"/></g><g transform="translate(-14,-6) scale(1,1)"><path fill="none" stroke="#000000" d="M 139.790482243984 949.8373251423759 L 144 960 L 148.209517756016 949.8373251423759" stroke-miterlimit="10"/></g><g transform="translate(-14,-6) scale(1,1)"><path fill="none" stroke="#000000" d="M 168 901 L 168 928 M 168 928 A 8 8 0 0 0 176 936 L 304 936 M 304 936 A 8 8 0 0 1 312 944 L 312 960" stroke-miterlimit="10"/></g><g transform="translate(-14,-6) scale(1,1)"><path fill="none" stroke="#000000" d="M 307.790482243984 949.8373251423759 L 312 960 L 316.209517756016 949.8373251423759" stroke-miterlimit="10"/></g><g transform="translate(-14,-6) scale(1,1)"><path fill="#C0C0C0" stroke="none" d="M 89 1055 L 197.28515625 1055 Q 207.28515625 1055 207.28515625 1065 L 207.28515625 1085 Q 207.28515625 1095 197.28515625 1095 L 89 1095 Q 79 1095 79 1085 L 79 1065 Q 79 1055 89 1055 Z" opacity="0.2"/></g><g transform="translate(-14,-6) scale(1,1)"><path fill="#ffffff" stroke="none" d="M 82 1048 L 190.28515625 1048 Q 200.28515625 1048 200.28515625 1058 L 200.28515625 1078 Q 200.28515625 1088 190.28515625 1088 L 82 1088 Q 72 1088 72 1078 L 72 1058 Q 72 1048 82 1048 Z"/></g><g transform="translate(-14,-6) scale(1,1)"><path fill="none" stroke="#000000" d="M 82 1048 L 190.28515625 1048 Q 200.28515625 1048 200.28515625 1058 L 200.28515625 1078 Q 200.28515625 1088 190.28515625 1088 L 82 1088 Q 72 1088 72 1078 L 72 1058 Q 72 1048 82 1048 Z" stroke-miterlimit="10"/></g><g transform="translate(-14,-6) scale(1,1)"><g><path fill="none" stroke="none"/><text fill="#000000" stroke="none" font-family="Arial" font-size="13px" font-style="normal" font-weight="bold" text-decoration="none" x="77.642578125" y="1067.5">电学学元件位置移动</text></g></g><g transform="translate(-14,-6) scale(1,1)"><path fill="none" stroke="#000000" d="M 134 1000 L 134 1048" stroke-miterlimit="10"/></g><g transform="translate(-14,-6) scale(1,1)"><path fill="none" stroke="#000000" d="M 129.790482243984 1037.837325142376 L 134 1048 L 138.209517756016 1037.837325142376" stroke-miterlimit="10"/></g><g transform="translate(-14,-6) scale(1,1)"><g><path fill="none" stroke="none"/><text fill="#000000" stroke="none" font-family="Arial" font-size="13px" font-style="normal" font-weight="normal" text-decoration="none" x="134.5" y="1029.5">拖拽</text></g></g><g transform="translate(-14,-6) scale(1,1)"><path fill="#C0C0C0" stroke="none" d="M 95 1161.5 L 138.5 1143 L 181 1161.5 L 138.5 1179 L 95 1161.5" opacity="0.2"/></g><g transform="translate(-14,-6) scale(1,1)"><path fill="#ffffff" stroke="none" d="M 88 1154 L 131 1136 L 174 1154 L 131 1172 L 88 1154"/></g><g transform="translate(-14,-6) scale(1,1)"><path fill="none" stroke="#000000" d="M 88 1154 L 131 1136 L 174 1154 L 131 1172 L 88 1154 L 88 1154" stroke-miterlimit="10"/></g><g transform="translate(-14,-6) scale(1,1)"><path fill="none" stroke="#000000" d="M 137 1088 L 137 1136" stroke-miterlimit="10"/></g><g transform="translate(-14,-6) scale(1,1)"><path fill="none" stroke="#000000" d="M 132.790482243984 1125.837325142376 L 137 1136 L 141.209517756016 1125.837325142376" stroke-miterlimit="10"/></g><g transform="translate(-14,-6) scale(1,1)"><g><path fill="none" stroke="none"/><text fill="#000000" stroke="none" font-family="Arial" font-size="13px" font-style="normal" font-weight="normal" text-decoration="none" x="158.5" y="1117.5">判断元件是否在适当的位置</text></g></g><g transform="translate(-14,-6) scale(1,1)"><path fill="none" stroke="#000000" d="M 88 1152 L 40 1152 M 40 1152 A 8 8 0 0 1 32 1144 L 32 1000 M 32 1000 A 8 8 0 0 1 40 992 L 64 992" stroke-miterlimit="10"/></g><g transform="translate(-14,-6) scale(1,1)"><path fill="none" stroke="#000000" d="M 53.837325142375846 996.209517756016 L 64 992 L 53.837325142375846 987.790482243984" stroke-miterlimit="10"/></g><g transform="translate(-14,-6) scale(1,1)"><g><path fill="none" stroke="none"/><text fill="#000000" stroke="none" font-family="Arial" font-size="13px" font-style="normal" font-weight="normal" text-decoration="none" x="47.5" y="1190.5">否</text></g></g><g transform="translate(-14,-6) scale(1,1)"><path fill="#C0C0C0" stroke="none" d="M 122 1255 L 219 1255 Q 222 1255 222 1258 L 222 1257 Q 222 1260 219 1260 L 122 1260 Q 119 1260 119 1257 L 119 1258 Q 119 1255 122 1255 Z" opacity="0.2"/></g><g transform="translate(-14,-6) scale(1,1)"><path fill="#000000" stroke="none" d="M 115 1248 L 212 1248 Q 215 1248 215 1251 L 215 1251 Q 215 1254 212 1254 L 115 1254 Q 112 1254 112 1251 L 112 1251 Q 112 1248 115 1248 Z"/></g><g transform="translate(-14,-6) scale(1,1)"><path fill="none" stroke="#000000" d="M 369 1000 L 369 1192 M 369 1192 A 8 8 0 0 1 361 1200 L 187 1200 M 187 1200 A 8 8 0 0 0 179 1208 L 179 1248" stroke-miterlimit="10"/></g><g transform="translate(-14,-6) scale(1,1)"><path fill="none" stroke="#000000" d="M 174.790482243984 1237.837325142376 L 179 1248 L 183.209517756016 1237.837325142376" stroke-miterlimit="10"/></g><g transform="translate(-14,-6) scale(1,1)"><path fill="none" stroke="#000000" d="M 140 1172 L 140 1248" stroke-miterlimit="10"/></g><g transform="translate(-14,-6) scale(1,1)"><path fill="none" stroke="#000000" d="M 135.790482243984 1237.837325142376 L 140 1248 L 144.209517756016 1237.837325142376" stroke-miterlimit="10"/></g><g transform="translate(-14,-6) scale(1,1)"><g><path fill="none" stroke="none"/><text fill="#000000" stroke="none" font-family="Arial" font-size="13px" font-style="normal" font-weight="normal" text-decoration="none" x="119.5" y="1214.5">是</text></g></g><g transform="translate(-14,-6) scale(1,1)"><path fill="#C0C0C0" stroke="none" d="M 113 1303 L 204 1303 Q 214 1303 214 1313 L 214 1333 Q 214 1343 204 1343 L 113 1343 Q 103 1343 103 1333 L 103 1313 Q 103 1303 113 1303 Z" opacity="0.2"/></g><g transform="translate(-14,-6) scale(1,1)"><path fill="#ffffff" stroke="none" d="M 106 1296 L 197 1296 Q 207 1296 207 1306 L 207 1326 Q 207 1336 197 1336 L 106 1336 Q 96 1336 96 1326 L 96 1306 Q 96 1296 106 1296 Z"/></g><g transform="translate(-14,-6) scale(1,1)"><path fill="none" stroke="#000000" d="M 106 1296 L 197 1296 Q 207 1296 207 1306 L 207 1326 Q 207 1336 197 1336 L 106 1336 Q 96 1336 96 1326 L 96 1306 Q 96 1296 106 1296 Z" stroke-miterlimit="10"/></g><g transform="translate(-14,-6) scale(1,1)"><g><path fill="none" stroke="none"/><text fill="#000000" stroke="none" font-family="Arial" font-size="13px" font-style="normal" font-weight="bold" text-decoration="none" x="112.5" y="1315.5">提示位置正确</text></g></g><g transform="translate(-14,-6) scale(1,1)"><path fill="none" stroke="#000000" d="M 162 1253 L 162 1296" stroke-miterlimit="10"/></g><g transform="translate(-14,-6) scale(1,1)"><path fill="none" stroke="#000000" d="M 157.790482243984 1285.837325142376 L 162 1296 L 166.209517756016 1285.837325142376" stroke-miterlimit="10"/></g><g transform="translate(-14,-6) scale(1,1)"><path fill="#C0C0C0" stroke="none" d="M 119 1415.5 L 165 1399 L 210 1415.5 L 165 1431 L 119 1415.5" opacity="0.2"/></g><g transform="translate(-14,-6) scale(1,1)"><path fill="#ffffff" stroke="none" d="M 112 1408 L 157.5 1392 L 203 1408 L 157.5 1424 L 112 1408"/></g><g transform="translate(-14,-6) scale(1,1)"><path fill="none" stroke="#000000" d="M 112 1408 L 157.5 1392 L 203 1408 L 157.5 1424 L 112 1408 L 112 1408" stroke-miterlimit="10"/></g><g transform="translate(-14,-6) scale(1,1)"><path fill="none" stroke="#000000" d="M 158 1336 L 158 1392" stroke-miterlimit="10"/></g><g transform="translate(-14,-6) scale(1,1)"><path fill="none" stroke="#000000" d="M 153.790482243984 1381.837325142376 L 158 1392 L 162.209517756016 1381.837325142376" stroke-miterlimit="10"/></g><g transform="translate(-14,-6) scale(1,1)"><g><path fill="none" stroke="none"/><text fill="#000000" stroke="none" font-family="Arial" font-size="13px" font-style="normal" font-weight="normal" text-decoration="none" x="166.5" y="1372.5">所有电学元件摆放完毕？</text></g></g><g transform="translate(-14,-6) scale(1,1)"><path fill="none" stroke="#000000" d="M 203 1408 L 536 1408 M 536 1408 A 8 8 0 0 0 544 1400 L 544 680 M 544 680 A 8 8 0 0 0 536 672 L 297 672" stroke-miterlimit="10"/></g><g transform="translate(-14,-6) scale(1,1)"><path fill="none" stroke="#000000" d="M 307.16267485762415 667.790482243984 L 297 672 L 307.16267485762415 676.209517756016" stroke-miterlimit="10"/></g><g transform="translate(-14,-6) scale(1,1)"><g><path fill="none" stroke="none"/><text fill="#000000" stroke="none" font-family="Arial" font-size="13px" font-style="normal" font-weight="normal" text-decoration="none" x="247.5" y="1420.5">否</text></g></g><g transform="translate(-14,-6) scale(1,1)"><path fill="#C0C0C0" stroke="none" d="M 121 1487 L 189.5234375 1487 Q 199.5234375 1487 199.5234375 1497 L 199.5234375 1517 Q 199.5234375 1527 189.5234375 1527 L 121 1527 Q 111 1527 111 1517 L 111 1497 Q 111 1487 121 1487 Z" opacity="0.2"/></g><g transform="translate(-14,-6) scale(1,1)"><path fill="#ffffff" stroke="none" d="M 114 1480 L 182.5234375 1480 Q 192.5234375 1480 192.5234375 1490 L 192.5234375 1510 Q 192.5234375 1520 182.5234375 1520 L 114 1520 Q 104 1520 104 1510 L 104 1490 Q 104 1480 114 1480 Z"/></g><g transform="translate(-14,-6) scale(1,1)"><path fill="none" stroke="#000000" d="M 114 1480 L 182.5234375 1480 Q 192.5234375 1480 192.5234375 1490 L 192.5234375 1510 Q 192.5234375 1520 182.5234375 1520 L 114 1520 Q 104 1520 104 1510 L 104 1490 Q 104 1480 114 1480 Z" stroke-miterlimit="10"/></g><g transform="translate(-14,-6) scale(1,1)"><g><path fill="none" stroke="none"/><text fill="#000000" stroke="none" font-family="Arial" font-size="13px" font-style="normal" font-weight="bold" text-decoration="none" x="109.26171875" y="1499.5">提示操作完成</text></g></g><g transform="translate(-14,-6) scale(1,1)"><path fill="none" stroke="#000000" d="M 156 1424 L 156 1480" stroke-miterlimit="10"/></g><g transform="translate(-14,-6) scale(1,1)"><path fill="none" stroke="#000000" d="M 151.790482243984 1469.837325142376 L 156 1480 L 160.209517756016 1469.837325142376" stroke-miterlimit="10"/></g><g transform="translate(-14,-6) scale(1,1)"><path fill="#C0C0C0" stroke="none" d="M 103 1595 L 155.5 1575 L 207 1595 L 155.5 1614 L 103 1595" opacity="0.2"/></g><g transform="translate(-14,-6) scale(1,1)"><path fill="#ffffff" stroke="none" d="M 96 1587.5 L 148 1568 L 200 1587.5 L 148 1607 L 96 1587.5"/></g><g transform="translate(-14,-6) scale(1,1)"><path fill="none" stroke="#000000" d="M 96 1587.5 L 148 1568 L 200 1587.5 L 148 1607 L 96 1587.5 L 96 1587.5" stroke-miterlimit="10"/></g><g transform="translate(-14,-6) scale(1,1)"><path fill="none" stroke="#000000" d="M 148 1520 L 148 1568" stroke-miterlimit="10"/></g><g transform="translate(-14,-6) scale(1,1)"><path fill="none" stroke="#000000" d="M 143.790482243984 1557.837325142376 L 148 1568 L 152.209517756016 1557.837325142376" stroke-miterlimit="10"/></g><g transform="translate(-14,-6) scale(1,1)"><g><path fill="none" stroke="none"/><text fill="#000000" stroke="none" font-family="Arial" font-size="13px" font-style="normal" font-weight="normal" text-decoration="none" x="159.5" y="1549.5">重新开始？</text></g></g><g transform="translate(-14,-6) scale(1,1)"><path fill="#C0C0C0" stroke="none" d="M 135 1675.5 C 135 1668.59644 140.59644 1663 147.5 1663 C 154.40356 1663 160 1668.59644 160 1675.5 C 160 1682.40356 154.40356 1688 147.5 1688 C 140.59644 1688 135 1682.40356 135 1675.5 Z" opacity="0.2"/></g><g transform="translate(-14,-6) scale(1,1)"><path fill="none" stroke="#000000" d="M 128 1668.5 C 128 1661.59644 133.59644 1656 140.5 1656 C 147.40356 1656 153 1661.59644 153 1668.5 C 153 1675.40356 147.40356 1681 140.5 1681 C 133.59644 1681 128 1675.40356 128 1668.5 Z" stroke-miterlimit="10"/></g><g transform="translate(-14,-6) scale(1,1)"><path fill="#000000" stroke="none" d="M 133 1668.5 C 133 1664.357864 136.357864 1661 140.5 1661 C 144.642136 1661 148 1664.357864 148 1668.5 C 148 1672.642136 144.642136 1676 140.5 1676 C 136.357864 1676 133 1672.642136 133 1668.5 Z"/></g><g transform="translate(-14,-6) scale(1,1)"><path fill="none" stroke="#000000" d="M 145 1607 L 145 1656" stroke-miterlimit="10"/></g><g transform="translate(-14,-6) scale(1,1)"><path fill="none" stroke="#000000" d="M 140.790482243984 1645.837325142376 L 145 1656 L 149.209517756016 1645.837325142376" stroke-miterlimit="10"/></g><g transform="translate(-14,-6) scale(1,1)"><g><path fill="none" stroke="none"/><text fill="#000000" stroke="none" font-family="Arial" font-size="13px" font-style="normal" font-weight="normal" text-decoration="none" x="152.5" y="1636.5">否</text></g></g><g transform="translate(-14,-6) scale(1,1)"><path fill="none" stroke="#000000" d="M 200 1592 L 560 1592 M 560 1592 A 8 8 0 0 0 568 1584 L 568 320 M 568 320 A 8 8 0 0 0 560 312 L 327 312" stroke-miterlimit="10"/></g><g transform="translate(-14,-6) scale(1,1)"><path fill="none" stroke="#000000" d="M 337.16267485762415 307.790482243984 L 327 312 L 337.16267485762415 316.209517756016" stroke-miterlimit="10"/></g><g transform="translate(-14,-6) scale(1,1)"><g><path fill="none" stroke="none"/><text fill="#000000" stroke="none" font-family="Arial" font-size="13px" font-style="normal" font-weight="normal" text-decoration="none" x="295.5" y="1580.5">是</text></g></g></g></svg>