<svg version="1.1" xmlns="http://www.w3.org/2000/svg" xmlns:xlink="http://www.w3.org/1999/xlink" width="844" height="2021"><defs/><g><g transform="translate(-54,-46) scale(1,1)"><path fill="#C0C0C0" stroke="none" d="M 319 136.5 C 319 131.2532944 323.2532944 127 328.5 127 C 333.7467056 127 338 131.2532944 338 136.5 C 338 141.7467056 333.7467056 146 328.5 146 C 323.2532944 146 319 141.7467056 319 136.5 Z" opacity="0.2"/></g><g transform="translate(-54,-46) scale(1,1)"><path fill="#000000" stroke="none" d="M 312 129.5 C 312 124.2532944 316.2532944 120 321.5 120 C 326.7467056 120 331 124.2532944 331 129.5 C 331 134.7467056 326.7467056 139 321.5 139 C 316.2532944 139 312 134.7467056 312 129.5 Z"/></g><g transform="translate(-54,-46) scale(1,1)"><path fill="#C0C0C0" stroke="none" d="M 305 631 L 426.5390625 631 Q 436.5390625 631 436.5390625 641 L 436.5390625 661 Q 436.5390625 671 426.5390625 671 L 305 671 Q 295 671 295 661 L 295 641 Q 295 631 305 631 Z" opacity="0.2"/></g><g transform="translate(-54,-46) scale(1,1)"><path fill="#ffffff" stroke="none" d="M 298 624 L 419.5390625 624 Q 429.5390625 624 429.5390625 634 L 429.5390625 654 Q 429.5390625 664 419.5390625 664 L 298 664 Q 288 664 288 654 L 288 634 Q 288 624 298 624 Z"/></g><g transform="translate(-54,-46) scale(1,1)"><path fill="none" stroke="#000000" d="M 298 624 L 419.5390625 624 Q 429.5390625 624 429.5390625 634 L 429.5390625 654 Q 429.5390625 664 419.5390625 664 L 298 664 Q 288 664 288 654 L 288 634 Q 288 624 298 624 Z" stroke-miterlimit="10"/></g><g transform="translate(-54,-46) scale(1,1)"><g><path fill="none" stroke="none"/><text fill="#000000" stroke="none" font-family="Arial" font-size="13px" font-style="normal" font-weight="bold" text-decoration="none" x="319.76953125" y="643.5">开始识别图像</text></g></g><g transform="translate(-54,-46) scale(1,1)"><path fill="#C0C0C0" stroke="none" d="M 281 559 L 482.0625 559 Q 492.0625 559 492.0625 569 L 492.0625 589 Q 492.0625 599 482.0625 599 L 281 599 Q 271 599 271 589 L 271 569 Q 271 559 281 559 Z" opacity="0.2"/></g><g transform="translate(-54,-46) scale(1,1)"><path fill="#ffffff" stroke="none" d="M 274 552 L 475.0625 552 Q 485.0625 552 485.0625 562 L 485.0625 582 Q 485.0625 592 475.0625 592 L 274 592 Q 264 592 264 582 L 264 562 Q 264 552 274 552 Z"/></g><g transform="translate(-54,-46) scale(1,1)"><path fill="none" stroke="#000000" d="M 274 552 L 475.0625 552 Q 485.0625 552 485.0625 562 L 485.0625 582 Q 485.0625 592 475.0625 592 L 274 592 Q 264 592 264 582 L 264 562 Q 264 552 274 552 Z" stroke-miterlimit="10"/></g><g transform="translate(-54,-46) scale(1,1)"><g><path fill="none" stroke="none"/><text fill="#000000" stroke="none" font-family="Arial" font-size="13px" font-style="normal" font-weight="bold" text-decoration="none" x="270.53125" y="571.5">提示用户将手机摄像头对准扫描图像</text></g></g><g transform="translate(-54,-46) scale(1,1)"><path fill="#C0C0C0" stroke="none" d="M 319 712.5 L 358.5 703 L 397 712.5 L 358.5 721 L 319 712.5" opacity="0.2"/></g><g transform="translate(-54,-46) scale(1,1)"><path fill="#ffffff" stroke="none" d="M 312 705 L 351 696 L 390 705 L 351 714 L 312 705"/></g><g transform="translate(-54,-46) scale(1,1)"><path fill="none" stroke="#000000" d="M 312 705 L 351 696 L 390 705 L 351 714 L 312 705 L 312 705" stroke-miterlimit="10"/></g><g transform="translate(-54,-46) scale(1,1)"><path fill="none" stroke="#000000" d="M 352 664 L 352 696" stroke-miterlimit="10"/></g><g transform="translate(-54,-46) scale(1,1)"><path fill="none" stroke="#000000" d="M 347.790482243984 685.8373251423759 L 352 696 L 356.209517756016 685.8373251423759" stroke-miterlimit="10"/></g><g transform="translate(-54,-46) scale(1,1)"><path fill="#C0C0C0" stroke="none" d="M 313 791 L 461.046875 791 Q 471.046875 791 471.046875 801 L 471.046875 821 Q 471.046875 831 461.046875 831 L 313 831 Q 303 831 303 821 L 303 801 Q 303 791 313 791 Z" opacity="0.2"/></g><g transform="translate(-54,-46) scale(1,1)"><path fill="#ffffff" stroke="none" d="M 306 784 L 454.046875 784 Q 464.046875 784 464.046875 794 L 464.046875 814 Q 464.046875 824 454.046875 824 L 306 824 Q 296 824 296 814 L 296 794 Q 296 784 306 784 Z"/></g><g transform="translate(-54,-46) scale(1,1)"><path fill="none" stroke="#000000" d="M 306 784 L 454.046875 784 Q 464.046875 784 464.046875 794 L 464.046875 814 Q 464.046875 824 454.046875 824 L 306 824 Q 296 824 296 814 L 296 794 Q 296 784 306 784 Z" stroke-miterlimit="10"/></g><g transform="translate(-54,-46) scale(1,1)"><g><path fill="none" stroke="none"/><text fill="#000000" stroke="none" font-family="Arial" font-size="13px" font-style="normal" font-weight="bold" text-decoration="none" x="302.0234375" y="803.5">加载默认场景，初始化场景</text></g></g><g transform="translate(-54,-46) scale(1,1)"><path fill="none" stroke="#000000" d="M 356 714 L 356 784" stroke-miterlimit="10"/></g><g transform="translate(-54,-46) scale(1,1)"><path fill="none" stroke="#000000" d="M 351.790482243984 773.8373251423759 L 356 784 L 360.209517756016 773.8373251423759" stroke-miterlimit="10"/></g><g transform="translate(-54,-46) scale(1,1)"><g><path fill="none" stroke="none"/><text fill="#000000" stroke="none" font-family="Arial" font-size="13px" font-style="normal" font-weight="normal" text-decoration="none" x="294.5" y="747.5">扫描成功</text></g></g><g transform="translate(-54,-46) scale(1,1)"><path fill="none" stroke="#000000" d="M 352 592 L 352 624" stroke-miterlimit="10"/></g><g transform="translate(-54,-46) scale(1,1)"><path fill="none" stroke="#000000" d="M 347.790482243984 613.8373251423759 L 352 624 L 356.209517756016 613.8373251423759" stroke-miterlimit="10"/></g><g transform="translate(-54,-46) scale(1,1)"><path fill="none" stroke="#000000" d="M 390 704 L 504 704 M 504 704 A 8 8 0 0 0 512 696 L 512 584 M 512 584 A 8 8 0 0 0 504 576 L 485 576" stroke-miterlimit="10"/></g><g transform="translate(-54,-46) scale(1,1)"><path fill="none" stroke="#000000" d="M 495.16267485762415 571.790482243984 L 485 576 L 495.16267485762415 580.209517756016" stroke-miterlimit="10"/></g><g transform="translate(-54,-46) scale(1,1)"><g><path fill="none" stroke="none"/><text fill="#000000" stroke="none" font-family="Arial" font-size="13px" font-style="normal" font-weight="normal" text-decoration="none" x="517.5" y="639.5">识别不到图像</text></g></g><g transform="translate(-54,-46) scale(1,1)"><path fill="#ffffff" stroke="none" d="M 496 792 L 829 792 L 839 802 L 839 815 L 496 815 L 496 792"/></g><g transform="translate(-54,-46) scale(1,1)"><path fill="none" stroke="#000000" d="M 496 792 L 829 792 L 839 802 L 839 815 L 496 815 L 496 792 L 496 792" stroke-miterlimit="10"/></g><g transform="translate(-54,-46) scale(1,1)"><path fill="none" stroke="#000000" d="M 829 792 L 829 802 L 839 802 L 829 792" stroke-miterlimit="10"/></g><g transform="translate(-54,-46) scale(1,1)"><g><path fill="none" stroke="none"/><text fill="#000000" stroke="none" font-family="Arial" font-size="13px" font-style="normal" font-weight="normal" text-decoration="none" x="501" y="810">此时场景中出现与课本里的图对应的的电路（含有开关）</text></g></g><g transform="translate(-54,-46) scale(1,1)"><path fill="#ffffff" stroke="none" d="M 520 552 L 756 552 L 766 562 L 766 575 L 520 575 L 520 552"/></g><g transform="translate(-54,-46) scale(1,1)"><path fill="none" stroke="#000000" d="M 520 552 L 756 552 L 766 562 L 766 575 L 520 575 L 520 552 L 520 552" stroke-miterlimit="10"/></g><g transform="translate(-54,-46) scale(1,1)"><path fill="none" stroke="#000000" d="M 756 552 L 756 562 L 766 562 L 756 552" stroke-miterlimit="10"/></g><g transform="translate(-54,-46) scale(1,1)"><g><path fill="none" stroke="none"/><text fill="#000000" stroke="none" font-family="Arial" font-size="13px" font-style="normal" font-weight="normal" text-decoration="none" x="525" y="570">此处可提示图像所在的课本的那些页码</text></g></g><g transform="translate(-54,-46) scale(1,1)"><path fill="none" stroke="#000000" d="M 485 560 L 520 560" stroke-miterlimit="10" stroke-dasharray="3"/></g><g transform="translate(-54,-46) scale(1,1)"><path fill="none" stroke="#000000" d="M 464 804 L 496 804" stroke-miterlimit="10" stroke-dasharray="3"/></g><g transform="translate(-54,-46) scale(1,1)"><path fill="#C0C0C0" stroke="none" d="M 297 183 L 388 183 Q 398 183 398 193 L 398 213 Q 398 223 388 223 L 297 223 Q 287 223 287 213 L 287 193 Q 287 183 297 183 Z" opacity="0.2"/></g><g transform="translate(-54,-46) scale(1,1)"><path fill="#ffffff" stroke="none" d="M 290 176 L 381 176 Q 391 176 391 186 L 391 206 Q 391 216 381 216 L 290 216 Q 280 216 280 206 L 280 186 Q 280 176 290 176 Z"/></g><g transform="translate(-54,-46) scale(1,1)"><path fill="none" stroke="#000000" d="M 290 176 L 381 176 Q 391 176 391 186 L 391 206 Q 391 216 381 216 L 290 216 Q 280 216 280 206 L 280 186 Q 280 176 290 176 Z" stroke-miterlimit="10"/></g><g transform="translate(-54,-46) scale(1,1)"><g><path fill="none" stroke="none"/><text fill="#000000" stroke="none" font-family="Arial" font-size="13px" font-style="normal" font-weight="bold" text-decoration="none" x="296.5" y="195.5">启动界面等等</text></g></g><g transform="translate(-54,-46) scale(1,1)"><path fill="none" stroke="#000000" d="M 323 139 L 323 176" stroke-miterlimit="10"/></g><g transform="translate(-54,-46) scale(1,1)"><path fill="none" stroke="#000000" d="M 318.790482243984 165.83732514237585 L 323 176 L 327.209517756016 165.83732514237585" stroke-miterlimit="10"/></g><g transform="translate(-54,-46) scale(1,1)"><path fill="#C0C0C0" stroke="none" d="M 241 1143 L 380 1143 Q 390 1143 390 1153 L 390 1173 Q 390 1183 380 1183 L 241 1183 Q 231 1183 231 1173 L 231 1153 Q 231 1143 241 1143 Z" opacity="0.2"/></g><g transform="translate(-54,-46) scale(1,1)"><path fill="#d8e5ff" stroke="none" d="M 234 1136 L 373 1136 Q 383 1136 383 1146 L 383 1166 Q 383 1176 373 1176 L 234 1176 Q 224 1176 224 1166 L 224 1146 Q 224 1136 234 1136 Z"/></g><g transform="translate(-54,-46) scale(1,1)"><path fill="none" stroke="#000000" d="M 234 1136 L 373 1136 Q 383 1136 383 1146 L 383 1166 Q 383 1176 373 1176 L 234 1176 Q 224 1176 224 1166 L 224 1146 Q 224 1136 234 1136 Z" stroke-miterlimit="10"/></g><g transform="translate(-54,-46) scale(1,1)"><g><path fill="none" stroke="none"/><text fill="#000000" stroke="none" font-family="Arial" font-size="13px" font-style="normal" font-weight="bold" text-decoration="none" x="251.5" y="1155.5">用户拖拽电学元件</text></g></g><g transform="translate(-54,-46) scale(1,1)"><path fill="#C0C0C0" stroke="none" d="M 289 1015 L 412 1015 Q 422 1015 422 1025 L 422 1052 Q 422 1062 412 1062 L 289 1062 Q 279 1062 279 1052 L 279 1025 Q 279 1015 289 1015 Z" opacity="0.2"/></g><g transform="translate(-54,-46) scale(1,1)"><path fill="#ffd8d8" stroke="none" d="M 282 1008 L 405 1008 Q 415 1008 415 1018 L 415 1045 Q 415 1055 405 1055 L 282 1055 Q 272 1055 272 1045 L 272 1018 Q 272 1008 282 1008 Z"/></g><g transform="translate(-54,-46) scale(1,1)"><path fill="none" stroke="#000000" d="M 282 1008 L 405 1008 Q 415 1008 415 1018 L 415 1045 Q 415 1055 405 1055 L 282 1055 Q 272 1055 272 1045 L 272 1018 Q 272 1008 282 1008 Z" stroke-miterlimit="10"/></g><g transform="translate(-54,-46) scale(1,1)"><g><path fill="none" stroke="none"/><text fill="#000000" stroke="none" font-family="Arial" font-size="13px" font-style="normal" font-weight="bold" text-decoration="none" x="304.5" y="1027.5">等待用户交互</text></g></g><g transform="translate(-54,-46) scale(1,1)"><path fill="#C0C0C0" stroke="none" d="M 154 1095 L 228 1095 Q 231 1095 231 1098 L 231 1097 Q 231 1100 228 1100 L 154 1100 Q 151 1100 151 1097 L 151 1098 Q 151 1095 154 1095 Z" opacity="0.2"/></g><g transform="translate(-54,-46) scale(1,1)"><path fill="#000000" stroke="none" d="M 147 1088 L 221 1088 Q 224 1088 224 1091 L 224 1091 Q 224 1094 221 1094 L 147 1094 Q 144 1094 144 1091 L 144 1091 Q 144 1088 147 1088 Z"/></g><g transform="translate(-54,-46) scale(1,1)"><path fill="none" stroke="#000000" d="M 338 1055 L 338 1056 M 338 1056 A 8 8 0 0 1 330 1064 L 192 1064 M 192 1064 A 8 8 0 0 0 184 1072 L 184 1088" stroke-miterlimit="10"/></g><g transform="translate(-54,-46) scale(1,1)"><path fill="none" stroke="#000000" d="M 179.790482243984 1077.837325142376 L 184 1088 L 188.209517756016 1077.837325142376" stroke-miterlimit="10"/></g><g transform="translate(-54,-46) scale(1,1)"><path fill="none" stroke="#000000" d="M 192 1093 L 192 1144 M 192 1144 A 8 8 0 0 0 200 1152 L 224 1152" stroke-miterlimit="10"/></g><g transform="translate(-54,-46) scale(1,1)"><path fill="none" stroke="#000000" d="M 213.83732514237585 1156.2095177560159 L 224 1152 L 213.83732514237585 1147.7904822439841" stroke-miterlimit="10"/></g><g transform="translate(-54,-46) scale(1,1)"><path fill="#C0C0C0" stroke="none" d="M 425 1143 L 564 1143 Q 574 1143 574 1153 L 574 1173 Q 574 1183 564 1183 L 425 1183 Q 415 1183 415 1173 L 415 1153 Q 415 1143 425 1143 Z" opacity="0.2"/></g><g transform="translate(-54,-46) scale(1,1)"><path fill="#d8e5ff" stroke="none" d="M 418 1136 L 557 1136 Q 567 1136 567 1146 L 567 1166 Q 567 1176 557 1176 L 418 1176 Q 408 1176 408 1166 L 408 1146 Q 408 1136 418 1136 Z"/></g><g transform="translate(-54,-46) scale(1,1)"><path fill="none" stroke="#000000" d="M 418 1136 L 557 1136 Q 567 1136 567 1146 L 567 1166 Q 567 1176 557 1176 L 418 1176 Q 408 1176 408 1166 L 408 1146 Q 408 1136 418 1136 Z" stroke-miterlimit="10"/></g><g transform="translate(-54,-46) scale(1,1)"><g><path fill="none" stroke="none"/><text fill="#000000" stroke="none" font-family="Arial" font-size="13px" font-style="normal" font-weight="bold" text-decoration="none" x="435.5" y="1155.5">电学元件位置变化</text></g></g><g transform="translate(-54,-46) scale(1,1)"><path fill="none" stroke="#000000" d="M 383 1156 L 408 1156" stroke-miterlimit="10"/></g><g transform="translate(-54,-46) scale(1,1)"><path fill="none" stroke="#000000" d="M 397.83732514237585 1160.2095177560159 L 408 1156 L 397.83732514237585 1151.7904822439841" stroke-miterlimit="10"/></g><g transform="translate(-54,-46) scale(1,1)"><path fill="#C0C0C0" stroke="none" d="M 233 1231 L 487.078125 1231 Q 497.078125 1231 497.078125 1241 L 497.078125 1261 Q 497.078125 1271 487.078125 1271 L 233 1271 Q 223 1271 223 1261 L 223 1241 Q 223 1231 233 1231 Z" opacity="0.2"/></g><g transform="translate(-54,-46) scale(1,1)"><path fill="#ffd8ff" stroke="none" d="M 226 1224 L 480.078125 1224 Q 490.078125 1224 490.078125 1234 L 490.078125 1254 Q 490.078125 1264 480.078125 1264 L 226 1264 Q 216 1264 216 1254 L 216 1234 Q 216 1224 226 1224 Z"/></g><g transform="translate(-54,-46) scale(1,1)"><path fill="none" stroke="#000000" d="M 226 1224 L 480.078125 1224 Q 490.078125 1224 490.078125 1234 L 490.078125 1254 Q 490.078125 1264 480.078125 1264 L 226 1264 Q 216 1264 216 1254 L 216 1234 Q 216 1224 226 1224 Z" stroke-miterlimit="10"/></g><g transform="translate(-54,-46) scale(1,1)"><g><path fill="none" stroke="none"/><text fill="#000000" stroke="none" font-family="Arial" font-size="13px" font-style="normal" font-weight="bold" text-decoration="none" x="223.0390625" y="1243.5">与电学元件进行交互（如开关，互动变阻器）</text></g></g><g transform="translate(-54,-46) scale(1,1)"><path fill="none" stroke="#000000" d="M 184 1093 L 184 1232 M 184 1232 A 8 8 0 0 0 192 1240 L 216 1240" stroke-miterlimit="10"/></g><g transform="translate(-54,-46) scale(1,1)"><path fill="none" stroke="#000000" d="M 205.83732514237585 1244.2095177560159 L 216 1240 L 205.83732514237585 1235.7904822439841" stroke-miterlimit="10"/></g><g transform="translate(-54,-46) scale(1,1)"><path fill="#C0C0C0" stroke="none" d="M 297 863 L 498.0625 863 Q 508.0625 863 508.0625 873 L 508.0625 893 Q 508.0625 903 498.0625 903 L 297 903 Q 287 903 287 893 L 287 873 Q 287 863 297 863 Z" opacity="0.2"/></g><g transform="translate(-54,-46) scale(1,1)"><path fill="#ebffd8" stroke="none" d="M 290 856 L 491.0625 856 Q 501.0625 856 501.0625 866 L 501.0625 886 Q 501.0625 896 491.0625 896 L 290 896 Q 280 896 280 886 L 280 866 Q 280 856 290 856 Z"/></g><g transform="translate(-54,-46) scale(1,1)"><path fill="none" stroke="#000000" d="M 290 856 L 491.0625 856 Q 501.0625 856 501.0625 866 L 501.0625 886 Q 501.0625 896 491.0625 896 L 290 896 Q 280 896 280 886 L 280 866 Q 280 856 290 856 Z" stroke-miterlimit="10"/></g><g transform="translate(-54,-46) scale(1,1)"><g><path fill="none" stroke="none"/><text fill="#000000" stroke="none" font-family="Arial" font-size="13px" font-style="normal" font-weight="bold" text-decoration="none" x="299.53125" y="875.5">计算每个电学元件的电流电压等</text></g></g><g transform="translate(-54,-46) scale(1,1)"><path fill="#C0C0C0" stroke="none" d="M 578 1103 L 684 1103 Q 687 1103 687 1106 L 687 1105 Q 687 1108 684 1108 L 578 1108 Q 575 1108 575 1105 L 575 1106 Q 575 1103 578 1103 Z" opacity="0.2"/></g><g transform="translate(-54,-46) scale(1,1)"><path fill="#000000" stroke="none" d="M 571 1096 L 677 1096 Q 680 1096 680 1099 L 680 1099 Q 680 1102 677 1102 L 571 1102 Q 568 1102 568 1099 L 568 1099 Q 568 1096 571 1096 Z"/></g><g transform="translate(-54,-46) scale(1,1)"><path fill="none" stroke="#000000" d="M 567 1160 L 600 1160 M 600 1160 A 8 8 0 0 0 608 1152 L 608 1101" stroke-miterlimit="10"/></g><g transform="translate(-54,-46) scale(1,1)"><path fill="none" stroke="#000000" d="M 612.209517756016 1111.162674857624 L 608 1101 L 603.790482243984 1111.162674857624" stroke-miterlimit="10"/></g><g transform="translate(-54,-46) scale(1,1)"><path fill="none" stroke="#000000" d="M 640 1096 L 640 1040 M 640 1040 A 8 8 0 0 0 632 1032 L 415 1032" stroke-miterlimit="10"/></g><g transform="translate(-54,-46) scale(1,1)"><path fill="none" stroke="#000000" d="M 425.16267485762415 1027.7904822439841 L 415 1032 L 425.16267485762415 1036.2095177560159" stroke-miterlimit="10"/></g><g transform="translate(-54,-46) scale(1,1)"><path fill="#C0C0C0" stroke="none" d="M 313 927 L 405 927 Q 415 927 415 937 L 415 957 Q 415 967 405 967 L 313 967 Q 303 967 303 957 L 303 937 Q 303 927 313 927 Z" opacity="0.2"/></g><g transform="translate(-54,-46) scale(1,1)"><path fill="#ebffd8" stroke="none" d="M 306 920 L 398 920 Q 408 920 408 930 L 408 950 Q 408 960 398 960 L 306 960 Q 296 960 296 950 L 296 930 Q 296 920 306 920 Z"/></g><g transform="translate(-54,-46) scale(1,1)"><path fill="none" stroke="#000000" d="M 306 920 L 398 920 Q 408 920 408 930 L 408 950 Q 408 960 398 960 L 306 960 Q 296 960 296 950 L 296 930 Q 296 920 306 920 Z" stroke-miterlimit="10"/></g><g transform="translate(-54,-46) scale(1,1)"><g><path fill="none" stroke="none"/><text fill="#000000" stroke="none" font-family="Arial" font-size="13px" font-style="normal" font-weight="bold" text-decoration="none" x="313" y="939.5">显示电流情况</text></g></g><g transform="translate(-54,-46) scale(1,1)"><path fill="none" stroke="#000000" d="M 352 896 L 352 920" stroke-miterlimit="10"/></g><g transform="translate(-54,-46) scale(1,1)"><path fill="none" stroke="#000000" d="M 347.790482243984 909.8373251423759 L 352 920 L 356.209517756016 909.8373251423759" stroke-miterlimit="10"/></g><g transform="translate(-54,-46) scale(1,1)"><path fill="#C0C0C0" stroke="none" d="M 225 1311 L 452 1311 Q 462 1311 462 1321 L 462 1341 Q 462 1351 452 1351 L 225 1351 Q 215 1351 215 1341 L 215 1321 Q 215 1311 225 1311 Z" opacity="0.2"/></g><g transform="translate(-54,-46) scale(1,1)"><path fill="#ffffd8" stroke="none" d="M 218 1304 L 445 1304 Q 455 1304 455 1314 L 455 1334 Q 455 1344 445 1344 L 218 1344 Q 208 1344 208 1334 L 208 1314 Q 208 1304 218 1304 Z"/></g><g transform="translate(-54,-46) scale(1,1)"><path fill="none" stroke="#000000" d="M 218 1304 L 445 1304 Q 455 1304 455 1314 L 455 1334 Q 455 1344 445 1344 L 218 1344 Q 208 1344 208 1334 L 208 1314 Q 208 1304 218 1304 Z" stroke-miterlimit="10"/></g><g transform="translate(-54,-46) scale(1,1)"><g><path fill="none" stroke="none"/><text fill="#000000" stroke="none" font-family="Arial" font-size="13px" font-style="normal" font-weight="bold" text-decoration="none" x="305.5" y="1323.5">点击导线</text></g></g><g transform="translate(-54,-46) scale(1,1)"><path fill="none" stroke="#000000" d="M 176 1093 L 176 1316 M 176 1316 A 8 8 0 0 0 184 1324 L 208 1324" stroke-miterlimit="10"/></g><g transform="translate(-54,-46) scale(1,1)"><path fill="none" stroke="#000000" d="M 197.83732514237585 1328.2095177560159 L 208 1324 L 197.83732514237585 1319.7904822439841" stroke-miterlimit="10"/></g><g transform="translate(-54,-46) scale(1,1)"><path fill="#C0C0C0" stroke="none" d="M 225 1391 L 545.09375 1391 Q 555.09375 1391 555.09375 1401 L 555.09375 1421 Q 555.09375 1431 545.09375 1431 L 225 1431 Q 215 1431 215 1421 L 215 1401 Q 215 1391 225 1391 Z" opacity="0.2"/></g><g transform="translate(-54,-46) scale(1,1)"><path fill="#ffffd8" stroke="none" d="M 218 1384 L 538.09375 1384 Q 548.09375 1384 548.09375 1394 L 548.09375 1414 Q 548.09375 1424 538.09375 1424 L 218 1424 Q 208 1424 208 1414 L 208 1394 Q 208 1384 218 1384 Z"/></g><g transform="translate(-54,-46) scale(1,1)"><path fill="none" stroke="#000000" d="M 218 1384 L 538.09375 1384 Q 548.09375 1384 548.09375 1394 L 548.09375 1414 Q 548.09375 1424 538.09375 1424 L 218 1424 Q 208 1424 208 1414 L 208 1394 Q 208 1384 218 1384 Z" stroke-miterlimit="10"/></g><g transform="translate(-54,-46) scale(1,1)"><g><path fill="none" stroke="none"/><text fill="#000000" stroke="none" font-family="Arial" font-size="13px" font-style="normal" font-weight="bold" text-decoration="none" x="215.546875" y="1403.5">屏幕边缘弹出电路组件列表UI（灯泡，导线，开关等等）</text></g></g><g transform="translate(-54,-46) scale(1,1)"><path fill="none" stroke="#000000" d="M 350 1344 L 350 1384" stroke-miterlimit="10"/></g><g transform="translate(-54,-46) scale(1,1)"><path fill="none" stroke="#000000" d="M 345.790482243984 1373.837325142376 L 350 1384 L 354.209517756016 1373.837325142376" stroke-miterlimit="10"/></g><g transform="translate(-54,-46) scale(1,1)"><path fill="#C0C0C0" stroke="none" d="M 295 1472.5 L 330.5 1463 L 365 1472.5 L 330.5 1481 L 295 1472.5" opacity="0.2"/></g><g transform="translate(-54,-46) scale(1,1)"><path fill="#ffffd8" stroke="none" d="M 288 1465 L 323 1456 L 358 1465 L 323 1474 L 288 1465"/></g><g transform="translate(-54,-46) scale(1,1)"><path fill="none" stroke="#000000" d="M 288 1465 L 323 1456 L 358 1465 L 323 1474 L 288 1465 L 288 1465" stroke-miterlimit="10"/></g><g transform="translate(-54,-46) scale(1,1)"><path fill="none" stroke="#000000" d="M 328 1424 L 328 1456" stroke-miterlimit="10"/></g><g transform="translate(-54,-46) scale(1,1)"><path fill="none" stroke="#000000" d="M 323.790482243984 1445.837325142376 L 328 1456 L 332.209517756016 1445.837325142376" stroke-miterlimit="10"/></g><g transform="translate(-54,-46) scale(1,1)"><path fill="#C0C0C0" stroke="none" d="M 217 1527 L 484 1527 Q 494 1527 494 1537 L 494 1557 Q 494 1567 484 1567 L 217 1567 Q 207 1567 207 1557 L 207 1537 Q 207 1527 217 1527 Z" opacity="0.2"/></g><g transform="translate(-54,-46) scale(1,1)"><path fill="#ffffd8" stroke="none" d="M 210 1520 L 477 1520 Q 487 1520 487 1530 L 487 1550 Q 487 1560 477 1560 L 210 1560 Q 200 1560 200 1550 L 200 1530 Q 200 1520 210 1520 Z"/></g><g transform="translate(-54,-46) scale(1,1)"><path fill="none" stroke="#000000" d="M 210 1520 L 477 1520 Q 487 1520 487 1530 L 487 1550 Q 487 1560 477 1560 L 210 1560 Q 200 1560 200 1550 L 200 1530 Q 200 1520 210 1520 Z" stroke-miterlimit="10"/></g><g transform="translate(-54,-46) scale(1,1)"><g><path fill="none" stroke="none"/><text fill="#000000" stroke="none" font-family="Arial" font-size="13px" font-style="normal" font-weight="bold" text-decoration="none" x="265.5" y="1539.5">在该导线上增加对应的组件</text></g></g><g transform="translate(-54,-46) scale(1,1)"><path fill="none" stroke="#000000" d="M 328 1474 L 328 1520" stroke-miterlimit="10"/></g><g transform="translate(-54,-46) scale(1,1)"><path fill="none" stroke="#000000" d="M 323.790482243984 1509.837325142376 L 328 1520 L 332.209517756016 1509.837325142376" stroke-miterlimit="10"/></g><g transform="translate(-54,-46) scale(1,1)"><g><path fill="none" stroke="none"/><text fill="#000000" stroke="none" font-family="Arial" font-size="13px" font-style="normal" font-weight="normal" text-decoration="none" x="208.5" y="1500.5">点击某一电学元件</text></g></g><g transform="translate(-54,-46) scale(1,1)"><path fill="#C0C0C0" stroke="none" d="M 217 1623 L 484 1623 Q 494 1623 494 1633 L 494 1653 Q 494 1663 484 1663 L 217 1663 Q 207 1663 207 1653 L 207 1633 Q 207 1623 217 1623 Z" opacity="0.2"/></g><g transform="translate(-54,-46) scale(1,1)"><path fill="#d8ffeb" stroke="none" d="M 210 1616 L 477 1616 Q 487 1616 487 1626 L 487 1646 Q 487 1656 477 1656 L 210 1656 Q 200 1656 200 1646 L 200 1626 Q 200 1616 210 1616 Z"/></g><g transform="translate(-54,-46) scale(1,1)"><path fill="none" stroke="#000000" d="M 210 1616 L 477 1616 Q 487 1616 487 1626 L 487 1646 Q 487 1656 477 1656 L 210 1656 Q 200 1656 200 1646 L 200 1626 Q 200 1616 210 1616 Z" stroke-miterlimit="10"/></g><g transform="translate(-54,-46) scale(1,1)"><g><path fill="none" stroke="none"/><text fill="#000000" stroke="none" font-family="Arial" font-size="13px" font-style="normal" font-weight="bold" text-decoration="none" x="233" y="1635.5">点击普通电学元件（灯泡，开关等等）</text></g></g><g transform="translate(-54,-46) scale(1,1)"><path fill="#C0C0C0" stroke="none" d="M 209 1695 L 529.09375 1695 Q 539.09375 1695 539.09375 1705 L 539.09375 1725 Q 539.09375 1735 529.09375 1735 L 209 1735 Q 199 1735 199 1725 L 199 1705 Q 199 1695 209 1695 Z" opacity="0.2"/></g><g transform="translate(-54,-46) scale(1,1)"><path fill="#d8ffeb" stroke="none" d="M 202 1688 L 522.09375 1688 Q 532.09375 1688 532.09375 1698 L 532.09375 1718 Q 532.09375 1728 522.09375 1728 L 202 1728 Q 192 1728 192 1718 L 192 1698 Q 192 1688 202 1688 Z"/></g><g transform="translate(-54,-46) scale(1,1)"><path fill="none" stroke="#000000" d="M 202 1688 L 522.09375 1688 Q 532.09375 1688 532.09375 1698 L 532.09375 1718 Q 532.09375 1728 522.09375 1728 L 202 1728 Q 192 1728 192 1718 L 192 1698 Q 192 1688 202 1688 Z" stroke-miterlimit="10"/></g><g transform="translate(-54,-46) scale(1,1)"><g><path fill="none" stroke="none"/><text fill="#000000" stroke="none" font-family="Arial" font-size="13px" font-style="normal" font-weight="bold" text-decoration="none" x="199.546875" y="1707.5">屏幕边缘弹出电学元件列表UI（灯泡，导线，开关等等）</text></g></g><g transform="translate(-54,-46) scale(1,1)"><path fill="#C0C0C0" stroke="none" d="M 279 1799 L 328.5 1775 L 377 1799 L 328.5 1822 L 279 1799" opacity="0.2"/></g><g transform="translate(-54,-46) scale(1,1)"><path fill="#d8ffeb" stroke="none" d="M 272 1791.5 L 321 1768 L 370 1791.5 L 321 1815 L 272 1791.5"/></g><g transform="translate(-54,-46) scale(1,1)"><path fill="none" stroke="#000000" d="M 272 1791.5 L 321 1768 L 370 1791.5 L 321 1815 L 272 1791.5 L 272 1791.5" stroke-miterlimit="10"/></g><g transform="translate(-54,-46) scale(1,1)"><path fill="none" stroke="#000000" d="M 168 1093 L 168 1628 M 168 1628 A 8 8 0 0 0 176 1636 L 200 1636" stroke-miterlimit="10"/></g><g transform="translate(-54,-46) scale(1,1)"><path fill="none" stroke="#000000" d="M 189.83732514237585 1640.2095177560159 L 200 1636 L 189.83732514237585 1631.7904822439841" stroke-miterlimit="10"/></g><g transform="translate(-54,-46) scale(1,1)"><path fill="none" stroke="#000000" d="M 320 1728 L 320 1768" stroke-miterlimit="10"/></g><g transform="translate(-54,-46) scale(1,1)"><path fill="none" stroke="#000000" d="M 315.790482243984 1757.837325142376 L 320 1768 L 324.209517756016 1757.837325142376" stroke-miterlimit="10"/></g><g transform="translate(-54,-46) scale(1,1)"><path fill="#C0C0C0" stroke="none" d="M 265 1871 L 373.28515625 1871 Q 383.28515625 1871 383.28515625 1881 L 383.28515625 1901 Q 383.28515625 1911 373.28515625 1911 L 265 1911 Q 255 1911 255 1901 L 255 1881 Q 255 1871 265 1871 Z" opacity="0.2"/></g><g transform="translate(-54,-46) scale(1,1)"><path fill="#d8ffeb" stroke="none" d="M 258 1864 L 366.28515625 1864 Q 376.28515625 1864 376.28515625 1874 L 376.28515625 1894 Q 376.28515625 1904 366.28515625 1904 L 258 1904 Q 248 1904 248 1894 L 248 1874 Q 248 1864 258 1864 Z"/></g><g transform="translate(-54,-46) scale(1,1)"><path fill="none" stroke="#000000" d="M 258 1864 L 366.28515625 1864 Q 376.28515625 1864 376.28515625 1874 L 376.28515625 1894 Q 376.28515625 1904 366.28515625 1904 L 258 1904 Q 248 1904 248 1894 L 248 1874 Q 248 1864 258 1864 Z" stroke-miterlimit="10"/></g><g transform="translate(-54,-46) scale(1,1)"><g><path fill="none" stroke="none"/><text fill="#000000" stroke="none" font-family="Arial" font-size="13px" font-style="normal" font-weight="bold" text-decoration="none" x="253.642578125" y="1883.5">替换相应的电学元件</text></g></g><g transform="translate(-54,-46) scale(1,1)"><path fill="#C0C0C0" stroke="none" d="M 770 927 L 891 927 Q 894 927 894 930 L 894 929 Q 894 932 891 932 L 770 932 Q 767 932 767 929 L 767 930 Q 767 927 770 927 Z" opacity="0.2"/></g><g transform="translate(-54,-46) scale(1,1)"><path fill="#000000" stroke="none" d="M 763 920 L 884 920 Q 887 920 887 923 L 887 923 Q 887 926 884 926 L 763 926 Q 760 926 760 923 L 760 923 Q 760 920 763 920 Z"/></g><g transform="translate(-54,-46) scale(1,1)"><path fill="none" stroke="#000000" d="M 823 920 L 823 884 M 823 884 A 8 8 0 0 0 815 876 L 501 876" stroke-miterlimit="10"/></g><g transform="translate(-54,-46) scale(1,1)"><path fill="none" stroke="#000000" d="M 511.16267485762415 871.790482243984 L 501 876 L 511.16267485762415 880.209517756016" stroke-miterlimit="10"/></g><g transform="translate(-54,-46) scale(1,1)"><path fill="none" stroke="#000000" d="M 490 1248 L 791 1248 M 791 1248 A 8 8 0 0 0 799 1240 L 799 925" stroke-miterlimit="10"/></g><g transform="translate(-54,-46) scale(1,1)"><path fill="none" stroke="#000000" d="M 803.209517756016 935.1626748576241 L 799 925 L 794.790482243984 935.1626748576241" stroke-miterlimit="10"/></g><g transform="translate(-54,-46) scale(1,1)"><path fill="none" stroke="#000000" d="M 487 1544 L 808 1544 M 808 1544 A 8 8 0 0 0 816 1536 L 816 925" stroke-miterlimit="10"/></g><g transform="translate(-54,-46) scale(1,1)"><path fill="none" stroke="#000000" d="M 820.209517756016 935.1626748576241 L 816 925 L 811.790482243984 935.1626748576241" stroke-miterlimit="10"/></g><g transform="translate(-54,-46) scale(1,1)"><path fill="none" stroke="#000000" d="M 358 1464 L 616 1464 M 616 1464 A 8 8 0 0 0 624 1456 L 624 1101" stroke-miterlimit="10"/></g><g transform="translate(-54,-46) scale(1,1)"><path fill="none" stroke="#000000" d="M 628.209517756016 1111.162674857624 L 624 1101 L 619.790482243984 1111.162674857624" stroke-miterlimit="10"/></g><g transform="translate(-54,-46) scale(1,1)"><g><path fill="none" stroke="none"/><text fill="#000000" stroke="none" font-family="Arial" font-size="13px" font-style="normal" font-weight="normal" text-decoration="none" x="502.5" y="1484.5">取消</text></g></g><g transform="translate(-54,-46) scale(1,1)"><path fill="none" stroke="#000000" d="M 370 1792 L 624 1792 M 624 1792 A 8 8 0 0 0 632 1784 L 632 1101" stroke-miterlimit="10"/></g><g transform="translate(-54,-46) scale(1,1)"><path fill="none" stroke="#000000" d="M 636.209517756016 1111.162674857624 L 632 1101 L 627.790482243984 1111.162674857624" stroke-miterlimit="10"/></g><g transform="translate(-54,-46) scale(1,1)"><g><path fill="none" stroke="none"/><text fill="#000000" stroke="none" font-family="Arial" font-size="13px" font-style="normal" font-weight="normal" text-decoration="none" x="399.5" y="1812.5">取消</text></g></g><g transform="translate(-54,-46) scale(1,1)"><path fill="none" stroke="#000000" d="M 350 960 L 350 1008" stroke-miterlimit="10"/></g><g transform="translate(-54,-46) scale(1,1)"><path fill="none" stroke="#000000" d="M 345.790482243984 997.8373251423759 L 350 1008 L 354.209517756016 997.8373251423759" stroke-miterlimit="10"/></g><g transform="translate(-54,-46) scale(1,1)"><path fill="none" stroke="#000000" d="M 382 824 L 382 856" stroke-miterlimit="10"/></g><g transform="translate(-54,-46) scale(1,1)"><path fill="none" stroke="#000000" d="M 377.790482243984 845.8373251423759 L 382 856 L 386.209517756016 845.8373251423759" stroke-miterlimit="10"/></g><g transform="translate(-54,-46) scale(1,1)"><path fill="none" stroke="#000000" d="M 319 1815 L 319 1864" stroke-miterlimit="10"/></g><g transform="translate(-54,-46) scale(1,1)"><path fill="none" stroke="#000000" d="M 314.790482243984 1853.837325142376 L 319 1864 L 323.209517756016 1853.837325142376" stroke-miterlimit="10"/></g><g transform="translate(-54,-46) scale(1,1)"><g><path fill="none" stroke="none"/><text fill="#000000" stroke="none" font-family="Arial" font-size="13px" font-style="normal" font-weight="normal" text-decoration="none" x="191.5" y="1843.5">点击UI上的电学元件</text></g></g><g transform="translate(-54,-46) scale(1,1)"><path fill="none" stroke="#000000" d="M 376 1880 L 824 1880 M 824 1880 A 8 8 0 0 0 832 1872 L 832 925" stroke-miterlimit="10"/></g><g transform="translate(-54,-46) scale(1,1)"><path fill="none" stroke="#000000" d="M 836.209517756016 935.1626748576241 L 832 925 L 827.790482243984 935.1626748576241" stroke-miterlimit="10"/></g><g transform="translate(-54,-46) scale(1,1)"><path fill="#ffffff" stroke="none" d="M 64 56 L 356 56 L 366 66 L 366 94 L 64 94 L 64 56"/></g><g transform="translate(-54,-46) scale(1,1)"><path fill="none" stroke="#000000" d="M 64 56 L 356 56 L 366 66 L 366 94 L 64 94 L 64 56 L 64 56" stroke-miterlimit="10"/></g><g transform="translate(-54,-46) scale(1,1)"><path fill="none" stroke="#000000" d="M 356 56 L 356 66 L 366 66 L 356 56" stroke-miterlimit="10"/></g><g transform="translate(-54,-46) scale(1,1)"><g><path fill="none" stroke="none"/><text fill="#000000" stroke="none" font-family="Arial" font-size="13px" font-style="normal" font-weight="normal" text-decoration="none" x="69" y="74">方案二详细活动流程图</text></g></g><g transform="translate(-54,-46) scale(1,1)"><path fill="#C0C0C0" stroke="none" d="M 233 1943 L 380 1943 Q 390 1943 390 1953 L 390 1973 Q 390 1983 380 1983 L 233 1983 Q 223 1983 223 1973 L 223 1953 Q 223 1943 233 1943 Z" opacity="0.2"/></g><g transform="translate(-54,-46) scale(1,1)"><path fill="#e2e2e2" stroke="none" d="M 226 1936 L 373 1936 Q 383 1936 383 1946 L 383 1966 Q 383 1976 373 1976 L 226 1976 Q 216 1976 216 1966 L 216 1946 Q 216 1936 226 1936 Z"/></g><g transform="translate(-54,-46) scale(1,1)"><path fill="none" stroke="#000000" d="M 226 1936 L 373 1936 Q 383 1936 383 1946 L 383 1966 Q 383 1976 373 1976 L 226 1976 Q 216 1976 216 1966 L 216 1946 Q 216 1936 226 1936 Z" stroke-miterlimit="10"/></g><g transform="translate(-54,-46) scale(1,1)"><g><path fill="none" stroke="none"/><text fill="#000000" stroke="none" font-family="Arial" font-size="13px" font-style="normal" font-weight="bold" text-decoration="none" x="286.5" y="1955.5">退出</text></g></g><g transform="translate(-54,-46) scale(1,1)"><path fill="#C0C0C0" stroke="none" d="M 295 2051.5 C 295 2044.59644 300.59644 2039 307.5 2039 C 314.40356 2039 320 2044.59644 320 2051.5 C 320 2058.40356 314.40356 2064 307.5 2064 C 300.59644 2064 295 2058.40356 295 2051.5 Z" opacity="0.2"/></g><g transform="translate(-54,-46) scale(1,1)"><path fill="none" stroke="#000000" d="M 288 2044.5 C 288 2037.59644 293.59644 2032 300.5 2032 C 307.40356 2032 313 2037.59644 313 2044.5 C 313 2051.40356 307.40356 2057 300.5 2057 C 293.59644 2057 288 2051.40356 288 2044.5 Z" stroke-miterlimit="10"/></g><g transform="translate(-54,-46) scale(1,1)"><path fill="#000000" stroke="none" d="M 293 2044.5 C 293 2040.357864 296.357864 2037 300.5 2037 C 304.642136 2037 308 2040.357864 308 2044.5 C 308 2048.642136 304.642136 2052 300.5 2052 C 296.357864 2052 293 2048.642136 293 2044.5 Z"/></g><g transform="translate(-54,-46) scale(1,1)"><path fill="none" stroke="#000000" d="M 160 1093 L 160 1952 M 160 1952 A 8 8 0 0 0 168 1960 L 216 1960" stroke-miterlimit="10"/></g><g transform="translate(-54,-46) scale(1,1)"><path fill="none" stroke="#000000" d="M 205.83732514237585 1964.2095177560159 L 216 1960 L 205.83732514237585 1955.7904822439841" stroke-miterlimit="10"/></g><g transform="translate(-54,-46) scale(1,1)"><path fill="none" stroke="#000000" d="M 299 1976 L 299 2032" stroke-miterlimit="10"/></g><g transform="translate(-54,-46) scale(1,1)"><path fill="none" stroke="#000000" d="M 294.790482243984 2021.837325142376 L 299 2032 L 303.209517756016 2021.837325142376" stroke-miterlimit="10"/></g><g transform="translate(-54,-46) scale(1,1)"><path fill="#C0C0C0" stroke="none" d="M 289 255 L 380 255 Q 390 255 390 265 L 390 285 Q 390 295 380 295 L 289 295 Q 279 295 279 285 L 279 265 Q 279 255 289 255 Z" opacity="0.2"/></g><g transform="translate(-54,-46) scale(1,1)"><path fill="#ffffff" stroke="none" d="M 282 248 L 373 248 Q 383 248 383 258 L 383 278 Q 383 288 373 288 L 282 288 Q 272 288 272 278 L 272 258 Q 272 248 282 248 Z"/></g><g transform="translate(-54,-46) scale(1,1)"><path fill="none" stroke="#000000" d="M 282 248 L 373 248 Q 383 248 383 258 L 383 278 Q 383 288 373 288 L 282 288 Q 272 288 272 278 L 272 258 Q 272 248 282 248 Z" stroke-miterlimit="10"/></g><g transform="translate(-54,-46) scale(1,1)"><g><path fill="none" stroke="none"/><text fill="#000000" stroke="none" font-family="Arial" font-size="13px" font-style="normal" font-weight="bold" text-decoration="none" x="295" y="267.5">主页UI界面</text></g></g><g transform="translate(-54,-46) scale(1,1)"><path fill="none" stroke="#000000" d="M 321 216 L 321 248" stroke-miterlimit="10"/></g><g transform="translate(-54,-46) scale(1,1)"><path fill="none" stroke="#000000" d="M 316.790482243984 237.83732514237585 L 321 248 L 325.209517756016 237.83732514237585" stroke-miterlimit="10"/></g><g transform="translate(-54,-46) scale(1,1)"><path fill="#ffffff" stroke="none" d="M 432 160 L 877 160 L 887 170 L 887 243 L 432 243 L 432 160"/></g><g transform="translate(-54,-46) scale(1,1)"><path fill="none" stroke="#000000" d="M 432 160 L 877 160 L 887 170 L 887 243 L 432 243 L 432 160 L 432 160" stroke-miterlimit="10"/></g><g transform="translate(-54,-46) scale(1,1)"><path fill="none" stroke="#000000" d="M 877 160 L 877 170 L 887 170 L 877 160" stroke-miterlimit="10"/></g><g transform="translate(-54,-46) scale(1,1)"><g><path fill="none" stroke="none"/><text fill="#000000" stroke="none" font-family="Arial" font-size="13px" font-style="normal" font-weight="normal" text-decoration="none" x="437" y="178">UI主要为：</text></g></g><g transform="translate(-54,-46) scale(1,1)"><g><path fill="none" stroke="none"/><text fill="#000000" stroke="none" font-family="Arial" font-size="13px" font-style="normal" font-weight="normal" text-decoration="none" x="437" y="193">1：一张体现此应用特色的静态图片或者动效图片；</text></g></g><g transform="translate(-54,-46) scale(1,1)"><g><path fill="none" stroke="none"/><text fill="#000000" stroke="none" font-family="Arial" font-size="13px" font-style="normal" font-weight="normal" text-decoration="none" x="437" y="208">2：若干按钮：“开始体验”、“使用帮助”、、“开发者信息”、“退出”；</text></g></g><g transform="translate(-54,-46) scale(1,1)"><path fill="none" stroke="#000000" d="M 383 264 L 400 264 M 400 264 A 8 8 0 0 0 408 256 L 408 232 M 408 232 A 8 8 0 0 1 416 224 L 432 224" stroke-miterlimit="10" stroke-dasharray="3"/></g><g transform="translate(-54,-46) scale(1,1)"><path fill="#C0C0C0" stroke="none" d="M 225 367 L 267.015625 367 Q 277.015625 367 277.015625 377 L 277.015625 397 Q 277.015625 407 267.015625 407 L 225 407 Q 215 407 215 397 L 215 377 Q 215 367 225 367 Z" opacity="0.2"/></g><g transform="translate(-54,-46) scale(1,1)"><path fill="#ffffff" stroke="none" d="M 218 360 L 260.015625 360 Q 270.015625 360 270.015625 370 L 270.015625 390 Q 270.015625 400 260.015625 400 L 218 400 Q 208 400 208 390 L 208 370 Q 208 360 218 360 Z"/></g><g transform="translate(-54,-46) scale(1,1)"><path fill="none" stroke="#000000" d="M 218 360 L 260.015625 360 Q 270.015625 360 270.015625 370 L 270.015625 390 Q 270.015625 400 260.015625 400 L 218 400 Q 208 400 208 390 L 208 370 Q 208 360 218 360 Z" stroke-miterlimit="10"/></g><g transform="translate(-54,-46) scale(1,1)"><g><path fill="none" stroke="none"/><text fill="#000000" stroke="none" font-family="Arial" font-size="13px" font-style="normal" font-weight="bold" text-decoration="none" x="213.0078125" y="379.5">开始体验</text></g></g><g transform="translate(-54,-46) scale(1,1)"><path fill="#C0C0C0" stroke="none" d="M 313 367 L 365 367 Q 375 367 375 377 L 375 397 Q 375 407 365 407 L 313 407 Q 303 407 303 397 L 303 377 Q 303 367 313 367 Z" opacity="0.2"/></g><g transform="translate(-54,-46) scale(1,1)"><path fill="#ffffff" stroke="none" d="M 306 360 L 358 360 Q 368 360 368 370 L 368 390 Q 368 400 358 400 L 306 400 Q 296 400 296 390 L 296 370 Q 296 360 306 360 Z"/></g><g transform="translate(-54,-46) scale(1,1)"><path fill="none" stroke="#000000" d="M 306 360 L 358 360 Q 368 360 368 370 L 368 390 Q 368 400 358 400 L 306 400 Q 296 400 296 390 L 296 370 Q 296 360 306 360 Z" stroke-miterlimit="10"/></g><g transform="translate(-54,-46) scale(1,1)"><g><path fill="none" stroke="none"/><text fill="#000000" stroke="none" font-family="Arial" font-size="13px" font-style="normal" font-weight="bold" text-decoration="none" x="306" y="379.5">使用帮助</text></g></g><g transform="translate(-54,-46) scale(1,1)"><path fill="none" stroke="#000000" d="M 224 400 L 224 564 M 224 564 A 8 8 0 0 0 232 572 L 264 572" stroke-miterlimit="10"/></g><g transform="translate(-54,-46) scale(1,1)"><path fill="none" stroke="#000000" d="M 253.83732514237585 576.209517756016 L 264 572 L 253.83732514237585 567.790482243984" stroke-miterlimit="10"/></g><g transform="translate(-54,-46) scale(1,1)"><path fill="#C0C0C0" stroke="none" d="M 577 367 L 616 367 Q 626 367 626 377 L 626 397 Q 626 407 616 407 L 577 407 Q 567 407 567 397 L 567 377 Q 567 367 577 367 Z" opacity="0.2"/></g><g transform="translate(-54,-46) scale(1,1)"><path fill="#ffffff" stroke="none" d="M 570 360 L 609 360 Q 619 360 619 370 L 619 390 Q 619 400 609 400 L 570 400 Q 560 400 560 390 L 560 370 Q 560 360 570 360 Z"/></g><g transform="translate(-54,-46) scale(1,1)"><path fill="none" stroke="#000000" d="M 570 360 L 609 360 Q 619 360 619 370 L 619 390 Q 619 400 609 400 L 570 400 Q 560 400 560 390 L 560 370 Q 560 360 570 360 Z" stroke-miterlimit="10"/></g><g transform="translate(-54,-46) scale(1,1)"><g><path fill="none" stroke="none"/><text fill="#000000" stroke="none" font-family="Arial" font-size="13px" font-style="normal" font-weight="bold" text-decoration="none" x="576.5" y="379.5">退出</text></g></g><g transform="translate(-54,-46) scale(1,1)"><path fill="#C0C0C0" stroke="none" d="M 305 439 L 386.77734375 439 Q 396.77734375 439 396.77734375 449 L 396.77734375 469 Q 396.77734375 479 386.77734375 479 L 305 479 Q 295 479 295 469 L 295 449 Q 295 439 305 439 Z" opacity="0.2"/></g><g transform="translate(-54,-46) scale(1,1)"><path fill="#ffffff" stroke="none" d="M 298 432 L 379.77734375 432 Q 389.77734375 432 389.77734375 442 L 389.77734375 462 Q 389.77734375 472 379.77734375 472 L 298 472 Q 288 472 288 462 L 288 442 Q 288 432 298 432 Z"/></g><g transform="translate(-54,-46) scale(1,1)"><path fill="none" stroke="#000000" d="M 298 432 L 379.77734375 432 Q 389.77734375 432 389.77734375 442 L 389.77734375 462 Q 389.77734375 472 379.77734375 472 L 298 472 Q 288 472 288 462 L 288 442 Q 288 432 298 432 Z" stroke-miterlimit="10"/></g><g transform="translate(-54,-46) scale(1,1)"><g><path fill="none" stroke="none"/><text fill="#000000" stroke="none" font-family="Arial" font-size="13px" font-style="normal" font-weight="bold" text-decoration="none" x="312.888671875" y="451.5">帮助界面</text></g></g><g transform="translate(-54,-46) scale(1,1)"><path fill="none" stroke="#000000" d="M 334 400 L 334 432" stroke-miterlimit="10"/></g><g transform="translate(-54,-46) scale(1,1)"><path fill="none" stroke="#000000" d="M 329.790482243984 421.83732514237585 L 334 432 L 338.209517756016 421.83732514237585" stroke-miterlimit="10"/></g><g transform="translate(-54,-46) scale(1,1)"><path fill="#C0C0C0" stroke="none" d="M 409 367 L 524 367 Q 534 367 534 377 L 534 397 Q 534 407 524 407 L 409 407 Q 399 407 399 397 L 399 377 Q 399 367 409 367 Z" opacity="0.2"/></g><g transform="translate(-54,-46) scale(1,1)"><path fill="#ffffff" stroke="none" d="M 402 360 L 517 360 Q 527 360 527 370 L 527 390 Q 527 400 517 400 L 402 400 Q 392 400 392 390 L 392 370 Q 392 360 402 360 Z"/></g><g transform="translate(-54,-46) scale(1,1)"><path fill="none" stroke="#000000" d="M 402 360 L 517 360 Q 527 360 527 370 L 527 390 Q 527 400 517 400 L 402 400 Q 392 400 392 390 L 392 370 Q 392 360 402 360 Z" stroke-miterlimit="10"/></g><g transform="translate(-54,-46) scale(1,1)"><g><path fill="none" stroke="none"/><text fill="#000000" stroke="none" font-family="Arial" font-size="13px" font-style="normal" font-weight="bold" text-decoration="none" x="427" y="379.5">开发者信息</text></g></g><g transform="translate(-54,-46) scale(1,1)"><path fill="#C0C0C0" stroke="none" d="M 433 439 L 548 439 Q 558 439 558 449 L 558 469 Q 558 479 548 479 L 433 479 Q 423 479 423 469 L 423 449 Q 423 439 433 439 Z" opacity="0.2"/></g><g transform="translate(-54,-46) scale(1,1)"><path fill="#ffffff" stroke="none" d="M 426 432 L 541 432 Q 551 432 551 442 L 551 462 Q 551 472 541 472 L 426 472 Q 416 472 416 462 L 416 442 Q 416 432 426 432 Z"/></g><g transform="translate(-54,-46) scale(1,1)"><path fill="none" stroke="#000000" d="M 426 432 L 541 432 Q 551 432 551 442 L 551 462 Q 551 472 541 472 L 426 472 Q 416 472 416 462 L 416 442 Q 416 432 426 432 Z" stroke-miterlimit="10"/></g><g transform="translate(-54,-46) scale(1,1)"><g><path fill="none" stroke="none"/><text fill="#000000" stroke="none" font-family="Arial" font-size="13px" font-style="normal" font-weight="bold" text-decoration="none" x="438" y="451.5">开发者信息界面</text></g></g><g transform="translate(-54,-46) scale(1,1)"><path fill="#C0C0C0" stroke="none" d="M 583 456.5 C 583 451.2532944 587.2532944 447 592.5 447 C 597.7467056 447 602 451.2532944 602 456.5 C 602 461.7467056 597.7467056 466 592.5 466 C 587.2532944 466 583 461.7467056 583 456.5 Z" opacity="0.2"/></g><g transform="translate(-54,-46) scale(1,1)"><path fill="#000000" stroke="none" d="M 576 449.5 C 576 444.2532944 580.2532944 440 585.5 440 C 590.7467056 440 595 444.2532944 595 449.5 C 595 454.7467056 590.7467056 459 585.5 459 C 580.2532944 459 576 454.7467056 576 449.5 Z"/></g><g transform="translate(-54,-46) scale(1,1)"><path fill="none" stroke="#000000" d="M 466 400 L 466 432" stroke-miterlimit="10"/></g><g transform="translate(-54,-46) scale(1,1)"><path fill="none" stroke="#000000" d="M 461.790482243984 421.83732514237585 L 466 432 L 470.209517756016 421.83732514237585" stroke-miterlimit="10"/></g><g transform="translate(-54,-46) scale(1,1)"><path fill="none" stroke="#000000" d="M 585 400 L 585 440" stroke-miterlimit="10"/></g><g transform="translate(-54,-46) scale(1,1)"><path fill="none" stroke="#000000" d="M 580.790482243984 429.83732514237585 L 585 440 L 589.209517756016 429.83732514237585" stroke-miterlimit="10"/></g><g transform="translate(-54,-46) scale(1,1)"><g><path fill="none" stroke="none"/><text fill="#000000" stroke="none" font-family="Arial" font-size="13px" font-style="normal" font-weight="normal" text-decoration="none" x="589.5" y="425.5">关闭程序</text></g></g><g transform="translate(-54,-46) scale(1,1)"><path fill="#C0C0C0" stroke="none" d="M 319 328.5 L 330.5 319 L 341 328.5 L 330.5 337 L 319 328.5" opacity="0.2"/></g><g transform="translate(-54,-46) scale(1,1)"><path fill="#ffffff" stroke="none" d="M 312 321 L 323 312 L 334 321 L 323 330 L 312 321"/></g><g transform="translate(-54,-46) scale(1,1)"><path fill="none" stroke="#000000" d="M 312 321 L 323 312 L 334 321 L 323 330 L 312 321 L 312 321" stroke-miterlimit="10"/></g><g transform="translate(-54,-46) scale(1,1)"><path fill="none" stroke="#000000" d="M 326 288 L 326 312" stroke-miterlimit="10"/></g><g transform="translate(-54,-46) scale(1,1)"><path fill="none" stroke="#000000" d="M 321.790482243984 301.83732514237585 L 326 312 L 330.209517756016 301.83732514237585" stroke-miterlimit="10"/></g><g transform="translate(-54,-46) scale(1,1)"><path fill="none" stroke="#000000" d="M 312 320 L 240 320 M 240 320 A 8 8 0 0 0 232 328 L 232 360" stroke-miterlimit="10"/></g><g transform="translate(-54,-46) scale(1,1)"><path fill="none" stroke="#000000" d="M 227.790482243984 349.83732514237585 L 232 360 L 236.209517756016 349.83732514237585" stroke-miterlimit="10"/></g><g transform="translate(-54,-46) scale(1,1)"><path fill="none" stroke="#000000" d="M 324 330 L 324 360" stroke-miterlimit="10"/></g><g transform="translate(-54,-46) scale(1,1)"><path fill="none" stroke="#000000" d="M 319.790482243984 349.83732514237585 L 324 360 L 328.209517756016 349.83732514237585" stroke-miterlimit="10"/></g><g transform="translate(-54,-46) scale(1,1)"><path fill="none" stroke="#000000" d="M 334 330 L 416 330 M 416 330 A 8 8 0 0 1 424 338 L 424 360" stroke-miterlimit="10"/></g><g transform="translate(-54,-46) scale(1,1)"><path fill="none" stroke="#000000" d="M 419.790482243984 349.83732514237585 L 424 360 L 428.209517756016 349.83732514237585" stroke-miterlimit="10"/></g><g transform="translate(-54,-46) scale(1,1)"><path fill="none" stroke="#000000" d="M 334 320 L 568 320 M 568 320 A 8 8 0 0 1 576 328 L 576 360" stroke-miterlimit="10"/></g><g transform="translate(-54,-46) scale(1,1)"><path fill="none" stroke="#000000" d="M 571.790482243984 349.83732514237585 L 576 360 L 580.209517756016 349.83732514237585" stroke-miterlimit="10"/></g><g transform="translate(-54,-46) scale(1,1)"><path fill="#C0C0C0" stroke="none" d="M 383 514 L 407 503 L 430 514 L 407 524 L 383 514" opacity="0.2"/></g><g transform="translate(-54,-46) scale(1,1)"><path fill="#ffffff" stroke="none" d="M 376 506.5 L 399.5 496 L 423 506.5 L 399.5 517 L 376 506.5"/></g><g transform="translate(-54,-46) scale(1,1)"><path fill="none" stroke="#000000" d="M 376 506.5 L 399.5 496 L 423 506.5 L 399.5 517 L 376 506.5 L 376 506.5" stroke-miterlimit="10"/></g><g transform="translate(-54,-46) scale(1,1)"><path fill="none" stroke="#000000" d="M 368 472 L 368 498 M 368 498 A 8 8 0 0 0 376 506 L 376 506" stroke-miterlimit="10"/></g><g transform="translate(-54,-46) scale(1,1)"><path fill="none" stroke="#000000" d="M 365.83732514237585 510.209517756016 L 376 506 L 365.83732514237585 501.790482243984" stroke-miterlimit="10"/></g><g transform="translate(-54,-46) scale(1,1)"><path fill="none" stroke="#000000" d="M 416 472 L 416 496" stroke-miterlimit="10"/></g><g transform="translate(-54,-46) scale(1,1)"><path fill="none" stroke="#000000" d="M 411.790482243984 485.83732514237585 L 416 496 L 420.209517756016 485.83732514237585" stroke-miterlimit="10"/></g><g transform="translate(-54,-46) scale(1,1)"><path fill="none" stroke="#000000" d="M 423 504 L 640 504 M 640 504 A 8 8 0 0 0 648 496 L 648 280 M 648 280 A 8 8 0 0 0 640 272 L 383 272" stroke-miterlimit="10"/></g><g transform="translate(-54,-46) scale(1,1)"><path fill="none" stroke="#000000" d="M 393.16267485762415 267.790482243984 L 383 272 L 393.16267485762415 276.209517756016" stroke-miterlimit="10"/></g></g></svg>