<svg version="1.1" xmlns="http://www.w3.org/2000/svg" xmlns:xlink="http://www.w3.org/1999/xlink" width="994" height="996"><defs/><g><g transform="translate(-22,2) scale(1,1)"><rect fill="#C0C0C0" stroke="none" x="143" y="71" width="215" height="192" opacity="0.2"/></g><g transform="translate(-22,2) scale(1,1)"><rect fill="#ffffff" stroke="none" x="136" y="64" width="215" height="192"/></g><g transform="translate(-22,2) scale(1,1)"><path fill="none" stroke="#000000" d="M 136 64 L 351 64 L 351 256 L 136 256 L 136 64 Z Z" stroke-miterlimit="10"/></g><g transform="translate(-22,2) scale(1,1)"><path fill="none" stroke="#000000" d="M 136 89 L 351 89" stroke-miterlimit="10"/></g><g transform="translate(-22,2) scale(1,1)"><path fill="none" stroke="#000000" d="M 136 202 L 351 202" stroke-miterlimit="10"/></g><g transform="translate(-22,2) scale(1,1)"><g><path fill="none" stroke="none"/><text fill="#000000" stroke="none" font-family="Arial" font-size="13px" font-style="normal" font-weight="bold" text-decoration="none" x="209.8955078125" y="83.5">Component</text></g></g><g transform="translate(-22,2) scale(1,1)"><g><path fill="none" stroke="none"/><text fill="#000000" stroke="none" font-family="Arial" font-size="13px" font-style="normal" font-weight="normal" text-decoration="none" x="141" y="106.5">+leftNode: Node</text></g></g><g transform="translate(-22,2) scale(1,1)"><g><path fill="none" stroke="none"/><text fill="#000000" stroke="none" font-family="Arial" font-size="13px" font-style="normal" font-weight="normal" text-decoration="none" x="141" y="121.5">+rightNode: Node</text></g></g><g transform="translate(-22,2) scale(1,1)"><g><path fill="none" stroke="none"/><text fill="#000000" stroke="none" font-family="Arial" font-size="13px" font-style="normal" font-weight="normal" text-decoration="none" x="141" y="136.5">+U: float</text></g></g><g transform="translate(-22,2) scale(1,1)"><g><path fill="none" stroke="none"/><text fill="#000000" stroke="none" font-family="Arial" font-size="13px" font-style="normal" font-weight="normal" text-decoration="none" x="141" y="151.5">+I: float</text></g></g><g transform="translate(-22,2) scale(1,1)"><g><path fill="none" stroke="none"/><text fill="#000000" stroke="none" font-family="Arial" font-size="13px" font-style="normal" font-weight="normal" text-decoration="none" x="141" y="166.5">+R: float</text></g></g><g transform="translate(-22,2) scale(1,1)"><g><path fill="none" stroke="none"/><text fill="#000000" stroke="none" font-family="Arial" font-size="13px" font-style="normal" font-weight="normal" text-decoration="none" x="141" y="181.5">+name: string</text></g></g><g transform="translate(-22,2) scale(1,1)"><g><path fill="none" stroke="none"/><text fill="#000000" stroke="none" font-family="Arial" font-size="13px" font-style="normal" font-weight="normal" text-decoration="none" x="141" y="196.5">+obj: GameObject</text></g></g><g transform="translate(-22,2) scale(1,1)"><rect fill="#C0C0C0" stroke="none" x="399" y="71" width="215" height="191" opacity="0.2"/></g><g transform="translate(-22,2) scale(1,1)"><rect fill="#ffffff" stroke="none" x="392" y="64" width="215" height="191"/></g><g transform="translate(-22,2) scale(1,1)"><path fill="none" stroke="#000000" d="M 392 64 L 607 64 L 607 255 L 392 255 L 392 64 Z Z" stroke-miterlimit="10"/></g><g transform="translate(-22,2) scale(1,1)"><path fill="none" stroke="#000000" d="M 392 89 L 607 89" stroke-miterlimit="10"/></g><g transform="translate(-22,2) scale(1,1)"><path fill="none" stroke="#000000" d="M 392 142 L 607 142" stroke-miterlimit="10"/></g><g transform="translate(-22,2) scale(1,1)"><g><path fill="none" stroke="none"/><text fill="#000000" stroke="none" font-family="Arial" font-size="13px" font-style="normal" font-weight="bold" text-decoration="none" x="483.9609375" y="83.5">Node</text></g></g><g transform="translate(-22,2) scale(1,1)"><g><path fill="none" stroke="none"/><text fill="#000000" stroke="none" font-family="Arial" font-size="13px" font-style="normal" font-weight="normal" text-decoration="none" x="397" y="106.5">+component: Component</text></g></g><g transform="translate(-22,2) scale(1,1)"><g><path fill="none" stroke="none"/><text fill="#000000" stroke="none" font-family="Arial" font-size="13px" font-style="normal" font-weight="normal" text-decoration="none" x="397" y="121.5">+conectedNodes: Node[]</text></g></g><g transform="translate(-22,2) scale(1,1)"><g><path fill="none" stroke="none"/><text fill="#000000" stroke="none" font-family="Arial" font-size="13px" font-style="normal" font-weight="normal" text-decoration="none" x="397" y="136.5">+isLeftNode: bool</text></g></g><g transform="translate(-22,2) scale(1,1)"><g><path fill="none" stroke="none"/><text fill="#000000" stroke="none" font-family="Arial" font-size="13px" font-style="normal" font-weight="normal" text-decoration="none" x="397" y="159.5">+getOnotherNode(): Node</text></g></g><g transform="translate(-22,2) scale(1,1)"><rect fill="#C0C0C0" stroke="none" x="87" y="343" width="207" height="104" opacity="0.2"/></g><g transform="translate(-22,2) scale(1,1)"><rect fill="#ffffff" stroke="none" x="80" y="336" width="207" height="104"/></g><g transform="translate(-22,2) scale(1,1)"><path fill="none" stroke="#000000" d="M 80 336 L 287 336 L 287 440 L 80 440 L 80 336 Z Z" stroke-miterlimit="10"/></g><g transform="translate(-22,2) scale(1,1)"><path fill="none" stroke="#000000" d="M 80 361 L 287 361" stroke-miterlimit="10"/></g><g transform="translate(-22,2) scale(1,1)"><path fill="none" stroke="#000000" d="M 80 384 L 287 384" stroke-miterlimit="10"/></g><g transform="translate(-22,2) scale(1,1)"><g><path fill="none" stroke="none"/><text fill="#000000" stroke="none" font-family="Arial" font-size="13px" font-style="normal" font-weight="bold" text-decoration="none" x="169.405029296875" y="355.5">Light</text></g></g><g transform="translate(-22,2) scale(1,1)"><g><path fill="none" stroke="none"/><text fill="#000000" stroke="none" font-family="Arial" font-size="13px" font-style="normal" font-weight="normal" text-decoration="none" x="85" y="378.5">+maxP: float</text></g></g><g transform="translate(-22,2) scale(1,1)"><rect fill="#C0C0C0" stroke="none" x="343" y="343" width="215" height="104" opacity="0.2"/></g><g transform="translate(-22,2) scale(1,1)"><rect fill="#ffffff" stroke="none" x="336" y="336" width="215" height="104"/></g><g transform="translate(-22,2) scale(1,1)"><path fill="none" stroke="#000000" d="M 336 336 L 551 336 L 551 440 L 336 440 L 336 336 Z Z" stroke-miterlimit="10"/></g><g transform="translate(-22,2) scale(1,1)"><path fill="none" stroke="#000000" d="M 336 361 L 551 361" stroke-miterlimit="10"/></g><g transform="translate(-22,2) scale(1,1)"><path fill="none" stroke="#000000" d="M 336 384 L 551 384" stroke-miterlimit="10"/></g><g transform="translate(-22,2) scale(1,1)"><g><path fill="none" stroke="none"/><text fill="#000000" stroke="none" font-family="Arial" font-size="13px" font-style="normal" font-weight="bold" text-decoration="none" x="430.141357421875" y="355.5">Wire</text></g></g><g transform="translate(-22,2) scale(1,1)"><g><path fill="none" stroke="none"/><text fill="#000000" stroke="none" font-family="Arial" font-size="13px" font-style="normal" font-weight="normal" text-decoration="none" x="341" y="378.5">+maxP: float</text></g></g><g transform="translate(-22,2) scale(1,1)"><rect fill="#C0C0C0" stroke="none" x="87" y="487" width="207" height="80" opacity="0.2"/></g><g transform="translate(-22,2) scale(1,1)"><rect fill="#ffffff" stroke="none" x="80" y="480" width="207" height="80"/></g><g transform="translate(-22,2) scale(1,1)"><path fill="none" stroke="#000000" d="M 80 480 L 287 480 L 287 560 L 80 560 L 80 480 Z Z" stroke-miterlimit="10"/></g><g transform="translate(-22,2) scale(1,1)"><path fill="none" stroke="#000000" d="M 80 505 L 287 505" stroke-miterlimit="10"/></g><g transform="translate(-22,2) scale(1,1)"><path fill="none" stroke="#000000" d="M 80 528 L 287 528" stroke-miterlimit="10"/></g><g transform="translate(-22,2) scale(1,1)"><g><path fill="none" stroke="none"/><text fill="#000000" stroke="none" font-family="Arial" font-size="13px" font-style="normal" font-weight="bold" text-decoration="none" x="169.408203125" y="499.5">Gate</text></g></g><g transform="translate(-22,2) scale(1,1)"><g><path fill="none" stroke="none"/><text fill="#000000" stroke="none" font-family="Arial" font-size="13px" font-style="normal" font-weight="normal" text-decoration="none" x="85" y="522.5">+isOpen: bool</text></g></g><g transform="translate(-22,2) scale(1,1)"><g><path fill="none" stroke="none"/><text fill="#000000" stroke="none" font-family="Arial" font-size="13px" font-style="normal" font-weight="normal" text-decoration="none" x="85" y="545.5">+toggle()</text></g></g><g transform="translate(-22,2) scale(1,1)"><rect fill="#C0C0C0" stroke="none" x="343" y="487" width="216" height="80" opacity="0.2"/></g><g transform="translate(-22,2) scale(1,1)"><rect fill="#ffffff" stroke="none" x="336" y="480" width="216" height="80"/></g><g transform="translate(-22,2) scale(1,1)"><path fill="none" stroke="#000000" d="M 336 480 L 552 480 L 552 560 L 336 560 L 336 480 Z Z" stroke-miterlimit="10"/></g><g transform="translate(-22,2) scale(1,1)"><path fill="none" stroke="#000000" d="M 336 505 L 552 505" stroke-miterlimit="10"/></g><g transform="translate(-22,2) scale(1,1)"><path fill="none" stroke="#000000" d="M 336 515 L 552 515" stroke-miterlimit="10"/></g><g transform="translate(-22,2) scale(1,1)"><g><path fill="none" stroke="none"/><text fill="#000000" stroke="none" font-family="Arial" font-size="13px" font-style="normal" font-weight="bold" text-decoration="none" x="423.408203125" y="499.5">Battery</text></g></g><g transform="translate(-22,2) scale(1,1)"><path fill="none" stroke="#000000" d="M 224 336 L 224 256" stroke-miterlimit="10"/></g><g transform="translate(-22,2) scale(1,1)"><path fill="#FFFFFF" stroke="none" d="M 232.41903551203197 276.3253497152483 L 224 256 L 215.58096448796803 276.3253497152483"/></g><g transform="translate(-22,2) scale(1,1)"><path fill="none" stroke="#000000" d="M 232.41903551203197 276.3253497152483 L 224 256 L 215.58096448796803 276.3253497152483 L 232.41903551203197 276.3253497152483" stroke-miterlimit="10"/></g><g transform="translate(-22,2) scale(1,1)"><path fill="none" stroke="#000000" d="M 384 336 L 384 320 M 384 320 A 8 8 0 0 0 376 312 L 264 312 M 264 312 A 8 8 0 0 1 256 304 L 256 256" stroke-miterlimit="10"/></g><g transform="translate(-22,2) scale(1,1)"><path fill="#FFFFFF" stroke="none" d="M 264.419035512032 276.3253497152483 L 256 256 L 247.58096448796803 276.3253497152483"/></g><g transform="translate(-22,2) scale(1,1)"><path fill="none" stroke="#000000" d="M 264.419035512032 276.3253497152483 L 256 256 L 247.58096448796803 276.3253497152483 L 264.419035512032 276.3253497152483" stroke-miterlimit="10"/></g><g transform="translate(-22,2) scale(1,1)"><path fill="none" stroke="#000000" d="M 80 496 L 64 496 M 64 496 A 8 8 0 0 1 56 488 L 56 320 M 56 320 A 8 8 0 0 1 64 312 L 176 312 M 176 312 A 8 8 0 0 0 184 304 L 184 256" stroke-miterlimit="10"/></g><g transform="translate(-22,2) scale(1,1)"><path fill="#FFFFFF" stroke="none" d="M 192.41903551203197 276.3253497152483 L 184 256 L 175.58096448796803 276.3253497152483"/></g><g transform="translate(-22,2) scale(1,1)"><path fill="none" stroke="#000000" d="M 192.41903551203197 276.3253497152483 L 184 256 L 175.58096448796803 276.3253497152483 L 192.41903551203197 276.3253497152483" stroke-miterlimit="10"/></g><g transform="translate(-22,2) scale(1,1)"><path fill="none" stroke="#000000" d="M 552 504 L 568 504 M 568 504 A 8 8 0 0 0 576 496 L 576 304 M 576 304 A 8 8 0 0 0 568 296 L 320 296 M 320 296 A 8 8 0 0 1 312 288 L 312 256" stroke-miterlimit="10"/></g><g transform="translate(-22,2) scale(1,1)"><path fill="#FFFFFF" stroke="none" d="M 320.419035512032 276.3253497152483 L 312 256 L 303.580964487968 276.3253497152483"/></g><g transform="translate(-22,2) scale(1,1)"><path fill="none" stroke="#000000" d="M 320.419035512032 276.3253497152483 L 312 256 L 303.580964487968 276.3253497152483 L 320.419035512032 276.3253497152483" stroke-miterlimit="10"/></g><g transform="translate(-22,2) scale(1,1)"><path fill="none" stroke="#000000" d="M 392 104 L 351 104" stroke-miterlimit="10"/></g><g transform="translate(-22,2) scale(1,1)"><path fill="#000000" stroke="none" d="M 361.16267485762415 99.79048224398402 L 351 104 L 361.16267485762415 108.20951775601598 L 373 104"/></g><g transform="translate(-22,2) scale(1,1)"><path fill="none" stroke="#000000" d="M 361.16267485762415 99.79048224398402 L 351 104 L 361.16267485762415 108.20951775601598 L 373 104 L 361.16267485762415 99.79048224398402" stroke-miterlimit="10"/></g><g transform="translate(-22,2) scale(1,1)"><path fill="#ffffff" stroke="none" d="M 632 88 L 984.56982421875 88 L 994.56982421875 98 L 994.56982421875 126 L 632 126 L 632 88"/></g><g transform="translate(-22,2) scale(1,1)"><path fill="none" stroke="#000000" d="M 632 88 L 984.56982421875 88 L 994.56982421875 98 L 994.56982421875 126 L 632 126 L 632 88 L 632 88" stroke-miterlimit="10"/></g><g transform="translate(-22,2) scale(1,1)"><path fill="none" stroke="#000000" d="M 984.56982421875 88 L 984.56982421875 98 L 994.56982421875 98 L 984.56982421875 88" stroke-miterlimit="10"/></g><g transform="translate(-22,2) scale(1,1)"><g><path fill="none" stroke="none"/><text fill="#000000" stroke="none" font-family="Arial" font-size="13px" font-style="normal" font-weight="normal" text-decoration="none" x="637" y="106">判断串联并联的一个关键是conectedNodes的数目是否大于2</text></g></g><g transform="translate(-22,2) scale(1,1)"><path fill="none" stroke="#000000" d="M 607 104 L 632 104" stroke-miterlimit="10" stroke-dasharray="3"/></g><g transform="translate(-22,2) scale(1,1)"><path fill="#ffffff" stroke="none" d="M 584 336 L 995 336 L 1005 346 L 1005 421 L 584 421 L 584 336"/></g><g transform="translate(-22,2) scale(1,1)"><path fill="none" stroke="#000000" d="M 584 336 L 995 336 L 1005 346 L 1005 421 L 584 421 L 584 336 L 584 336" stroke-miterlimit="10"/></g><g transform="translate(-22,2) scale(1,1)"><path fill="none" stroke="#000000" d="M 995 336 L 995 346 L 1005 346 L 995 336" stroke-miterlimit="10"/></g><g transform="translate(-22,2) scale(1,1)"><g><path fill="none" stroke="none"/><text fill="#000000" stroke="none" font-family="Arial" font-size="13px" font-style="normal" font-weight="normal" text-decoration="none" x="589" y="354">基本流程：</text></g></g><g transform="translate(-22,2) scale(1,1)"><g><path fill="none" stroke="none"/><text fill="#000000" stroke="none" font-family="Arial" font-size="13px" font-style="normal" font-weight="normal" text-decoration="none" x="589" y="369">一次增加一个原件，或者一个支路；</text></g></g><g transform="translate(-22,2) scale(1,1)"><g><path fill="none" stroke="none"/><text fill="#000000" stroke="none" font-family="Arial" font-size="13px" font-style="normal" font-weight="normal" text-decoration="none" x="589" y="384">每增加一个元件或者一个支路，都去改变电路树的结构；</text></g></g><g transform="translate(-22,2) scale(1,1)"><g><path fill="none" stroke="none"/><text fill="#000000" stroke="none" font-family="Arial" font-size="13px" font-style="normal" font-weight="normal" text-decoration="none" x="589" y="399">改变了结构后，开始遍历电路树，并计算出每个节点的电流电压电阻；</text></g></g><g transform="translate(-22,2) scale(1,1)"><g><path fill="none" stroke="none"/><text fill="#000000" stroke="none" font-family="Arial" font-size="13px" font-style="normal" font-weight="normal" text-decoration="none" x="589" y="414">将电流电压电阻变化在视图中体现出来。</text></g></g><g transform="translate(-22,2) scale(1,1)"><g><path fill="none" stroke="none"/></g></g><g transform="translate(-22,2) scale(1,1)"><path fill="#ffffff" stroke="none" d="M 40 16 L 178 16 L 188 26 L 188 54 L 40 54 L 40 16"/></g><g transform="translate(-22,2) scale(1,1)"><path fill="none" stroke="#000000" d="M 40 16 L 178 16 L 188 26 L 188 54 L 40 54 L 40 16 L 40 16" stroke-miterlimit="10"/></g><g transform="translate(-22,2) scale(1,1)"><path fill="none" stroke="#000000" d="M 178 16 L 178 26 L 188 26 L 178 16" stroke-miterlimit="10"/></g><g transform="translate(-22,2) scale(1,1)"><g><path fill="none" stroke="none"/><text fill="#000000" stroke="none" font-family="Arial" font-size="13px" font-style="normal" font-weight="normal" text-decoration="none" x="45" y="34">电路组件类（图结构）</text></g></g><g transform="translate(-22,2) scale(1,1)"><path fill="#ffffff" stroke="none" d="M 64 592 L 197.658203125 592 L 207.658203125 602 L 207.658203125 630 L 64 630 L 64 592"/></g><g transform="translate(-22,2) scale(1,1)"><path fill="none" stroke="#000000" d="M 64 592 L 197.658203125 592 L 207.658203125 602 L 207.658203125 630 L 64 630 L 64 592 L 64 592" stroke-miterlimit="10"/></g><g transform="translate(-22,2) scale(1,1)"><path fill="none" stroke="#000000" d="M 197.658203125 592 L 197.658203125 602 L 207.658203125 602 L 197.658203125 592" stroke-miterlimit="10"/></g><g transform="translate(-22,2) scale(1,1)"><g><path fill="none" stroke="none"/><text fill="#000000" stroke="none" font-family="Arial" font-size="13px" font-style="normal" font-weight="normal" text-decoration="none" x="69" y="610">抽象电路模型(树结构)</text></g></g><g transform="translate(-22,2) scale(1,1)"><path fill="#ffffff" stroke="none" d="M 320 8 L 822 8 L 832 18 L 832 54 L 320 54 L 320 8"/></g><g transform="translate(-22,2) scale(1,1)"><path fill="none" stroke="#000000" d="M 320 8 L 822 8 L 832 18 L 832 54 L 320 54 L 320 8 L 320 8" stroke-miterlimit="10"/></g><g transform="translate(-22,2) scale(1,1)"><path fill="none" stroke="#000000" d="M 822 8 L 822 18 L 832 18 L 822 8" stroke-miterlimit="10"/></g><g transform="translate(-22,2) scale(1,1)"><g><path fill="none" stroke="none"/><text fill="#000000" stroke="none" font-family="Arial" font-size="13px" font-style="normal" font-weight="normal" text-decoration="none" x="325" y="26">基本的思想：每个组件都有两个节点，节点连接者节点，每个节点可以与多个节点相连</text></g></g><g transform="translate(-22,2) scale(1,1)"><path fill="#ffffff" stroke="none" d="M 224 592 L 791 592 L 801 602 L 801 630 L 224 630 L 224 592"/></g><g transform="translate(-22,2) scale(1,1)"><path fill="none" stroke="#000000" d="M 224 592 L 791 592 L 801 602 L 801 630 L 224 630 L 224 592 L 224 592" stroke-miterlimit="10"/></g><g transform="translate(-22,2) scale(1,1)"><path fill="none" stroke="#000000" d="M 791 592 L 791 602 L 801 602 L 791 592" stroke-miterlimit="10"/></g><g transform="translate(-22,2) scale(1,1)"><g><path fill="none" stroke="none"/><text fill="#000000" stroke="none" font-family="Arial" font-size="13px" font-style="normal" font-weight="normal" text-decoration="none" x="229" y="610">基本思想：树的根节点是一个并流元，并流元的子节点是串联元，串联元的子节点是并流元。。。</text></g></g><g transform="translate(-22,2) scale(1,1)"><g><path fill="none" stroke="none"/><text fill="#000000" stroke="none" font-family="Arial" font-size="13px" font-style="normal" font-weight="normal" text-decoration="none" x="229" y="625">以此轮推。最后的叶子节点是串联元（只含有单个电路组件）</text></g></g><g transform="translate(-22,2) scale(1,1)"><rect fill="#C0C0C0" stroke="none" x="263" y="663" width="175" height="190" opacity="0.2"/></g><g transform="translate(-22,2) scale(1,1)"><rect fill="#ffffff" stroke="none" x="256" y="656" width="175" height="190"/></g><g transform="translate(-22,2) scale(1,1)"><path fill="none" stroke="#000000" d="M 256 656 L 431 656 L 431 846 L 256 846 L 256 656 Z Z" stroke-miterlimit="10"/></g><g transform="translate(-22,2) scale(1,1)"><path fill="none" stroke="#000000" d="M 256 681 L 431 681" stroke-miterlimit="10"/></g><g transform="translate(-22,2) scale(1,1)"><path fill="none" stroke="#000000" d="M 256 794 L 431 794" stroke-miterlimit="10"/></g><g transform="translate(-22,2) scale(1,1)"><g><path fill="none" stroke="none"/><text fill="#000000" stroke="none" font-family="Arial" font-size="13px" font-style="normal" font-weight="bold" text-decoration="none" x="314.595947265625" y="675.5">TreeNode</text></g></g><g transform="translate(-22,2) scale(1,1)"><g><path fill="none" stroke="none"/><text fill="#000000" stroke="none" font-family="Arial" font-size="13px" font-style="normal" font-weight="normal" text-decoration="none" x="261" y="698.5">+parent: TreeNode</text></g></g><g transform="translate(-22,2) scale(1,1)"><g><path fill="none" stroke="none"/><text fill="#000000" stroke="none" font-family="Arial" font-size="13px" font-style="normal" font-weight="normal" text-decoration="none" x="261" y="713.5">+children: TreeNode[*]</text></g></g><g transform="translate(-22,2) scale(1,1)"><g><path fill="none" stroke="none"/><text fill="#000000" stroke="none" font-family="Arial" font-size="13px" font-style="normal" font-weight="normal" text-decoration="none" x="261" y="728.5">+R: float</text></g></g><g transform="translate(-22,2) scale(1,1)"><g><path fill="none" stroke="none"/><text fill="#000000" stroke="none" font-family="Arial" font-size="13px" font-style="normal" font-weight="normal" text-decoration="none" x="261" y="743.5">+I: float</text></g></g><g transform="translate(-22,2) scale(1,1)"><g><path fill="none" stroke="none"/><text fill="#000000" stroke="none" font-family="Arial" font-size="13px" font-style="normal" font-weight="normal" text-decoration="none" x="261" y="758.5">+U: float</text></g></g><g transform="translate(-22,2) scale(1,1)"><g><path fill="none" stroke="none"/><text fill="#000000" stroke="none" font-family="Arial" font-size="13px" font-style="normal" font-weight="normal" text-decoration="none" x="261" y="773.5">+isLeaf: bool</text></g></g><g transform="translate(-22,2) scale(1,1)"><g><path fill="none" stroke="none"/><text fill="#000000" stroke="none" font-family="Arial" font-size="13px" font-style="normal" font-weight="normal" text-decoration="none" x="261" y="788.5">+isRoot: bool</text></g></g><g transform="translate(-22,2) scale(1,1)"><g><path fill="none" stroke="none"/><text fill="#000000" stroke="none" font-family="Arial" font-size="13px" font-style="normal" font-weight="normal" text-decoration="none" x="261" y="811.5">+workOutR()</text></g></g><g transform="translate(-22,2) scale(1,1)"><g><path fill="none" stroke="none"/><text fill="#000000" stroke="none" font-family="Arial" font-size="13px" font-style="normal" font-weight="normal" text-decoration="none" x="261" y="826.5">+workOutU()</text></g></g><g transform="translate(-22,2) scale(1,1)"><g><path fill="none" stroke="none"/><text fill="#000000" stroke="none" font-family="Arial" font-size="13px" font-style="normal" font-weight="normal" text-decoration="none" x="261" y="841.5">+workOutI()</text></g></g><g transform="translate(-22,2) scale(1,1)"><rect fill="#C0C0C0" stroke="none" x="143" y="903" width="176" height="88" opacity="0.2"/></g><g transform="translate(-22,2) scale(1,1)"><rect fill="#ffffff" stroke="none" x="136" y="896" width="176" height="88"/></g><g transform="translate(-22,2) scale(1,1)"><path fill="none" stroke="#000000" d="M 136 896 L 312 896 L 312 984 L 136 984 L 136 896 Z Z" stroke-miterlimit="10"/></g><g transform="translate(-22,2) scale(1,1)"><path fill="none" stroke="#000000" d="M 136 921 L 312 921" stroke-miterlimit="10"/></g><g transform="translate(-22,2) scale(1,1)"><path fill="none" stroke="#000000" d="M 136 944 L 312 944" stroke-miterlimit="10"/></g><g transform="translate(-22,2) scale(1,1)"><g><path fill="none" stroke="none"/><text fill="#000000" stroke="none" font-family="Arial" font-size="13px" font-style="normal" font-weight="bold" text-decoration="none" x="190.036865234375" y="915.5">SeriesNode</text></g></g><g transform="translate(-22,2) scale(1,1)"><g><path fill="none" stroke="none"/><text fill="#000000" stroke="none" font-family="Arial" font-size="13px" font-style="normal" font-weight="normal" text-decoration="none" x="141" y="938.5">+component: Component</text></g></g><g transform="translate(-22,2) scale(1,1)"><rect fill="#C0C0C0" stroke="none" x="375" y="903" width="144" height="88" opacity="0.2"/></g><g transform="translate(-22,2) scale(1,1)"><rect fill="#ffffff" stroke="none" x="368" y="896" width="144" height="88"/></g><g transform="translate(-22,2) scale(1,1)"><path fill="none" stroke="#000000" d="M 368 896 L 512 896 L 512 984 L 368 984 L 368 896 Z Z" stroke-miterlimit="10"/></g><g transform="translate(-22,2) scale(1,1)"><path fill="none" stroke="#000000" d="M 368 921 L 512 921" stroke-miterlimit="10"/></g><g transform="translate(-22,2) scale(1,1)"><path fill="none" stroke="#000000" d="M 368 931 L 512 931" stroke-miterlimit="10"/></g><g transform="translate(-22,2) scale(1,1)"><g><path fill="none" stroke="none"/><text fill="#000000" stroke="none" font-family="Arial" font-size="13px" font-style="normal" font-weight="bold" text-decoration="none" x="402.78369140625" y="915.5">ParallelNode</text></g></g><g transform="translate(-22,2) scale(1,1)"><path fill="none" stroke="#000000" d="M 280 896 L 280 846" stroke-miterlimit="10"/></g><g transform="translate(-22,2) scale(1,1)"><path fill="#FFFFFF" stroke="none" d="M 288.419035512032 866.3253497152483 L 280 846 L 271.580964487968 866.3253497152483"/></g><g transform="translate(-22,2) scale(1,1)"><path fill="none" stroke="#000000" d="M 288.419035512032 866.3253497152483 L 280 846 L 271.580964487968 866.3253497152483 L 288.419035512032 866.3253497152483" stroke-miterlimit="10"/></g><g transform="translate(-22,2) scale(1,1)"><path fill="none" stroke="#000000" d="M 400 896 L 400 846" stroke-miterlimit="10"/></g><g transform="translate(-22,2) scale(1,1)"><path fill="#FFFFFF" stroke="none" d="M 408.419035512032 866.3253497152483 L 400 846 L 391.580964487968 866.3253497152483"/></g><g transform="translate(-22,2) scale(1,1)"><path fill="none" stroke="#000000" d="M 408.419035512032 866.3253497152483 L 400 846 L 391.580964487968 866.3253497152483 L 408.419035512032 866.3253497152483" stroke-miterlimit="10"/></g><g transform="translate(-22,2) scale(1,1)"><path fill="none" stroke="#000000" d="M 136 160 L 40 160 M 40 160 A 8 8 0 0 0 32 168 L 32 920 M 32 920 A 8 8 0 0 0 40 928 L 136 928" stroke-miterlimit="10"/></g><g transform="translate(-22,2) scale(1,1)"><path fill="#000000" stroke="none" d="M 125.83732514237585 932.209517756016 L 136 928 L 125.83732514237585 923.790482243984 L 114 928"/></g><g transform="translate(-22,2) scale(1,1)"><path fill="none" stroke="#000000" d="M 125.83732514237585 932.209517756016 L 136 928 L 125.83732514237585 923.790482243984 L 114 928 L 125.83732514237585 932.209517756016" stroke-miterlimit="10"/></g><g transform="translate(-22,2) scale(1,1)"><path fill="none" stroke="#000000" d="M 368 940 L 312 940" stroke-miterlimit="10"/></g><g transform="translate(-22,2) scale(1,1)"><path fill="#FFFFFF" stroke="none" d="M 322.16267485762415 935.790482243984 L 312 940 L 322.16267485762415 944.209517756016 L 334 940"/></g><g transform="translate(-22,2) scale(1,1)"><path fill="none" stroke="#000000" d="M 322.16267485762415 935.790482243984 L 312 940 L 322.16267485762415 944.209517756016 L 334 940 L 322.16267485762415 935.790482243984" stroke-miterlimit="10"/></g><g transform="translate(-22,2) scale(1,1)"><path fill="none" stroke="#000000" d="M 312 912 L 368 912" stroke-miterlimit="10"/></g><g transform="translate(-22,2) scale(1,1)"><path fill="#FFFFFF" stroke="none" d="M 357.83732514237585 916.209517756016 L 368 912 L 357.83732514237585 907.790482243984 L 346 912"/></g><g transform="translate(-22,2) scale(1,1)"><path fill="none" stroke="#000000" d="M 357.83732514237585 916.209517756016 L 368 912 L 357.83732514237585 907.790482243984 L 346 912 L 357.83732514237585 916.209517756016" stroke-miterlimit="10"/></g></g></svg>